<svg width="174" height="15" viewBox="0 0 174 15" fill="none" xmlns="http://www.w3.org/2000/svg">
<g clip-path="url(#clip0_528_6766)">
<path d="M105.312 5.05177V14.6735H114.938C117.595 14.6735 119.75 12.5189 119.75 9.86086V0.239258H110.125C107.467 0.239258 105.312 2.39377 105.312 5.05177ZM106.917 5.05177C106.915 4.63029 106.998 4.21276 107.159 3.82334C107.32 3.43392 107.557 3.08035 107.856 2.78309C108.055 2.58405 108.279 2.41185 108.522 2.27086V10.329L106.916 11.935L106.917 5.05177ZM117.206 12.1295C116.909 12.4284 116.555 12.6654 116.166 12.8267C115.777 12.988 115.359 13.0705 114.938 13.0693H108.051L109.653 11.4668H117.716C117.576 11.7089 117.404 11.9317 117.206 12.1295ZM118.146 6.65429H114.466L118.146 2.97423V6.65429ZM113.335 1.84331H117.008L113.335 5.51635V1.84331ZM118.146 8.25835V9.86206H111.258L112.862 8.25835H118.146ZM110.127 1.84331H111.73V7.12057L110.126 8.7248L110.127 1.84331Z" fill="white"/>
<path d="M7.45988 6L5.47988 5.59989C4.47977 5.37994 3.79988 4.86 3.79988 4.13983C3.79988 3.24 4.77994 2.73994 6.09994 2.73994C7.56 2.73994 8.61994 3.36 8.95988 4.44H12.3399C11.8399 1.23994 9.14006 0 6.3 0C3.45994 0 0.279944 1.38 0.279944 4.33989C0.279944 6.93995 2.42006 8.05989 4.77994 8.55995L6.54 8.91995C8.12006 9.25989 9.24 9.72001 9.24 10.6599C9.24 11.8599 7.92 12.24 6.75994 12.24C4.98 12.24 3.78 11.5399 3.39994 10.0198H0C0.519943 13.1398 2.96006 15 6.67988 15C9.69994 15 12.7599 13.2799 12.7599 10.2399C12.7599 7.2 9.79971 6.48 7.45988 6Z" fill="white"/>
<path d="M25.2997 8.69926C25.2997 10.8392 24.8797 12.1992 22.4797 12.1992C20.0997 12.1992 19.5997 11.0192 19.5997 8.89915V0.239258H16.1797V8.53915C16.1797 13.3191 18.1398 14.9993 22.4797 14.9993C26.9997 14.9993 28.7197 12.8792 28.7197 8.41915V0.239258H25.2997V8.69926Z" fill="white"/>
<path d="M39.6319 6.00001L37.6519 5.59989C36.652 5.37995 35.9719 4.86001 35.9719 4.13983C35.9719 3.24 36.952 2.73995 38.272 2.73995C39.7319 2.73995 40.792 3.36 41.1319 4.44001H44.5118C44.0119 1.23994 41.3119 0 38.4719 0C35.6318 0 32.452 1.38 32.452 4.33989C32.452 6.93995 34.5919 8.05989 36.952 8.55995L38.7119 8.91995C40.2919 9.2599 41.4119 9.72001 41.4119 10.66C41.4119 11.86 40.0919 12.24 38.932 12.24C37.1519 12.24 35.9519 11.5399 35.572 10.0198H32.1719C32.692 13.1398 35.1319 15 38.8519 15C41.8718 15 44.9318 13.2799 44.9318 10.24C44.9318 7.20001 41.9719 6.48001 39.6319 6.00001Z" fill="white"/>
<path d="M46.4531 3.23926H51.093V14.7392H54.5331V3.23926H59.193V0.239258H46.4531V3.23926Z" fill="white"/>
<path d="M65.2886 0.239258L59.8281 14.7392H63.4686L64.3286 12.1592H69.9286L70.8086 14.7392H74.5286L69.0485 0.239258H65.2886ZM65.2687 9.37914L67.1486 3.85914L69.0086 9.37914H65.2687Z" fill="white"/>
<path d="M80.9668 0.239258H77.5469V14.7392H80.9668V0.239258Z" fill="white"/>
<path d="M95.23 10.2392L89.41 0.239258H85.25V14.7392H88.55V4.73926L94.37 14.7392H98.53V0.239258H95.23V10.2392Z" fill="white"/>
<path d="M129.951 0.239258H126.531V14.7392H136.91V11.7191H129.951V0.239258Z" fill="white"/>
<path d="M143.78 0.239258H140.359V14.7392H143.78V0.239258Z" fill="white"/>
<path d="M148.062 14.7392H151.483V8.79937H158.303V5.77932H151.483V3.23926H158.743V0.239258H148.062V14.7392Z" fill="white"/>
<path d="M173.713 3.23926V0.239258H162.594V14.7392H173.713V11.7191H166.013V8.79937H173.294V5.77932H166.013V3.23926H173.713Z" fill="white"/>
</g>
<defs>
<clipPath id="clip0_528_6766">
<rect width="173.715" height="15" fill="white"/>
</clipPath>
</defs>
</svg>
