<svg width="152" height="28" viewBox="0 0 152 28" fill="none" xmlns="http://www.w3.org/2000/svg">
<path d="M19.4795 27.4764L18.9008 24.5C18.1016 26.0709 15.511 27.9173 12.1212 27.9724C9.00707 28 6.22361 27.2283 4.10156 24.9685C1.29054 22.0472 0.601562 18.437 0.601562 14C0.601562 9.56299 1.1803 6.09055 4.10156 3.16929C6.16849 1.10236 9.22755 0 12.1212 0C15.4283 0 18.2945 1.2126 20.1134 3.08661C21.4362 4.46457 22.4283 6.17323 22.5937 8.51575H17.5779C17.4953 7.44094 16.9716 6.72441 16.3929 6.03543C15.4559 4.93307 13.9677 4.40945 12.0937 4.40945C10.5228 4.40945 8.73148 5.09842 7.68424 6.22834C5.81022 8.15748 5.58975 11.5197 5.58975 14C5.58975 16.4803 5.86534 19.9252 7.7118 21.8819C8.7866 23.0118 10.5228 23.5906 12.0937 23.5906C13.8299 23.5906 15.2079 22.9842 16.1173 22.0197C17.5504 20.5039 17.8535 18.8228 17.8535 16.7559H11.4323V12.6772H22.6212V27.4488H19.4795V27.4764ZM36.9244 11.9331C33.5898 11.9331 31.826 14.3307 31.826 17.5276V27.5039H27.0307V7.71654H31.0543L31.4677 10.6929C32.3772 8.40551 34.7472 7.4685 37.0622 7.4685C37.5583 7.4685 38.0543 7.49606 38.5504 7.57874V12.1535C38.0268 11.9882 37.448 11.9331 36.9244 11.9331ZM51.448 12.1535C50.8142 11.4646 49.822 11.0236 48.4441 11.0236C46.9835 11.0236 45.826 11.6299 45.137 12.5394C44.448 13.4213 44.1449 14.3307 44.1173 15.626H52.6882C52.6331 14.1378 52.2197 12.9803 51.448 12.1535ZM57.3732 19.0709H44.1449C44.1173 20.5866 44.6409 22.0472 45.6055 22.9567C46.2945 23.5905 47.2315 24.1693 48.5268 24.1693C49.9047 24.1693 50.7315 23.8937 51.4205 23.2323C51.8338 22.8189 52.1921 22.2677 52.385 21.5512H56.9598C56.8496 22.7362 56.0504 24.2795 55.2787 25.2165C53.5976 27.2008 51.1173 28 48.6094 28C45.9086 28 43.9244 27.063 42.3811 25.5748C40.3968 23.6732 39.3496 20.8898 39.3496 17.6654C39.3496 14.4961 40.2866 11.685 42.1882 9.7559C43.6764 8.24016 45.7984 7.24803 48.4992 7.24803C51.4205 7.24803 54.0937 8.43307 55.7197 10.9134C57.1527 13.0906 57.511 15.3228 57.4283 17.8032C57.4283 17.748 57.3732 18.6575 57.3732 19.0709ZM71.6488 12.1535C71.0149 11.4646 70.0228 11.0236 68.6449 11.0236C67.2118 11.0236 66.0268 11.6299 65.3378 12.5394C64.6488 13.4213 64.3457 14.3307 64.3181 15.626H72.889C72.8338 14.1378 72.3929 12.9803 71.6488 12.1535ZM77.574 19.0709H64.3457C64.3181 20.5866 64.8417 22.0472 65.7787 22.9567C66.4677 23.5905 67.4047 24.1693 68.7 24.1693C70.0779 24.1693 70.9047 23.8937 71.5937 23.2323C72.0071 22.8189 72.3378 22.2677 72.5307 21.5512H77.1055C76.9953 22.7362 76.196 24.2795 75.4244 25.2165C73.7433 27.2008 71.2905 28 68.7827 28C66.0819 28 64.0976 27.063 62.5543 25.5748C60.5701 23.6732 59.5228 20.8898 59.5228 17.6654C59.5228 14.4961 60.4598 11.685 62.3614 9.7559C63.8496 8.24016 65.9716 7.24803 68.6724 7.24803C71.5937 7.24803 74.2669 8.43307 75.8929 10.9134C77.3535 13.0906 77.6842 15.3228 77.6016 17.8032C77.6291 17.748 77.574 18.6575 77.574 19.0709ZM93.1724 27.4764V15.3228C93.1724 13.0079 92.4008 11.6024 89.8929 11.6024C88.2118 11.6024 87.1094 12.6772 86.4756 14.1102C85.7866 15.6811 85.8417 17.7205 85.8417 19.4016V27.4764H81.074V7.68897H85.0701L85.4008 10.252C86.5858 8.15747 88.9283 7.22047 91.2157 7.22047C95.4323 7.22047 97.9126 10.1968 97.9126 14.3031V27.5039H93.1724V27.4764Z" fill="#7D8586"/>
<path d="M113.844 15.6265H107.644V23.1226H113.707C115.994 23.1226 118.474 22.2958 118.474 19.5399C118.447 16.6462 116.435 15.6265 113.844 15.6265ZM113.679 4.7407H107.616V11.5202H113.789C115.994 11.5202 117.868 10.721 117.868 8.18558C117.868 5.56747 115.884 4.7407 113.679 4.7407ZM120.679 25.6856C118.585 27.284 116.077 27.5045 113.486 27.5045H102.766V0.496606H113.486C115.663 0.496606 117.896 0.799758 119.714 1.9848C121.699 3.28007 122.829 5.51236 122.829 7.85488C122.829 10.0596 121.809 12.5399 119.522 13.5596C122.057 14.7446 123.407 17.1423 123.407 19.6501C123.435 22.0478 122.636 24.225 120.679 25.6856ZM126.935 7.68952H131.758V27.4769H126.935V7.68952ZM126.77 0.0556641H131.868V4.96118H126.77V0.0556641ZM135.451 27.4769V23.2879L145.923 11.6029H135.533V7.68952H151.518V11.9887L141.183 23.5635H151.6V27.4769H135.451V27.4769Z" fill="#A8ADAF"/>
</svg>
