<svg width="197" height="28" viewBox="0 0 197 28" fill="none" xmlns="http://www.w3.org/2000/svg">
<path d="M37.3281 9.33333H55.6358V0H37.3281V9.33333Z" fill="#7D8586"/>
<path d="M0.746094 0V9.33333H9.88362V28H19.0211V9.33333H28.1913V0H0.746094Z" fill="#7D8586"/>
<path d="M28.1914 27.9997H55.6366V18.6663H37.3289V9.33301H28.1914V27.9997Z" fill="#7D8586"/>
<path d="M78.9687 7.04883H65.5234V10.9323H70.0269V23.1048H74.4652V10.9323H78.9687V7.04883Z" fill="#7D8586"/>
<path d="M84.0269 10.8018C80.8614 10.8018 78.5117 12.923 78.5117 17.1001C78.5117 20.7878 80.5024 23.3659 84.1248 23.3659C86.0175 23.3659 87.5513 22.8763 89.0199 21.9952L87.4534 19.3519C86.246 19.9719 85.3975 20.2004 84.3206 20.2004C83.211 20.2004 82.4278 19.6129 82.2646 18.2749H89.3462C89.3789 18.0791 89.3789 17.8181 89.3789 17.4591C89.4115 12.9882 87.3555 10.8018 84.0269 10.8018ZM82.3299 15.6969C82.4604 14.4894 82.9826 13.8694 83.929 13.8694C85.1364 13.8694 85.5607 14.4894 85.7565 15.6969H82.3299Z" fill="#7D8586"/>
<path d="M97.245 20.0046C96.1354 20.0046 95.548 19.0255 95.548 17.1001C95.548 15.2073 96.0701 14.1304 97.1471 14.1304C98.0282 14.1304 98.4198 14.6199 99.0072 15.6969L101.846 13.543C100.802 11.846 99.4967 10.8018 97.2123 10.8018C93.3615 10.8018 91.4688 13.3472 91.4688 17.0349C91.4688 21.0815 93.59 23.3332 97.1144 23.3332C99.2356 23.3332 100.541 22.5174 101.944 20.4614L99.3336 18.4055C98.5503 19.5803 98.0282 20.0046 97.245 20.0046Z" fill="#7D8586"/>
<path d="M111.472 10.8021C110.037 10.8021 109.188 11.2916 108.437 11.8464V6.39648L104.293 8.06082V23.1377H108.437V16.252C108.437 14.7508 108.96 14.3265 109.841 14.3265C110.689 14.3265 111.211 14.7508 111.211 16.2846V23.1377H115.356V15.7625C115.356 12.597 114.083 10.8021 111.472 10.8021Z" fill="#7D8586"/>
<path d="M125.313 19.4827C123.387 19.4827 122.604 17.5247 122.604 15.0771C122.604 12.5317 123.42 10.6715 125.28 10.6715C126.749 10.6715 127.303 11.6179 127.858 13.1191L131.905 11.52C130.795 8.48506 129.229 6.78809 125.28 6.78809C120.972 6.78809 117.938 9.92095 117.938 15.0771C117.938 19.8417 120.483 23.3662 125.248 23.3662C129.066 23.3662 130.861 21.3102 131.937 19.2216L128.185 17.231C127.303 18.7321 126.716 19.4827 125.313 19.4827Z" fill="#7D8586"/>
<path d="M138.594 11.9439V11.0628H134.449V23.1048H138.594V16.5453C138.594 15.0768 139.214 14.5873 140.225 14.5873C141.041 14.5873 141.629 15.0116 142.151 15.599L143.13 11.3239C142.64 11.0302 142.053 10.8018 141.172 10.8018C140.095 10.8018 139.279 11.2586 138.594 11.9439Z" fill="#7D8586"/>
<path d="M151.972 17.9483C151.972 19.4494 151.45 19.8737 150.601 19.8737C149.753 19.8737 149.23 19.4494 149.23 17.9156V11.0625H145.086V18.4378C145.086 21.6033 146.359 23.3655 149.002 23.3655C150.405 23.3655 151.286 22.876 152.004 22.3212V23.1371H156.149V11.0951H152.004V17.9483" fill="#7D8586"/>
<path d="M166.301 10.8018C164.865 10.8018 164.016 11.2913 163.266 11.8461V11.0302H159.121V23.0722H163.266V16.1864C163.266 14.6852 163.788 14.261 164.669 14.261C165.517 14.261 166.04 14.6852 166.04 16.219V23.0722H170.184V15.6969C170.184 12.5966 168.944 10.8018 166.301 10.8018Z" fill="#7D8586"/>
<path d="M178.407 20.0046C177.297 20.0046 176.71 19.0255 176.71 17.1001C176.71 15.2073 177.232 14.1304 178.276 14.1304C179.157 14.1304 179.549 14.6199 180.136 15.6969L182.975 13.543C181.931 11.846 180.626 10.8018 178.341 10.8018C174.49 10.8018 172.598 13.3472 172.598 17.0349C172.598 21.0815 174.719 23.3332 178.243 23.3332C180.365 23.3332 181.67 22.5174 183.073 20.4614L180.462 18.4055C179.745 19.5803 179.19 20.0046 178.407 20.0046Z" fill="#7D8586"/>
<path d="M192.633 10.8021C191.197 10.8021 190.348 11.2916 189.598 11.8464V6.39648L185.453 8.06082V23.1377H189.598V16.252C189.598 14.7508 190.12 14.3265 191.001 14.3265C191.849 14.3265 192.372 14.7508 192.372 16.2846V23.1377H196.516V15.7625C196.549 12.597 195.276 10.8021 192.633 10.8021Z" fill="#7D8586"/>
</svg>
