<svg width="112" height="28" viewBox="0 0 112 28" fill="none" xmlns="http://www.w3.org/2000/svg">
<path d="M68.0734 7.96217C66.2756 7.96217 64.8633 8.34786 63.4504 9.11775C63.4504 5.00797 63.4504 1.28389 63.5795 0L54.9735 1.54052V2.31114L55.8724 2.43946C57.0273 2.69609 57.4144 3.33766 57.6688 4.87966C57.9277 7.96217 57.7979 24.402 57.6688 27.0996C59.9807 27.6136 62.4217 27.9993 64.8626 27.9993C71.67 27.9993 75.7797 23.7604 75.7797 17.0814C75.7797 11.8161 72.4406 7.96217 68.0734 7.96217V7.96217ZM65.1192 26.5856C64.6052 26.5856 63.9622 26.5856 63.578 26.458C63.4489 24.6601 63.3214 17.0814 63.4489 10.4031C64.2196 10.1457 64.7328 10.0174 65.3759 10.0174C68.2032 10.0174 69.7445 13.3566 69.7445 17.4656C69.7438 22.6049 67.8168 26.5856 65.1192 26.5856V26.5856ZM22.6056 0.513258H0V1.66883L1.28463 1.79714C2.95346 2.05377 3.59651 3.08103 3.8524 5.52123C4.23883 10.145 4.10977 18.4943 3.8524 22.4743C3.59577 24.9153 2.9542 26.0716 1.28463 26.1984L0 26.4565V27.4838H14.5136V26.4565L12.9724 26.1984C11.3028 26.0708 10.6605 24.9153 10.4039 22.4743C10.2748 20.804 10.1465 18.1064 10.1465 14.768L13.229 14.8963C15.1559 14.8963 16.0541 16.4376 16.4398 18.6204H17.5961V9.50417H16.4398C16.0534 11.6877 15.1559 13.2283 13.229 13.2283L10.1472 13.3573C10.1472 8.99017 10.2755 4.8804 10.4046 2.4402H14.8993C18.3683 2.4402 20.1661 4.62303 21.45 8.47692L22.7347 8.09123L22.6056 0.513258V0.513258Z" fill="#7D8586"/>
<path d="M29.9283 7.70537C36.3507 7.70537 39.5616 12.0725 39.5616 17.8519C39.5616 23.3746 35.965 27.9998 29.5426 27.9998C23.121 27.9998 19.9102 23.6319 19.9102 17.8519C19.9102 12.3291 23.5059 7.70537 29.9283 7.70537V7.70537ZM29.5426 8.98999C26.7168 8.98999 25.9461 12.8431 25.9461 17.8519C25.9461 22.7323 27.2308 26.7137 29.8 26.7137C32.752 26.7137 33.5241 22.8606 33.5241 17.8519C33.5241 12.9715 32.241 8.98999 29.5426 8.98999ZM77.4499 17.9809C77.4499 12.7148 80.7891 7.70537 87.3398 7.70537C92.7327 7.70537 95.3027 11.6876 95.3027 16.9529H83.3576C83.2285 21.705 85.5404 25.1732 90.1649 25.1732C92.2202 25.1732 93.2475 24.6607 94.5328 23.761L95.0453 24.4026C93.7607 26.2005 90.9356 27.9998 87.3398 27.9998C81.5597 27.9991 77.4499 23.8893 77.4499 17.9809V17.9809ZM83.3576 15.5407L89.3943 15.4117C89.3943 12.8431 89.0086 8.98999 86.8258 8.98999C84.643 8.98999 83.4852 12.5858 83.3576 15.5407V15.5407ZM110.589 8.73336C109.048 8.09031 106.993 7.70537 104.682 7.70537C99.9302 7.70537 96.9745 10.5305 96.9745 13.8704C96.9745 17.2103 99.1558 18.6225 102.242 19.6505C105.452 20.8053 106.352 21.705 106.352 23.2463C106.352 24.7875 105.196 26.1997 103.14 26.1997C100.701 26.1997 98.9014 24.7875 97.4892 20.9336L96.5896 21.1917L96.7186 26.8428C98.2599 27.4843 101.085 27.9991 103.526 27.9991C108.535 27.9991 111.747 25.4291 111.747 21.4484C111.747 18.7508 110.333 17.2103 106.994 15.9249C103.397 14.5127 102.114 13.6138 102.114 11.9435C102.114 10.2739 103.272 9.11757 104.813 9.11757C107.123 9.11757 108.664 10.5305 109.822 13.9987L110.72 13.7421L110.589 8.73336V8.73336ZM56.258 8.21937C54.0752 6.93622 50.2213 7.57705 48.1668 12.2016L48.2944 7.70611L39.6899 9.37568V10.1463L40.5888 10.2746C41.7459 10.4037 42.2584 11.0453 42.3874 12.7156C42.6441 15.7981 42.5158 21.1932 42.3874 23.8901C42.2584 25.4298 41.7459 26.2005 40.5888 26.3295L39.6899 26.4586V27.4858H51.6342V26.4586L50.093 26.3295C48.8091 26.2005 48.4234 25.4298 48.2944 23.8901C48.0377 21.4491 48.0377 16.5687 48.1668 13.4862C48.8084 12.5865 51.6342 11.8166 54.2028 13.4862L56.258 8.21937V8.21937Z" fill="#7D8586"/>
</svg>
