<svg width="371" height="237" viewBox="0 0 371 237" fill="none" xmlns="http://www.w3.org/2000/svg">
<rect width="371" height="237" rx="8" fill="#E7F0F1"/>
<path d="M25.5494 48.1768H28.4302V39.0864H31.743V36.7338H22.2205V39.0864H25.5494V48.1768ZM38.9154 48.4328C42.5163 48.4328 44.5809 45.9042 44.5809 42.4473C44.5809 39.0063 42.5163 36.4777 38.9154 36.4777C35.2824 36.4777 33.2499 39.0063 33.2499 42.4473C33.2499 45.9042 35.2824 48.4328 38.9154 48.4328ZM36.1947 42.4473C36.1947 40.4627 36.8188 38.8303 38.9154 38.8303C40.9959 38.8303 41.6361 40.4627 41.6361 42.4473C41.6361 44.4478 40.9959 46.0802 38.9154 46.0802C36.8188 46.0802 36.1947 44.4478 36.1947 42.4473ZM49.4098 48.1768H52.2906V39.0864H55.6035V36.7338H46.081V39.0864H49.4098V48.1768ZM55.7375 48.1768H58.8263L59.5625 45.7921H63.4835L64.2197 48.1768H67.3725L62.9874 36.7338H60.0906L55.7375 48.1768ZM60.2186 43.5996L61.515 39.3744H61.547L62.8433 43.5996H60.2186ZM69.5675 48.1768H77.5376V45.8241H72.4483V36.7338H69.5675V48.1768ZM84.0505 48.1768H92.8208V45.8241H86.9313V43.4715H91.9246V41.1189H86.9313V39.0864H92.7248V36.7338H84.0505V48.1768ZM95.6525 48.1768H98.3732V41.0549H98.4052L100.534 48.1768H102.55L104.679 41.0549H104.711V48.1768H107.432V36.7338H103.911L101.558 44.0317H101.526L99.1734 36.7338H95.6525V48.1768ZM110.693 48.1768H113.574V36.7338H110.693V48.1768ZM121.434 48.4328C124.299 48.4328 125.963 47.0085 125.963 44.8159C125.963 42.4473 123.739 41.8391 121.578 41.1989C120.122 40.7668 119.481 40.5107 119.481 39.7425C119.481 39.0864 120.09 38.7983 120.954 38.7983C122.058 38.7983 122.762 39.3264 122.89 40.2067H125.803C125.723 37.8861 123.627 36.4777 120.954 36.4777C118.489 36.4777 116.537 37.4539 116.537 39.9506C116.537 41.9991 118.313 42.7673 120.298 43.3755C121.882 43.8556 123.018 44.1117 123.018 45.0879C123.018 45.6801 122.474 46.1122 121.402 46.1122C120.106 46.1122 119.097 45.6161 119.097 44.2877H116.185C116.185 46.9124 118.441 48.4328 121.434 48.4328ZM133.286 48.4328C136.151 48.4328 137.815 47.0085 137.815 44.8159C137.815 42.4473 135.591 41.8391 133.43 41.1989C131.974 40.7668 131.334 40.5107 131.334 39.7425C131.334 39.0864 131.942 38.7983 132.806 38.7983C133.91 38.7983 134.614 39.3264 134.742 40.2067H137.655C137.575 37.8861 135.479 36.4777 132.806 36.4777C130.341 36.4777 128.389 37.4539 128.389 39.9506C128.389 41.9991 130.165 42.7673 132.15 43.3755C133.734 43.8556 134.87 44.1117 134.87 45.0879C134.87 45.6801 134.326 46.1122 133.254 46.1122C131.958 46.1122 130.949 45.6161 130.949 44.2877H128.037C128.037 46.9124 130.293 48.4328 133.286 48.4328ZM140.529 48.1768H143.41V36.7338H140.529V48.1768ZM151.846 48.4328C155.447 48.4328 157.512 45.9042 157.512 42.4473C157.512 39.0063 155.447 36.4777 151.846 36.4777C148.213 36.4777 146.181 39.0063 146.181 42.4473C146.181 45.9042 148.213 48.4328 151.846 48.4328ZM149.125 42.4473C149.125 40.4627 149.75 38.8303 151.846 38.8303C153.927 38.8303 154.567 40.4627 154.567 42.4473C154.567 44.4478 153.927 46.0802 151.846 46.0802C149.75 46.0802 149.125 44.4478 149.125 42.4473ZM160.279 48.1768H163.16V41.375H163.192L167.193 48.1768H170.073V36.7338H167.193V43.5355H167.161L163.16 36.7338H160.279V48.1768ZM177.944 48.4328C180.808 48.4328 182.473 47.0085 182.473 44.8159C182.473 42.4473 180.248 41.8391 178.088 41.1989C176.631 40.7668 175.991 40.5107 175.991 39.7425C175.991 39.0864 176.599 38.7983 177.463 38.7983C178.568 38.7983 179.272 39.3264 179.4 40.2067H182.313C182.233 37.8861 180.136 36.4777 177.463 36.4777C174.999 36.4777 173.046 37.4539 173.046 39.9506C173.046 41.9991 174.823 42.7673 176.807 43.3755C178.392 43.8556 179.528 44.1117 179.528 45.0879C179.528 45.6801 178.984 46.1122 177.912 46.1122C176.615 46.1122 175.607 45.6161 175.607 44.2877H172.694C172.694 46.9124 174.951 48.4328 177.944 48.4328Z" fill="#263336"/>
<line x1="23" y1="69.3332" x2="350.03" y2="69.3331" stroke="#575E5E" stroke-opacity="0.3" stroke-width="1.33368"/>
<path d="M203.983 213.11C216.188 213.11 224.383 206.793 224.383 195.697C224.383 188.698 220.883 183.406 212.945 180.931V180.76C218.92 178.37 222.163 174.443 222.163 167.871C222.163 157.714 213.542 151.91 203.897 151.91C189.814 151.91 182.9 159.848 182.9 170.432H189.387C189.387 164.115 192.033 157.372 203.897 157.372C212.347 157.372 215.676 162.579 215.676 167.871C215.676 174.956 211.067 178.455 204.665 178.455H198.691V183.918H205.007C211.067 183.918 217.896 186.735 217.896 195.697C217.896 203.038 213.799 207.647 203.556 207.647C192.203 207.647 187.765 201.331 187.765 192.283H181.278C181.278 205.342 189.643 213.11 203.983 213.11ZM232.317 218.658V222.328C238.122 220.536 239.487 216.78 239.487 212V204.83H232.317V212H235.817C235.902 216.097 235.049 217.633 232.317 218.658ZM252.87 165.481V212H259.016V153.019H254.065C253.382 160.189 250.907 163.433 240.579 163.689V168.895C245.871 168.895 250.053 168.469 252.87 165.481ZM275.881 212H282.368C282.368 193.99 290.989 170.517 306.695 157.799V153.019H266.578V158.482H299.61V158.653C286.38 169.92 275.881 193.307 275.881 212ZM332.138 212H338.284V197.66H346.649V192.197H338.284V153.019H332.138L303.288 192.197V197.66H332.138V212ZM309.69 192.197L332.138 161.811V192.197H309.69Z" fill="#263336"/>
<path d="M21.2406 208.67H22.4089V198.875H22.4409L26.2019 208.67H27.2582L31.0352 198.875H31.0672V208.67H32.2195V197.227H30.6191L26.7461 207.102H26.7141L22.841 197.227H21.2406V208.67ZM37.4754 208.67H38.6277V198.251H42.5167V197.227H33.5704V198.251H37.4754V208.67ZM56.1498 200.876H57.3661C57.062 198.731 55.3176 197.019 52.6449 197.019C49.5241 197.019 47.3955 199.5 47.3955 202.956C47.3955 206.429 49.5241 208.878 52.6289 208.878C55.3656 208.878 57.1261 207.102 57.4141 204.605H56.1978C56.0698 206.189 55.0615 207.854 52.6289 207.854C49.8922 207.854 48.5958 205.517 48.5958 202.956C48.5958 200.396 49.8761 198.043 52.6449 198.043C54.9815 198.043 55.9097 199.596 56.1498 200.876ZM64.2942 208.878C67.5911 208.878 69.7996 206.381 69.7996 202.94C69.7996 199.5 67.5911 197.019 64.2942 197.019C60.9973 197.019 58.8047 199.5 58.8047 202.94C58.8047 206.381 60.9973 208.878 64.2942 208.878ZM64.2942 207.854C61.4774 207.854 60.0211 205.645 60.0211 202.94C60.0211 200.236 61.4774 198.043 64.2942 198.043C67.1269 198.043 68.5833 200.236 68.5833 202.94C68.5833 205.645 67.1269 207.854 64.2942 207.854ZM72.5571 201.34C72.5571 199.772 73.2773 198.427 75.1978 198.427C76.8942 198.427 77.4224 199.58 77.4224 200.668C77.4224 202.348 76.3021 202.828 74.3016 203.981C72.301 205.101 71.0367 206.621 71.0367 208.67H78.5267V207.646H72.4291V207.614C72.7011 206.141 74.0295 205.389 75.3738 204.621C76.9743 203.709 78.6387 202.748 78.6387 200.652C78.6387 198.587 77.1023 197.403 75.2138 197.403C72.6051 197.403 71.3408 199.195 71.3408 201.34H72.5571ZM83.7569 208.894C85.8055 208.894 86.9258 207.662 87.3259 206.173H86.2696C86.1095 206.845 85.4694 207.998 83.7729 207.998C81.8524 207.998 80.9722 206.461 80.9562 204.797H87.4219C87.4379 204.669 87.4379 204.445 87.4379 204.221C87.4379 201.948 86.1095 200.3 83.7569 200.3C81.4043 200.3 79.8679 201.98 79.8679 204.589C79.8679 207.07 81.2603 208.894 83.7569 208.894ZM83.7089 201.196C85.3893 201.196 86.3336 202.428 86.3336 203.885H80.9562C81.0362 202.364 82.1245 201.196 83.7089 201.196Z" fill="#263336"/>
</svg>
