<svg width="856" height="453" viewBox="0 0 856 453" fill="none" xmlns="http://www.w3.org/2000/svg">
<g clip-path="url(#clip0_251_9610)">
<rect width="856" height="452.951" rx="8" fill="#263336"/>
<rect x="345.586" y="305.429" width="23.2036" height="78.5352" rx="11.6018" fill="#F5EB0A"/>
<path d="M270.621 130.739C270.621 124.332 275.815 119.138 282.223 119.138C288.63 119.138 293.825 124.332 293.825 130.739V189.203H270.621V130.739Z" fill="#C7DDDF"/>
<rect x="270.621" y="190.377" width="23.2036" height="60.6863" fill="#2196F3"/>
<rect x="270.621" y="252.237" width="23.2036" height="39.5238" fill="#C7DDDF"/>
<path d="M270.621 292.935H293.825V372.362C293.825 378.77 288.63 383.964 282.223 383.964C275.815 383.964 270.621 378.77 270.621 372.362V292.935Z" fill="#C7DDDF"/>
<path d="M308.102 154.88C308.102 148.473 313.296 143.278 319.703 143.278C326.111 143.278 331.305 148.473 331.305 154.88V205.75H308.102V154.88Z" fill="white"/>
<rect x="308.102" y="206.924" width="23.2036" height="76.7503" fill="#2196F3"/>
<rect x="308.102" y="284.848" width="23.2036" height="19.7619" fill="white"/>
<rect x="308.102" y="305.783" width="23.2036" height="39.5238" fill="white"/>
<path d="M308.102 346.481H331.305V372.362C331.305 378.77 326.111 383.964 319.703 383.964C313.296 383.964 308.102 378.77 308.102 372.362V346.481Z" fill="white"/>
<rect x="491.305" y="253.668" width="23.2036" height="130.297" rx="11.6018" fill="#F5EB0A"/>
<path d="M416.336 173.554C416.336 167.146 421.53 161.952 427.938 161.952C434.345 161.952 439.54 167.146 439.54 173.554V232.017H416.336V173.554Z" fill="#C7DDDF"/>
<rect x="416.336" y="233.191" width="23.2036" height="53.5468" fill="#C7DDDF"/>
<rect x="416.336" y="287.912" width="23.2036" height="43.1169" fill="#C7DDDF"/>
<path d="M416.336 332.203H439.54V372.363C439.54 378.771 434.345 383.965 427.938 383.965C421.53 383.965 416.336 378.771 416.336 372.363V332.203Z" fill="#C7DDDF"/>
<path d="M453.816 180.868C453.816 174.461 459.011 169.267 465.418 169.267C471.826 169.267 477.02 174.461 477.02 180.868V215.977H453.816V180.868Z" fill="white"/>
<rect x="453.816" y="217.15" width="23.2036" height="80.3201" fill="white"/>
<rect x="453.816" y="298.645" width="23.2036" height="39.5238" fill="white"/>
<path d="M453.816 339.343H477.02V372.363C477.02 378.771 471.826 383.965 465.418 383.965C459.011 383.965 453.816 378.771 453.816 372.363V339.343Z" fill="white"/>
<rect x="637.023" y="326.847" width="23.2036" height="57.1165" rx="11.6018" fill="#F5EB0A"/>
<path d="M562.059 209.275C562.059 202.867 567.253 197.673 573.66 197.673C580.068 197.673 585.262 202.867 585.262 209.275V267.738H562.059V209.275Z" fill="#C7DDDF"/>
<rect x="562.059" y="268.912" width="23.2036" height="41.0525" fill="#C7DDDF"/>
<rect x="562.059" y="311.139" width="23.2036" height="39.5238" fill="#C7DDDF"/>
<path d="M562.059 351.836H585.262V372.362C585.262 378.77 580.068 383.964 573.66 383.964C567.253 383.964 562.059 378.77 562.059 372.362V351.836Z" fill="#C7DDDF"/>
<path d="M599.539 192.931C599.539 186.523 604.733 181.329 611.141 181.329C617.548 181.329 622.743 186.523 622.743 192.931V228.039H599.539V192.931Z" fill="white"/>
<rect x="599.539" y="229.213" width="23.2036" height="46.4072" fill="white"/>
<rect x="599.539" y="276.794" width="23.2036" height="39.5238" fill="white"/>
<path d="M599.539 317.492H622.743V372.362C622.743 378.77 617.548 383.964 611.141 383.964C604.733 383.964 599.539 378.77 599.539 372.362V317.492Z" fill="white"/>
<rect x="782.883" y="326.847" width="23.2036" height="57.1165" rx="11.6018" fill="#F5EB0A"/>
<path d="M707.914 209.275C707.914 202.867 713.108 197.673 719.516 197.673C725.923 197.673 731.118 202.867 731.118 209.275V267.738H707.914V209.275Z" fill="#C7DDDF"/>
<rect x="707.914" y="268.912" width="23.2036" height="41.0525" fill="#C7DDDF"/>
<rect x="707.914" y="311.139" width="23.2036" height="39.5238" fill="#C7DDDF"/>
<path d="M707.914 351.836H731.118V372.362C731.118 378.77 725.923 383.964 719.516 383.964C713.108 383.964 707.914 378.77 707.914 372.362V351.836Z" fill="#C7DDDF"/>
<path d="M745.395 192.931C745.395 186.523 750.589 181.329 756.996 181.329C763.404 181.329 768.598 186.523 768.598 192.931V228.039H745.395V192.931Z" fill="white"/>
<rect x="745.395" y="229.213" width="23.2036" height="46.4072" fill="white"/>
<rect x="745.395" y="276.794" width="23.2036" height="39.5238" fill="white"/>
<path d="M745.395 317.492H768.598V372.362C768.598 378.77 763.404 383.964 756.996 383.964C750.589 383.964 745.395 378.77 745.395 372.362V317.492Z" fill="white"/>
<path d="M41.6283 208.699C40.5813 208.47 39.7338 208.271 39.7338 207.313C39.7338 206.576 40.3021 206.147 41.3491 206.147C42.5556 206.147 43.104 206.705 43.2237 207.692H43.9815C43.8718 206.296 42.8946 205.509 41.3391 205.509C39.8834 205.509 38.976 206.207 38.976 207.343C38.976 208.65 40.1027 209.008 41.2693 209.278C42.7251 209.607 43.4729 209.786 43.463 210.843C43.463 211.631 43.0143 212.259 41.6981 212.259C40.2124 212.259 39.5344 211.511 39.4347 210.404H38.6769C38.7766 212.01 40.003 212.897 41.728 212.897C43.4231 212.897 44.2208 211.98 44.2208 210.823C44.2208 209.377 43.0841 209.018 41.6283 208.699ZM46.0797 212.768H46.8075V209.756H48.8217C50.1279 209.756 51.115 209.188 51.115 207.692C51.115 206.197 50.1279 205.638 48.8217 205.638H46.0797V212.768ZM46.8075 209.118V206.276H48.8915C49.8487 206.276 50.3572 206.725 50.3572 207.692C50.3572 208.669 49.8487 209.118 48.8915 209.118H46.8075ZM53.627 208.729V206.276H57.735V205.638H52.8991V212.768H57.8447V212.129H53.627V209.367H57.2863V208.729H53.627ZM59.6308 212.768H60.3587V206.665H60.3787L64.2275 212.768H65.1149V205.638H64.397V211.741H64.3771L60.5183 205.638H59.6308V212.768ZM67.2974 212.768H69.85C71.8442 212.768 72.9709 211.421 72.9709 209.218C72.9709 207.014 71.8641 205.638 69.8699 205.638H67.2974V212.768ZM68.0253 206.276H69.8699C71.6547 206.276 72.2131 207.632 72.2131 209.218C72.2131 210.793 71.6348 212.129 69.85 212.129H68.0253V206.276Z" fill="white"/>
<path d="M52.8792 275.443H55.689V270.498C64.1743 270.217 68.3327 265.497 68.3327 259.709C68.3327 252.741 63.8933 250.605 55.689 248.358V234.309C60.2969 234.927 62.8256 237.681 63.3314 242.345H67.2088C66.7592 235.489 62.2075 231.499 55.689 230.769V226.498H52.8792V230.656C45.3492 230.881 40.6851 234.871 40.6851 240.996C40.6851 247.458 46.8664 249.875 52.8792 251.223V266.958C46.4169 266.34 43.3824 262.575 42.8766 257.068H38.9992C39.505 265.103 45.1806 269.711 52.8792 270.386V275.443ZM44.5625 240.659C44.5625 236.781 47.7094 234.309 52.8792 234.14V247.627C47.9903 246.278 44.5625 244.761 44.5625 240.659ZM55.689 267.07V251.898C62.0389 253.584 64.5115 255.382 64.3991 259.877C64.3429 263.923 61.9827 266.845 55.689 267.07ZM78.4468 239.142V269.768H82.4928V230.937H79.2335C78.784 235.658 77.1543 237.793 70.3548 237.962V241.389C73.8389 241.389 76.5924 241.108 78.4468 239.142ZM106.858 269.768H110.904V260.327H116.411V256.73H110.904V230.937H106.858L87.8646 256.73V260.327H106.858V269.768ZM92.0792 256.73L106.858 236.725V256.73H92.0792ZM137.796 269.768H141.842V260.327H147.349V256.73H141.842V230.937H137.796L118.802 256.73V260.327H137.796V269.768ZM123.017 256.73L137.796 236.725V256.73H123.017ZM151.707 269.768H155.359V258.529L160.304 253.921L171.15 269.768H175.477L162.777 251.617L174.072 241.108H169.577L155.359 254.595V229.589H151.707V269.768Z" fill="white"/>
<path d="M41.5232 320.377C43.5773 320.377 44.9533 318.821 44.9533 316.677C44.9533 314.534 43.5773 312.988 41.5232 312.988C39.4692 312.988 38.1032 314.534 38.1032 316.677C38.1032 318.821 39.4692 320.377 41.5232 320.377ZM41.5232 319.739C39.7683 319.739 38.861 318.363 38.861 316.677C38.861 314.992 39.7683 313.626 41.5232 313.626C43.2881 313.626 44.1955 314.992 44.1955 316.677C44.1955 318.363 43.2881 319.739 41.5232 319.739ZM47.5544 316.279V313.756H51.5927V313.118H46.8265V320.247H47.5544V316.917H50.8748V316.279H47.5544ZM54.0719 316.279V313.756H58.1102V313.118H53.344V320.247H54.0719V316.917H57.3923V316.279H54.0719ZM62.2589 316.179C61.2119 315.95 60.3644 315.75 60.3644 314.793C60.3644 314.055 60.9327 313.626 61.9797 313.626C63.1862 313.626 63.7346 314.185 63.8542 315.172H64.612C64.5024 313.776 63.5252 312.988 61.9697 312.988C60.5139 312.988 59.6066 313.686 59.6066 314.823C59.6066 316.129 60.7333 316.488 61.8999 316.757C63.3557 317.086 64.1035 317.266 64.0935 318.323C64.0935 319.11 63.6448 319.739 62.3287 319.739C60.843 319.739 60.1649 318.991 60.0652 317.884H59.3074C59.4071 319.489 60.6336 320.377 62.3586 320.377C64.0537 320.377 64.8513 319.459 64.8513 318.303C64.8513 316.857 63.7146 316.498 62.2589 316.179ZM67.4381 316.209V313.756H71.5462V313.118H66.7102V320.247H71.6559V319.609H67.4381V316.847H71.0975V316.209H67.4381ZM75.4163 320.247H76.1342V313.756H78.5571V313.118H72.9833V313.756H75.4163V320.247ZM82.4834 316.179C81.4364 315.95 80.5889 315.75 80.5889 314.793C80.5889 314.055 81.1572 313.626 82.2042 313.626C83.4107 313.626 83.9591 314.185 84.0788 315.172H84.8366C84.7269 313.776 83.7497 312.988 82.1942 312.988C80.7384 312.988 79.8311 313.686 79.8311 314.823C79.8311 316.129 80.9578 316.488 82.1244 316.757C83.5802 317.086 84.328 317.266 84.3181 318.323C84.3181 319.11 83.8694 319.739 82.5532 319.739C81.0675 319.739 80.3895 318.991 80.2897 317.884H79.5319C79.6317 319.489 80.8581 320.377 82.5831 320.377C84.2782 320.377 85.0759 319.459 85.0759 318.303C85.0759 316.857 83.9392 316.498 82.4834 316.179Z" fill="white"/>
<path d="M52.7107 377.978C62.0951 377.978 67.265 370.391 67.265 357.354C67.265 345.16 63.1066 337.686 53.0478 337.686C44.7872 337.686 39.8421 343.587 39.8421 350.892C39.8421 358.478 44.8996 363.648 52.3173 363.648C56.9252 363.648 61.3084 361.4 63.1066 356.736L63.219 356.792V357.916C63.219 366.907 60.7464 374.381 52.7107 374.381C48.2151 374.381 45.6302 371.74 45.1244 367.582H40.9098C41.4156 373.426 45.9673 377.978 52.7107 377.978ZM44.1129 350.667C44.1129 345.048 47.2598 341.283 53.0478 341.283C59.0606 341.283 62.3199 345.272 62.3199 350.274C62.3199 356.455 58.0491 359.995 52.6545 359.995C47.4846 359.995 44.1129 356.511 44.1129 350.667ZM86.3755 377.978C94.6361 377.978 99.5812 372.077 99.5812 364.772C99.5812 357.186 94.5237 352.016 87.106 352.016C82.5543 352.016 78.1149 354.264 76.3167 358.928L76.2605 358.872V357.748C76.2605 348.757 78.6768 341.283 86.7126 341.283C91.2082 341.283 93.8493 343.868 94.2989 348.082H98.5135C98.0077 342.238 93.456 337.686 86.7126 337.686C77.3282 337.686 72.1583 345.272 72.1583 358.31C72.1583 370.504 76.3729 377.978 86.3755 377.978ZM77.1034 365.39C77.1034 359.209 81.3742 355.612 86.7688 355.612C91.9949 355.612 95.3104 359.152 95.3104 364.997C95.3104 370.616 92.1635 374.381 86.3755 374.381C80.3627 374.381 77.1034 370.391 77.1034 365.39ZM107.577 377.247H111.848C111.848 365.39 117.523 349.937 127.863 341.564V338.417H101.452V342.013H123.199V342.126C114.489 349.543 107.577 364.941 107.577 377.247Z" fill="white"/>
<path d="M38.6584 112.005H39.3863V105.903H39.4062L41.7494 112.005H42.4075L44.7607 105.903H44.7807V112.005H45.5085V104.876H44.5015L42.0885 111.028H42.0685L39.6655 104.876H38.6584V112.005ZM49.6685 112.005H50.3864V105.514H52.8193V104.876H47.2455V105.514H49.6685V112.005ZM60.1781 112.135C61.8732 112.135 62.98 111.028 63.1495 109.472H62.3917C62.3119 110.459 61.6837 111.496 60.1781 111.496C58.4631 111.496 57.6654 110.041 57.6654 108.445C57.6654 106.85 58.4531 105.384 60.1781 105.384C61.6339 105.384 62.2222 106.351 62.3618 107.149H63.1196C62.9401 105.813 61.8532 104.746 60.1881 104.746C58.2337 104.746 56.9076 106.291 56.9076 108.445C56.9076 110.609 58.2437 112.135 60.1781 112.135ZM68.121 112.135C70.1751 112.135 71.5411 110.579 71.5411 108.435C71.5411 106.291 70.1751 104.746 68.121 104.746C66.057 104.746 64.691 106.291 64.691 108.435C64.691 110.579 66.057 112.135 68.121 112.135ZM65.4488 108.435C65.4488 106.75 66.3562 105.384 68.121 105.384C69.8759 105.384 70.7833 106.75 70.7833 108.435C70.7833 110.12 69.8759 111.496 68.121 111.496C66.3562 111.496 65.4488 110.12 65.4488 108.435ZM73.076 112.005H77.7425V111.367H73.9435V111.347C74.0731 110.429 74.9406 109.961 75.7782 109.482C76.7852 108.914 77.8123 108.316 77.8123 107.009C77.8123 105.723 76.855 104.985 75.6785 104.985C74.0532 104.985 73.2754 106.102 73.2754 107.438H74.0233C74.0233 106.461 74.472 105.623 75.6685 105.623C76.7254 105.623 77.0545 106.341 77.0545 107.019C77.0545 108.066 76.3665 108.365 75.1101 109.083C73.8637 109.781 73.076 110.729 73.076 112.005ZM81.8222 112.144C83.0985 112.144 83.7965 111.377 84.0458 110.449H83.3877C83.288 110.868 82.8792 111.586 81.8322 111.586C80.6357 111.586 80.0873 110.619 80.0773 109.592H84.1056C84.1156 109.512 84.1156 109.373 84.1156 109.233C84.1156 107.817 83.288 106.79 81.8222 106.79C80.3565 106.79 79.3993 107.837 79.3993 109.462C79.3993 111.008 80.2668 112.144 81.8222 112.144ZM80.0773 109.024C80.1272 108.076 80.8052 107.348 81.7923 107.348C82.8393 107.348 83.4276 108.116 83.4276 109.024H80.0773Z" fill="white"/>
<path d="M54.3965 169.735C62.4323 169.735 67.8269 165.577 67.8269 158.272C67.8269 153.664 65.523 150.18 60.2969 148.55V148.438C64.2305 146.864 66.3659 144.279 66.3659 139.952C66.3659 133.265 60.6903 129.444 54.3403 129.444C45.0682 129.444 40.5165 134.67 40.5165 141.638H44.7872C44.7872 137.48 46.5293 133.04 54.3403 133.04C59.9035 133.04 62.0951 136.468 62.0951 139.952C62.0951 144.617 59.0606 146.92 54.846 146.92H50.9124V150.517H55.0708C59.0606 150.517 63.5562 152.371 63.5562 158.272C63.5562 163.104 60.8588 166.139 54.1155 166.139C46.6417 166.139 43.7196 161.981 43.7196 156.024H39.4488C39.4488 164.622 44.9558 169.735 54.3965 169.735ZM72.4889 173.388V175.804C76.3101 174.624 77.2092 172.152 77.2092 169.005V164.285H72.4889V169.005H74.7928C74.849 171.702 74.2871 172.714 72.4889 173.388ZM85.4579 138.379V169.005H89.5039V130.175H86.2446C85.7951 134.895 84.1655 137.03 77.3659 137.199V140.627C80.85 140.627 83.6035 140.346 85.4579 138.379ZM100.046 169.005H104.316C104.316 157.148 109.992 141.694 120.332 133.321V130.175H93.9204V133.771H115.668V133.883C106.958 141.301 100.046 156.698 100.046 169.005ZM136.521 169.005H140.567V159.564H146.074V155.968H140.567V130.175H136.521L117.527 155.968V159.564H136.521V169.005ZM121.741 155.968L136.521 135.963V155.968H121.741Z" fill="white"/>
<path d="M38.6522 58.2646H40.5523V45.9141H38.6522V58.2646ZM47.8618 52.6162V58.2646H49.5546V52.858C49.5546 51.528 50.3492 50.647 51.6102 50.647C52.9057 50.647 53.1475 51.4416 53.1475 52.6162V58.2646H54.8403V52.1498C54.8403 50.267 53.9421 49.196 52.1629 49.196C50.8156 49.196 49.9174 49.887 49.2783 50.7334H49.2437C48.8982 49.7488 48.1382 49.196 46.9118 49.196C45.5817 49.196 44.7699 49.887 44.3035 50.5606H44.2689V49.4551H42.5761V58.2646H44.2689V52.858C44.2689 51.528 45.0635 50.647 46.3245 50.647C47.62 50.647 47.8618 51.4416 47.8618 52.6162ZM61.1345 58.5065C63.3801 58.5065 65.0902 56.7619 65.0902 53.8599C65.0902 50.9579 63.3801 49.196 61.1345 49.196C59.7526 49.196 58.9062 49.8697 58.4226 50.4916H58.388V49.4551H56.6952V61.3221H58.388V57.1764H58.4226C58.9062 57.8846 59.7526 58.5065 61.1345 58.5065ZM58.4053 53.8599C58.4053 51.8562 59.3381 50.6125 60.8582 50.6125C62.5164 50.6125 63.311 52.1325 63.311 53.8599C63.311 55.5872 62.5164 57.1073 60.8582 57.1073C59.3381 57.1073 58.4053 55.8464 58.4053 53.8599ZM68.9821 58.5065C70.4158 58.5065 71.4177 57.9365 71.9877 57.021H72.0223C72.1259 58.0228 72.575 58.351 73.4214 58.351C73.6978 58.351 73.9914 58.3165 74.2851 58.2474V57.211C74.1815 57.2282 74.1296 57.2282 74.0778 57.2282C73.7496 57.2282 73.6632 56.9 73.6632 56.2609V52.2189C73.6632 49.9388 72.2123 49.1788 70.3985 49.1788C67.7039 49.1788 66.5984 50.5088 66.512 52.2016H68.2394C68.3257 51.027 68.7921 50.5434 70.3295 50.5434C71.625 50.5434 72.005 51.0789 72.005 51.718C72.005 52.5817 71.1586 52.7544 69.7767 53.0135C67.583 53.4281 66.0974 54.0154 66.0974 55.9845C66.0974 57.4873 67.2202 58.5065 68.9821 58.5065ZM67.8593 55.8636C67.8593 54.9481 68.5157 54.5163 70.0703 54.2054C70.9686 54.0154 71.7286 53.8253 72.005 53.5662V54.8272C72.005 56.3646 70.8822 57.1419 69.3621 57.1419C68.3084 57.1419 67.8593 56.6928 67.8593 55.8636ZM79.508 58.5238C81.7709 58.5238 83.3428 57.021 83.4637 54.9999H81.7191C81.6327 56.0018 81.1318 57.1073 79.508 57.1073C77.6252 57.1073 76.9343 55.5182 76.9343 53.8599C76.9343 52.2016 77.6252 50.5952 79.508 50.5952C81.1145 50.5952 81.6327 51.7352 81.7191 52.6507H83.4637C83.2564 50.6643 81.7536 49.196 79.4908 49.196C76.8825 49.196 75.1724 51.0961 75.1724 53.8599C75.1724 56.6237 76.8825 58.5238 79.508 58.5238ZM87.6498 58.3683C88.0126 58.3683 88.2889 58.351 88.7208 58.2646V56.9C88.4271 56.9519 88.2889 56.9691 87.9953 56.9691C87.2698 56.9691 87.0107 56.7619 87.0107 55.8291V50.8543H88.7035V49.4551H87.0107V46.6223H85.3179V49.4551H84.0397V50.8543H85.3179V55.7773C85.3179 57.8155 86.1988 58.3683 87.6498 58.3683Z" fill="white"/>
<line x1="223.753" y1="-2.09736e-08" x2="223.753" y2="452.951" stroke="#BFCFD1" stroke-opacity="0.2" stroke-width="0.959641"/>
</g>
<defs>
<clipPath id="clip0_251_9610">
<rect width="856" height="452.951" rx="8" fill="white"/>
</clipPath>
</defs>
</svg>
