<svg width="483" height="643" viewBox="0 0 483 643" fill="none" xmlns="http://www.w3.org/2000/svg">
<g clip-path="url(#clip0_934_20972)">
<rect width="482.499" height="643" transform="translate(0.499207)" fill="#00181C"/>
<rect x="162.499" y="51" width="431.217" height="685.356" rx="13.1169" fill="#263336"/>
<path d="M239.434 132.189H242.512V122.307H249.522C255.711 122.307 253.386 131.163 254.446 132.189H257.762V131.984C256.463 131.574 258.48 121.897 252.975 120.837V120.768C255.54 120.153 257.42 117.828 257.42 114.784C257.42 110.271 254.617 107.74 249.248 107.74H239.434V132.189ZM242.512 119.572V110.476H248.633C252.77 110.476 254.343 112.049 254.343 114.853C254.343 117.896 252.257 119.572 248.53 119.572H242.512ZM268.25 132.702C272.729 132.702 275.191 130.069 276.08 126.821H273.31C273.003 128.052 271.703 130.343 268.284 130.343C264.42 130.343 262.71 127.265 262.642 124.188H276.285C276.319 123.914 276.319 123.333 276.319 122.82C276.319 117.725 273.345 114.237 268.25 114.237C263.086 114.237 259.769 117.862 259.769 123.435C259.769 128.736 262.744 132.702 268.25 132.702ZM262.642 121.794C262.813 118.751 265.104 116.597 268.113 116.597C271.361 116.597 273.413 118.922 273.413 121.794H262.642ZM285.925 132.668C290.371 132.668 292.935 130.582 292.935 127.299C292.935 123.435 289.413 122.546 286.302 121.828C283.874 121.281 281.651 121.076 281.651 119.059C281.651 117.657 282.711 116.665 285.173 116.665C288.422 116.665 289.106 118.409 289.379 119.742H292.251C291.978 116.733 289.653 114.271 285.139 114.271C281.138 114.271 278.779 116.22 278.779 119.161C278.779 122.786 282.369 123.606 285.413 124.29C287.567 124.769 290.063 125.008 290.063 127.402C290.063 128.736 289.276 130.274 285.925 130.274C282.335 130.274 281.104 128.496 280.967 126.376H278.095C278.198 129.967 280.899 132.668 285.925 132.668ZM301.399 132.668C304.374 132.668 306.22 131.334 307.144 130.103H307.212V132.189H309.947V114.75H307.212V125.624C307.212 128.325 305.16 130.274 302.083 130.274C299.347 130.274 298.287 128.496 298.287 126.239V114.75H295.552V126.923C295.552 130.924 298.219 132.668 301.399 132.668ZM313.921 132.189H316.657V107.74H313.921V132.189ZM326.036 132.36C326.651 132.36 327.061 132.326 327.848 132.189V129.864C327.267 129.932 326.993 129.967 326.412 129.967C324.873 129.967 324.428 129.488 324.428 127.641V117.144H327.848V114.75H324.428V108.937H321.693V114.75H319.128V117.144H321.693V127.505C321.693 131.471 323.471 132.36 326.036 132.36ZM337.317 132.668C341.762 132.668 344.327 130.582 344.327 127.299C344.327 123.435 340.805 122.546 337.693 121.828C335.265 121.281 333.043 121.076 333.043 119.059C333.043 117.657 334.103 116.665 336.565 116.665C339.813 116.665 340.497 118.409 340.771 119.742H343.643C343.369 116.733 341.044 114.271 336.531 114.271C332.53 114.271 330.17 116.22 330.17 119.161C330.17 122.786 333.761 123.606 336.804 124.29C338.958 124.769 341.455 125.008 341.455 127.402C341.455 128.736 340.668 130.274 337.317 130.274C333.727 130.274 332.496 128.496 332.359 126.376H329.487C329.589 129.967 332.291 132.668 337.317 132.668Z" fill="white"/>
<path d="M238.043 168.587H239.429V163.983H242.417C244.434 163.983 245.99 163.089 245.99 160.779C245.99 158.469 244.434 157.576 242.417 157.576H238.043V168.587ZM239.429 162.751V158.808H242.509C243.88 158.808 244.542 159.44 244.542 160.779C244.542 162.119 243.88 162.751 242.509 162.751H239.429ZM247.333 168.587H248.565V157.576H247.333V168.587ZM253.035 168.803C254.375 168.803 255.206 168.202 255.622 167.648H255.653V168.587H256.885V160.733H255.653V165.63C255.653 166.847 254.729 167.725 253.343 167.725C252.111 167.725 251.634 166.924 251.634 165.908V160.733H250.402V166.216C250.402 168.017 251.603 168.803 253.035 168.803ZM261.754 168.803C263.756 168.803 264.911 167.863 264.911 166.385C264.911 164.645 263.324 164.244 261.923 163.921C260.83 163.675 259.829 163.582 259.829 162.674C259.829 162.042 260.306 161.596 261.415 161.596C262.878 161.596 263.186 162.381 263.309 162.982H264.603C264.479 161.626 263.432 160.518 261.399 160.518C259.598 160.518 258.535 161.395 258.535 162.72C258.535 164.352 260.152 164.722 261.523 165.03C262.493 165.245 263.617 165.353 263.617 166.431C263.617 167.032 263.263 167.725 261.754 167.725C260.137 167.725 259.582 166.924 259.521 165.969H258.227C258.273 167.586 259.49 168.803 261.754 168.803ZM272.091 168.664C272.368 168.664 272.553 168.649 272.907 168.587V167.54C272.645 167.571 272.522 167.586 272.26 167.586C271.567 167.586 271.367 167.371 271.367 166.539V161.811H272.907V160.733H271.367V158.115H270.135V160.733H268.98V161.811H270.135V166.477C270.135 168.264 270.936 168.664 272.091 168.664ZM274.306 168.587H275.538V160.733H274.306V168.587ZM274.183 159.209H275.662V157.73H274.183V159.209ZM281.163 168.803C283.134 168.803 284.705 167.247 284.705 164.66C284.705 162.073 283.134 160.518 281.163 160.518C279.9 160.518 279.161 161.103 278.699 161.703H278.668V160.733H277.436V171.313H278.668V167.571H278.699C279.161 168.248 279.9 168.803 281.163 168.803ZM278.668 164.66C278.668 162.812 279.577 161.596 281.04 161.596C282.657 161.596 283.411 163.12 283.411 164.66C283.411 166.2 282.657 167.725 281.04 167.725C279.577 167.725 278.668 166.508 278.668 164.66ZM289.148 168.803C291.15 168.803 292.305 167.863 292.305 166.385C292.305 164.645 290.718 164.244 289.317 163.921C288.224 163.675 287.223 163.582 287.223 162.674C287.223 162.042 287.7 161.596 288.809 161.596C290.272 161.596 290.58 162.381 290.703 162.982H291.997C291.873 161.626 290.826 160.518 288.793 160.518C286.992 160.518 285.929 161.395 285.929 162.72C285.929 164.352 287.546 164.722 288.917 165.03C289.887 165.245 291.011 165.353 291.011 166.431C291.011 167.032 290.657 167.725 289.148 167.725C287.531 167.725 286.976 166.924 286.915 165.969H285.621C285.667 167.586 286.884 168.803 289.148 168.803ZM299.485 168.664C299.762 168.664 299.947 168.649 300.301 168.587V167.54C300.039 167.571 299.916 167.586 299.654 167.586C298.961 167.586 298.761 167.371 298.761 166.539V161.811H300.301V160.733H298.761V158.115H297.529V160.733H296.374V161.811H297.529V166.477C297.529 168.264 298.33 168.664 299.485 168.664ZM304.954 168.818C307.341 168.818 308.788 167.109 308.788 164.66C308.788 162.212 307.341 160.502 304.954 160.502C302.551 160.502 301.104 162.212 301.104 164.66C301.104 167.109 302.551 168.818 304.954 168.818ZM302.397 164.66C302.397 162.982 303.183 161.58 304.954 161.58C306.709 161.58 307.495 162.982 307.495 164.66C307.495 166.339 306.709 167.74 304.954 167.74C303.183 167.74 302.397 166.339 302.397 164.66ZM313.645 168.587H314.877V160.733H313.645V168.587ZM313.521 159.209H315V157.73H313.521V159.209ZM321.441 163.413V168.587H322.673V163.69C322.673 162.473 323.443 161.596 324.675 161.596C325.907 161.596 326.107 162.396 326.107 163.413V168.587H327.339V163.105C327.339 161.457 326.569 160.518 324.983 160.518C323.797 160.518 322.981 161.134 322.442 161.873H322.411C322.087 160.995 321.441 160.518 320.316 160.518C319.131 160.518 318.453 161.118 318.037 161.673H318.006V160.733H316.774V168.587H318.006V163.69C318.006 162.473 318.776 161.596 320.008 161.596C321.24 161.596 321.441 162.396 321.441 163.413ZM332.895 168.803C334.866 168.803 336.437 167.247 336.437 164.66C336.437 162.073 334.866 160.518 332.895 160.518C331.632 160.518 330.893 161.103 330.431 161.703H330.4V160.733H329.168V171.313H330.4V167.571H330.431C330.893 168.248 331.632 168.803 332.895 168.803ZM330.4 164.66C330.4 162.812 331.309 161.596 332.772 161.596C334.389 161.596 335.143 163.12 335.143 164.66C335.143 166.2 334.389 167.725 332.772 167.725C331.309 167.725 330.4 166.508 330.4 164.66ZM339.139 164.398C339.139 162.889 340.11 161.75 341.557 161.75C341.742 161.75 341.881 161.765 342.065 161.796V160.564C341.85 160.533 341.634 160.518 341.342 160.518C340.217 160.518 339.586 161.257 339.17 162.289H339.139V160.733H337.907V168.587H339.139V164.398ZM346.261 168.818C348.648 168.818 350.095 167.109 350.095 164.66C350.095 162.212 348.648 160.502 346.261 160.502C343.858 160.502 342.411 162.212 342.411 164.66C342.411 167.109 343.858 168.818 346.261 168.818ZM343.704 164.66C343.704 162.982 344.49 161.58 346.261 161.58C348.016 161.58 348.802 162.982 348.802 164.66C348.802 166.339 348.016 167.74 346.261 167.74C344.49 167.74 343.704 166.339 343.704 164.66ZM353.374 168.587H354.775L357.594 160.733H356.269L354.113 167.355H354.098L351.911 160.733H350.556L353.374 168.587ZM361.889 168.818C363.906 168.818 365.015 167.632 365.416 166.169H364.168C364.03 166.724 363.444 167.756 361.904 167.756C360.164 167.756 359.394 166.37 359.363 164.984H365.508C365.523 164.86 365.523 164.599 365.523 164.368C365.523 162.073 364.184 160.502 361.889 160.502C359.564 160.502 358.07 162.135 358.07 164.645C358.07 167.032 359.41 168.818 361.889 168.818ZM359.363 163.906C359.44 162.535 360.472 161.565 361.827 161.565C363.29 161.565 364.214 162.612 364.214 163.906H359.363ZM370.84 171.344C371.902 171.344 372.657 170.805 373.442 168.818L376.615 160.733H375.29L372.98 166.986H372.95L370.532 160.733H369.146L372.334 168.51C371.995 169.865 371.286 170.266 370.64 170.266C370.409 170.266 370.285 170.25 370.024 170.22V171.267C370.378 171.328 370.563 171.344 370.84 171.344ZM380.873 168.818C383.26 168.818 384.708 167.109 384.708 164.66C384.708 162.212 383.26 160.502 380.873 160.502C378.471 160.502 377.023 162.212 377.023 164.66C377.023 167.109 378.471 168.818 380.873 168.818ZM378.317 164.66C378.317 162.982 379.102 161.58 380.873 161.58C382.629 161.58 383.414 162.982 383.414 164.66C383.414 166.339 382.629 167.74 380.873 167.74C379.102 167.74 378.317 166.339 378.317 164.66ZM388.736 168.803C390.075 168.803 390.907 168.202 391.323 167.648H391.354V168.587H392.586V160.733H391.354V165.63C391.354 166.847 390.43 167.725 389.044 167.725C387.812 167.725 387.334 166.924 387.334 165.908V160.733H386.102V166.216C386.102 168.017 387.303 168.803 388.736 168.803ZM395.714 164.398C395.714 162.889 396.684 161.75 398.132 161.75C398.317 161.75 398.455 161.765 398.64 161.796V160.564C398.424 160.533 398.209 160.518 397.916 160.518C396.792 160.518 396.161 161.257 395.745 162.289H395.714V160.733H394.482V168.587H395.714V164.398ZM405.804 168.803C407.806 168.803 408.961 167.863 408.961 166.385C408.961 164.645 407.375 164.244 405.973 163.921C404.88 163.675 403.879 163.582 403.879 162.674C403.879 162.042 404.356 161.596 405.465 161.596C406.928 161.596 407.236 162.381 407.359 162.982H408.653C408.53 161.626 407.483 160.518 405.45 160.518C403.648 160.518 402.585 161.395 402.585 162.72C402.585 164.352 404.202 164.722 405.573 165.03C406.543 165.245 407.667 165.353 407.667 166.431C407.667 167.032 407.313 167.725 405.804 167.725C404.187 167.725 403.633 166.924 403.571 165.969H402.277C402.324 167.586 403.54 168.803 405.804 168.803ZM413.68 168.803C415.621 168.803 417.022 167.478 417.13 165.692H415.836C415.775 166.631 415.267 167.725 413.68 167.725C411.817 167.725 411.17 166.139 411.17 164.66C411.17 163.182 411.817 161.596 413.68 161.596C415.251 161.596 415.775 162.704 415.836 163.567H417.13C416.945 161.811 415.621 160.518 413.68 160.518C411.386 160.518 409.877 162.196 409.877 164.66C409.877 167.124 411.386 168.803 413.68 168.803ZM421.94 168.818C424.327 168.818 425.774 167.109 425.774 164.66C425.774 162.212 424.327 160.502 421.94 160.502C419.537 160.502 418.09 162.212 418.09 164.66C418.09 167.109 419.537 168.818 421.94 168.818ZM419.383 164.66C419.383 162.982 420.169 161.58 421.94 161.58C423.695 161.58 424.481 162.982 424.481 164.66C424.481 166.339 423.695 167.74 421.94 167.74C420.169 167.74 419.383 166.339 419.383 164.66ZM428.462 164.398C428.462 162.889 429.432 161.75 430.88 161.75C431.065 161.75 431.203 161.765 431.388 161.796V160.564C431.172 160.533 430.957 160.518 430.664 160.518C429.54 160.518 428.909 161.257 428.493 162.289H428.462V160.733H427.23V168.587H428.462V164.398ZM435.568 168.818C437.585 168.818 438.694 167.632 439.094 166.169H437.847C437.708 166.724 437.123 167.756 435.583 167.756C433.843 167.756 433.073 166.37 433.042 164.984H439.187C439.202 164.86 439.202 164.599 439.202 164.368C439.202 162.073 437.862 160.502 435.568 160.502C433.242 160.502 431.749 162.135 431.749 164.645C431.749 167.032 433.088 168.818 435.568 168.818ZM433.042 163.906C433.119 162.535 434.151 161.565 435.506 161.565C436.969 161.565 437.893 162.612 437.893 163.906H433.042ZM440.253 168.587H441.731V167.109H440.253V168.587Z" fill="#A8ADAF"/>
<rect x="208.499" y="204" width="661.09" height="79.9905" rx="13.1169" fill="#515C5E"/>
<rect x="236.995" y="232.495" width="31.2476" height="22.9733" rx="11.3981" fill="#00D079"/>
<path d="M246.693 247.611C248.267 247.611 249.128 246.324 249.128 244.287C249.128 242.249 248.48 240.953 246.73 240.953C245.341 240.953 244.507 241.962 244.507 243.148C244.507 244.416 245.359 245.259 246.582 245.259C247.313 245.259 247.943 244.944 248.276 244.333L248.295 244.342V244.426C248.295 245.611 247.999 246.87 246.693 246.87C245.98 246.87 245.628 246.482 245.545 245.861H244.674C244.767 246.796 245.507 247.611 246.693 247.611ZM245.378 243.092C245.378 242.24 245.85 241.694 246.73 241.694C247.656 241.694 248.165 242.249 248.165 243.073C248.165 243.935 247.582 244.518 246.656 244.518C245.896 244.518 245.378 244.009 245.378 243.092ZM251.131 242.601V247.482H251.964V241.082H251.316C251.214 241.851 250.992 242.184 249.797 242.221V242.916C250.371 242.916 250.853 242.87 251.131 242.601ZM254.423 247.482H255.164L258.729 241.082H257.988L254.423 247.482ZM253.006 242.786C253.006 243.777 253.497 244.62 254.525 244.62C255.571 244.62 256.044 243.777 256.044 242.786C256.044 241.795 255.553 240.953 254.525 240.953C253.478 240.953 253.006 241.795 253.006 242.786ZM253.682 242.786C253.682 242.064 253.96 241.573 254.525 241.573C255.09 241.573 255.368 242.064 255.368 242.786C255.368 243.509 255.09 244 254.525 244C253.96 244 253.682 243.509 253.682 242.786ZM257.118 245.778C257.118 246.769 257.609 247.611 258.637 247.611C259.683 247.611 260.156 246.769 260.156 245.778C260.156 244.787 259.665 243.944 258.637 243.944C257.59 243.944 257.118 244.787 257.118 245.778ZM257.794 245.778C257.794 245.055 258.072 244.564 258.637 244.564C259.202 244.564 259.479 245.055 259.479 245.778C259.479 246.5 259.202 246.991 258.637 246.991C258.072 246.991 257.794 246.5 257.794 245.778Z" fill="#253030"/>
<path d="M280.905 250.495H289.574V249.127H282.444V244.853H288.548V243.485H282.444V239.638H289.369V238.271H280.905V250.495ZM293.501 250.58C293.809 250.58 294.014 250.563 294.408 250.495V249.332C294.117 249.367 293.98 249.384 293.689 249.384C292.92 249.384 292.698 249.144 292.698 248.221V242.972H294.408V241.775H292.698V238.869H291.33V241.775H290.048V242.972H291.33V248.153C291.33 250.136 292.219 250.58 293.501 250.58ZM301.672 244.75V250.495H303.04V244.408C303.04 242.408 301.707 241.536 300.117 241.536C298.629 241.536 297.706 242.203 297.244 242.818H297.21V238.271H295.842V250.495H297.21V245.058C297.21 243.707 298.236 242.733 299.775 242.733C301.142 242.733 301.672 243.622 301.672 244.75ZM304.959 250.495H306.326V241.775H304.959V250.495ZM304.822 240.083H306.463V238.441H304.822V240.083ZM312.059 250.734C314.213 250.734 315.769 249.264 315.889 247.281H314.452C314.384 248.324 313.82 249.538 312.059 249.538C309.99 249.538 309.272 247.777 309.272 246.135C309.272 244.494 309.99 242.733 312.059 242.733C313.803 242.733 314.384 243.964 314.452 244.921H315.889C315.683 242.972 314.213 241.536 312.059 241.536C309.511 241.536 307.836 243.4 307.836 246.135C307.836 248.871 309.511 250.734 312.059 250.734ZM319.725 250.734C321.178 250.734 322.17 250.153 322.734 249.213H322.768C322.853 250.29 323.315 250.58 324.067 250.58C324.307 250.58 324.512 250.546 324.734 250.495V249.538C324.632 249.555 324.58 249.555 324.529 249.555C324.187 249.555 324.084 249.213 324.084 248.529V244.34C324.084 242.203 322.614 241.519 320.99 241.519C318.425 241.519 317.365 242.801 317.28 244.477H318.716C318.801 243.212 319.28 242.716 320.939 242.716C322.375 242.716 322.751 243.314 322.751 243.998C322.751 244.853 322.067 245.024 320.58 245.297C318.323 245.708 316.852 246.255 316.852 248.255C316.852 249.726 317.964 250.734 319.725 250.734ZM318.289 248.187C318.289 247.178 319.007 246.768 320.699 246.426C321.64 246.238 322.494 246.016 322.751 245.742V247.127C322.751 248.802 321.503 249.538 319.861 249.538C318.733 249.538 318.289 249.042 318.289 248.187ZM326.23 250.495H327.598V238.271H326.23V250.495ZM337.38 250.734C339.568 250.734 341.312 249.008 341.312 246.135C341.312 243.263 339.568 241.536 337.38 241.536C335.978 241.536 335.157 242.186 334.644 242.853H334.61V238.271H333.242V250.495H334.61V249.367H334.644C335.157 250.119 335.978 250.734 337.38 250.734ZM334.61 246.135C334.61 244.084 335.619 242.733 337.243 242.733C339.038 242.733 339.876 244.426 339.876 246.135C339.876 247.845 339.038 249.538 337.243 249.538C335.619 249.538 334.61 248.187 334.61 246.135ZM345.681 250.734C347.169 250.734 348.092 250.068 348.554 249.452H348.588V250.495H349.956V241.775H348.588V247.212C348.588 248.563 347.562 249.538 346.023 249.538C344.656 249.538 344.126 248.649 344.126 247.52V241.775H342.758V247.862C342.758 249.862 344.091 250.734 345.681 250.734ZM355.242 250.734C357.465 250.734 358.747 249.691 358.747 248.05C358.747 246.118 356.986 245.674 355.43 245.315C354.216 245.041 353.105 244.938 353.105 243.93C353.105 243.229 353.635 242.733 354.866 242.733C356.49 242.733 356.832 243.605 356.969 244.272H358.405C358.268 242.767 357.106 241.536 354.849 241.536C352.849 241.536 351.669 242.511 351.669 243.981C351.669 245.793 353.464 246.204 354.986 246.546C356.063 246.785 357.311 246.905 357.311 248.101C357.311 248.768 356.918 249.538 355.242 249.538C353.447 249.538 352.831 248.649 352.763 247.588H351.327C351.378 249.384 352.729 250.734 355.242 250.734ZM360.124 250.495H361.491V241.775H360.124V250.495ZM359.987 240.083H361.628V238.441H359.987V240.083ZM369.31 244.75V250.495H370.678V244.408C370.678 242.408 369.344 241.536 367.754 241.536C366.266 241.536 365.343 242.203 364.882 242.818H364.847V241.775H363.48V250.495H364.847V245.058C364.847 243.707 365.873 242.733 367.412 242.733C368.78 242.733 369.31 243.622 369.31 244.75ZM376.374 250.751C378.614 250.751 379.845 249.435 380.29 247.811H378.905C378.751 248.426 378.101 249.572 376.391 249.572C374.459 249.572 373.605 248.033 373.57 246.494H380.392C380.409 246.357 380.409 246.067 380.409 245.81C380.409 243.263 378.922 241.519 376.374 241.519C373.793 241.519 372.134 243.331 372.134 246.118C372.134 248.768 373.622 250.751 376.374 250.751ZM373.57 245.297C373.656 243.776 374.801 242.699 376.306 242.699C377.93 242.699 378.956 243.861 378.956 245.297H373.57ZM385.212 250.734C387.435 250.734 388.717 249.691 388.717 248.05C388.717 246.118 386.956 245.674 385.4 245.315C384.186 245.041 383.075 244.938 383.075 243.93C383.075 243.229 383.605 242.733 384.836 242.733C386.46 242.733 386.802 243.605 386.939 244.272H388.375C388.238 242.767 387.076 241.536 384.819 241.536C382.819 241.536 381.639 242.511 381.639 243.981C381.639 245.793 383.434 246.204 384.956 246.546C386.033 246.785 387.281 246.905 387.281 248.101C387.281 248.768 386.888 249.538 385.212 249.538C383.417 249.538 382.802 248.649 382.733 247.588H381.297C381.348 249.384 382.699 250.734 385.212 250.734ZM393.394 250.734C395.616 250.734 396.898 249.691 396.898 248.05C396.898 246.118 395.137 245.674 393.582 245.315C392.368 245.041 391.256 244.938 391.256 243.93C391.256 243.229 391.786 242.733 393.017 242.733C394.642 242.733 394.984 243.605 395.12 244.272H396.557C396.42 242.767 395.257 241.536 393 241.536C391 241.536 389.82 242.511 389.82 243.981C389.82 245.793 391.615 246.204 393.137 246.546C394.214 246.785 395.462 246.905 395.462 248.101C395.462 248.768 395.069 249.538 393.394 249.538C391.598 249.538 390.983 248.649 390.914 247.588H389.478C389.53 249.384 390.88 250.734 393.394 250.734Z" fill="white"/>
<rect x="208.499" y="295.388" width="661.09" height="79.9905" rx="13.1169" fill="#515C5E"/>
<rect x="236.995" y="323.884" width="32.2476" height="22.9733" rx="11.3981" fill="#00D079"/>
<path d="M246.943 339C248.332 339 249.166 337.99 249.166 336.805C249.166 335.536 248.314 334.694 247.091 334.694C246.359 334.694 245.73 335.008 245.396 335.62L245.378 335.61V335.527C245.378 334.342 245.674 333.082 246.98 333.082C247.693 333.082 248.045 333.471 248.128 334.092H248.999C248.906 333.156 248.165 332.341 246.98 332.341C245.406 332.341 244.544 333.629 244.544 335.666C244.544 337.703 245.193 339 246.943 339ZM245.507 336.879C245.507 336.018 246.091 335.434 247.017 335.434C247.776 335.434 248.295 335.944 248.295 336.861C248.295 337.713 247.823 338.259 246.943 338.259C246.017 338.259 245.507 337.703 245.507 336.879ZM250.614 338.87H251.494C251.494 336.805 252.67 334.342 254.124 333.119V332.471H249.688V333.212H253.198V333.23C252.059 334.249 250.614 336.731 250.614 338.87ZM256.06 338.87H256.801L260.366 332.471H259.625L256.06 338.87ZM254.643 334.175C254.643 335.166 255.134 336.009 256.162 336.009C257.208 336.009 257.681 335.166 257.681 334.175C257.681 333.184 257.19 332.341 256.162 332.341C255.115 332.341 254.643 333.184 254.643 334.175ZM255.319 334.175C255.319 333.453 255.597 332.962 256.162 332.962C256.727 332.962 257.005 333.453 257.005 334.175C257.005 334.897 256.727 335.388 256.162 335.388C255.597 335.388 255.319 334.897 255.319 334.175ZM258.755 337.166C258.755 338.157 259.246 339 260.274 339C261.32 339 261.792 338.157 261.792 337.166C261.792 336.175 261.302 335.333 260.274 335.333C259.227 335.333 258.755 336.175 258.755 337.166ZM259.431 337.166C259.431 336.444 259.709 335.953 260.274 335.953C260.839 335.953 261.116 336.444 261.116 337.166C261.116 337.889 260.839 338.379 260.274 338.379C259.709 338.379 259.431 337.889 259.431 337.166Z" fill="#253030"/>
<path d="M281.905 341.884H290.574V340.516H283.444V336.242H289.548V334.874H283.444V331.027H290.369V329.659H281.905V341.884ZM297.78 336.139V341.884H299.148V335.797C299.148 333.797 297.815 332.925 296.225 332.925C294.737 332.925 293.814 333.592 293.352 334.207H293.318V333.164H291.95V341.884H293.318V336.447C293.318 335.096 294.344 334.122 295.883 334.122C297.25 334.122 297.78 335.011 297.78 336.139ZM303.191 341.884H304.746L307.875 333.164H306.405L304.011 340.516H303.994L301.566 333.164H300.062L303.191 341.884ZM309.014 341.884H310.382V333.164H309.014V341.884ZM308.877 331.471H310.519V329.83H308.877V331.471ZM313.738 337.233C313.738 335.558 314.815 334.293 316.422 334.293C316.627 334.293 316.781 334.31 316.986 334.344V332.976C316.747 332.942 316.508 332.925 316.183 332.925C314.935 332.925 314.234 333.745 313.772 334.891H313.738V333.164H312.37V341.884H313.738V337.233ZM321.525 342.14C324.175 342.14 325.782 340.242 325.782 337.524C325.782 334.805 324.175 332.908 321.525 332.908C318.858 332.908 317.251 334.805 317.251 337.524C317.251 340.242 318.858 342.14 321.525 342.14ZM318.687 337.524C318.687 335.66 319.559 334.104 321.525 334.104C323.474 334.104 324.346 335.66 324.346 337.524C324.346 339.387 323.474 340.943 321.525 340.943C319.559 340.943 318.687 339.387 318.687 337.524ZM333.11 336.139V341.884H334.478V335.797C334.478 333.797 333.144 332.925 331.554 332.925C330.067 332.925 329.144 333.592 328.682 334.207H328.648V333.164H327.28V341.884H328.648V336.447C328.648 335.096 329.674 334.122 331.212 334.122C332.58 334.122 333.11 335.011 333.11 336.139ZM341.577 336.139V341.884H342.944V336.447C342.944 335.096 343.799 334.122 345.167 334.122C346.535 334.122 346.757 335.011 346.757 336.139V341.884H348.125V335.797C348.125 333.968 347.27 332.925 345.509 332.925C344.193 332.925 343.286 333.609 342.688 334.429H342.654C342.295 333.455 341.577 332.925 340.329 332.925C339.012 332.925 338.26 333.592 337.798 334.207H337.764V333.164H336.396V341.884H337.764V336.447C337.764 335.096 338.619 334.122 339.987 334.122C341.354 334.122 341.577 335.011 341.577 336.139ZM353.816 342.14C356.055 342.14 357.286 340.824 357.731 339.199H356.346C356.192 339.815 355.543 340.96 353.833 340.96C351.901 340.96 351.046 339.422 351.012 337.883H357.834C357.851 337.746 357.851 337.456 357.851 337.199C357.851 334.652 356.363 332.908 353.816 332.908C351.234 332.908 349.576 334.72 349.576 337.507C349.576 340.157 351.063 342.14 353.816 342.14ZM351.012 336.686C351.097 335.164 352.243 334.087 353.747 334.087C355.372 334.087 356.397 335.25 356.397 336.686H351.012ZM365.184 336.139V341.884H366.552V335.797C366.552 333.797 365.218 332.925 363.628 332.925C362.141 332.925 361.217 333.592 360.756 334.207H360.722V333.164H359.354V341.884H360.722V336.447C360.722 335.096 361.747 334.122 363.286 334.122C364.654 334.122 365.184 335.011 365.184 336.139ZM371.088 341.969C371.396 341.969 371.601 341.952 371.994 341.884V340.721C371.703 340.755 371.567 340.772 371.276 340.772C370.507 340.772 370.284 340.533 370.284 339.61V334.361H371.994V333.164H370.284V330.258H368.917V333.164H367.634V334.361H368.917V339.541C368.917 341.525 369.806 341.969 371.088 341.969ZM375.84 342.123C377.293 342.123 378.285 341.542 378.849 340.601H378.883C378.968 341.679 379.43 341.969 380.182 341.969C380.422 341.969 380.627 341.935 380.849 341.884V340.926C380.747 340.943 380.695 340.943 380.644 340.943C380.302 340.943 380.199 340.601 380.199 339.917V335.729C380.199 333.592 378.729 332.908 377.105 332.908C374.54 332.908 373.48 334.19 373.395 335.865H374.831C374.916 334.6 375.395 334.104 377.054 334.104C378.49 334.104 378.866 334.703 378.866 335.387C378.866 336.242 378.182 336.413 376.695 336.686C374.438 337.096 372.967 337.644 372.967 339.644C372.967 341.114 374.079 342.123 375.84 342.123ZM374.403 339.576C374.403 338.567 375.122 338.156 376.814 337.815C377.755 337.626 378.609 337.404 378.866 337.131V338.516C378.866 340.191 377.618 340.926 375.976 340.926C374.848 340.926 374.403 340.43 374.403 339.576ZM382.345 341.884H383.713V329.659H382.345V341.884ZM392.657 342.123C394.88 342.123 396.162 341.08 396.162 339.439C396.162 337.507 394.401 337.062 392.845 336.703C391.631 336.43 390.52 336.327 390.52 335.318C390.52 334.617 391.05 334.122 392.281 334.122C393.905 334.122 394.247 334.994 394.384 335.66H395.82C395.683 334.156 394.521 332.925 392.264 332.925C390.263 332.925 389.084 333.899 389.084 335.37C389.084 337.182 390.879 337.592 392.401 337.934C393.478 338.174 394.726 338.293 394.726 339.49C394.726 340.157 394.333 340.926 392.657 340.926C390.862 340.926 390.246 340.037 390.178 338.977H388.742C388.793 340.772 390.144 342.123 392.657 342.123ZM400.156 341.969C400.464 341.969 400.669 341.952 401.063 341.884V340.721C400.772 340.755 400.635 340.772 400.345 340.772C399.575 340.772 399.353 340.533 399.353 339.61V334.361H401.063V333.164H399.353V330.258H397.985V333.164H396.703V334.361H397.985V339.541C397.985 341.525 398.874 341.969 400.156 341.969ZM406.092 342.14C408.332 342.14 409.563 340.824 410.008 339.199H408.623C408.469 339.815 407.819 340.96 406.109 340.96C404.177 340.96 403.323 339.422 403.288 337.883H410.11C410.127 337.746 410.127 337.456 410.127 337.199C410.127 334.652 408.64 332.908 406.092 332.908C403.511 332.908 401.852 334.72 401.852 337.507C401.852 340.157 403.34 342.14 406.092 342.14ZM403.288 336.686C403.374 335.164 404.519 334.087 406.024 334.087C407.648 334.087 408.674 335.25 408.674 336.686H403.288ZM413.413 341.884H414.9L416.832 334.805H416.867L418.799 341.884H420.286L423.073 333.164H421.585L419.568 340.345H419.534L417.619 333.164H416.131L414.216 340.345H414.182L412.182 333.164H410.643L413.413 341.884ZM426.396 342.123C427.85 342.123 428.841 341.542 429.406 340.601H429.44C429.525 341.679 429.987 341.969 430.739 341.969C430.979 341.969 431.184 341.935 431.406 341.884V340.926C431.303 340.943 431.252 340.943 431.201 340.943C430.859 340.943 430.756 340.601 430.756 339.917V335.729C430.756 333.592 429.286 332.908 427.662 332.908C425.097 332.908 424.037 334.19 423.952 335.865H425.388C425.473 334.6 425.952 334.104 427.61 334.104C429.047 334.104 429.423 334.703 429.423 335.387C429.423 336.242 428.739 336.413 427.251 336.686C424.995 337.096 423.524 337.644 423.524 339.644C423.524 341.114 424.635 342.123 426.396 342.123ZM424.96 339.576C424.96 338.567 425.678 338.156 427.371 337.815C428.311 337.626 429.166 337.404 429.423 337.131V338.516C429.423 340.191 428.175 340.926 426.533 340.926C425.405 340.926 424.96 340.43 424.96 339.576ZM434.269 337.233C434.269 335.558 435.347 334.293 436.954 334.293C437.159 334.293 437.313 334.31 437.518 334.344V332.976C437.279 332.942 437.039 332.925 436.714 332.925C435.466 332.925 434.765 333.745 434.304 334.891H434.269V333.164H432.902V341.884H434.269V337.233ZM441.749 342.123C443.151 342.123 443.971 341.473 444.484 340.807H444.518V341.884H445.886V329.659H444.518V334.293H444.484C443.971 333.54 443.151 332.925 441.749 332.925C439.56 332.925 437.816 334.652 437.816 337.524C437.816 340.396 439.56 342.123 441.749 342.123ZM439.252 337.524C439.252 335.814 440.09 334.122 441.885 334.122C443.51 334.122 444.518 335.472 444.518 337.524C444.518 339.576 443.51 340.926 441.885 340.926C440.09 340.926 439.252 339.234 439.252 337.524ZM451.161 342.123C453.384 342.123 454.666 341.08 454.666 339.439C454.666 337.507 452.905 337.062 451.35 336.703C450.136 336.43 449.024 336.327 449.024 335.318C449.024 334.617 449.554 334.122 450.785 334.122C452.41 334.122 452.751 334.994 452.888 335.66H454.324C454.188 334.156 453.025 332.925 450.768 332.925C448.768 332.925 447.588 333.899 447.588 335.37C447.588 337.182 449.383 337.592 450.905 337.934C451.982 338.174 453.23 338.293 453.23 339.49C453.23 340.157 452.837 340.926 451.161 340.926C449.366 340.926 448.751 340.037 448.682 338.977H447.246C447.297 340.772 448.648 342.123 451.161 342.123ZM461.873 336.139V341.884H463.241V335.797C463.241 333.797 461.907 332.925 460.317 332.925C458.83 332.925 457.907 333.592 457.445 334.207H457.411V329.659H456.043V341.884H457.411V336.447C457.411 335.096 458.437 334.122 459.975 334.122C461.343 334.122 461.873 335.011 461.873 336.139ZM465.159 341.884H466.527V333.164H465.159V341.884ZM465.022 331.471H466.664V329.83H465.022V331.471ZM472.653 342.123C474.841 342.123 476.585 340.396 476.585 337.524C476.585 334.652 474.841 332.925 472.653 332.925C471.251 332.925 470.43 333.574 469.917 334.241H469.883V333.164H468.515V344.91H469.883V340.755H469.917C470.43 341.508 471.251 342.123 472.653 342.123ZM469.883 337.524C469.883 335.472 470.892 334.122 472.516 334.122C474.311 334.122 475.149 335.814 475.149 337.524C475.149 339.234 474.311 340.926 472.516 340.926C470.892 340.926 469.883 339.576 469.883 337.524Z" fill="white"/>
<rect x="208.499" y="386.777" width="661.09" height="79.9905" rx="13.1169" fill="#515C5E"/>
<rect x="236.995" y="415.272" width="33.2476" height="22.9733" rx="11.3981" fill="#F5EB0A"/>
<path d="M246.767 430.388C248.054 430.388 249.064 429.453 249.064 428.073C249.064 426.888 248.221 425.962 247.017 425.962C246.304 425.962 245.822 426.184 245.498 426.554V426.536L245.878 424.6H248.721V423.859H245.202L244.535 427.305H245.424C245.748 426.888 246.248 426.703 246.823 426.703C247.647 426.703 248.193 427.11 248.193 428.073C248.193 429.101 247.61 429.648 246.73 429.648C245.73 429.648 245.396 429.036 245.322 428.416H244.452C244.489 429.444 245.304 430.388 246.767 430.388ZM252.376 430.388C253.746 430.388 254.645 429.685 254.645 428.462C254.645 427.712 254.293 427.147 253.431 426.879V426.86C254.08 426.601 254.413 426.175 254.413 425.499C254.413 424.369 253.45 423.73 252.357 423.73C250.773 423.73 250.005 424.6 250.005 425.776H250.875C250.875 425.147 251.107 424.471 252.357 424.471C253.228 424.471 253.542 424.98 253.542 425.499C253.542 426.24 253.079 426.545 252.422 426.545H251.774V427.286H252.459C253.079 427.286 253.774 427.499 253.774 428.462C253.774 429.194 253.413 429.648 252.311 429.648C251.098 429.648 250.709 429.018 250.709 428.092H249.838C249.838 429.536 250.746 430.388 252.376 430.388ZM256.774 430.259H257.515L261.081 423.859H260.34L256.774 430.259ZM255.357 425.563C255.357 426.554 255.848 427.397 256.876 427.397C257.923 427.397 258.395 426.554 258.395 425.563C258.395 424.573 257.904 423.73 256.876 423.73C255.83 423.73 255.357 424.573 255.357 425.563ZM256.034 425.563C256.034 424.841 256.311 424.35 256.876 424.35C257.441 424.35 257.719 424.841 257.719 425.563C257.719 426.286 257.441 426.777 256.876 426.777C256.311 426.777 256.034 426.286 256.034 425.563ZM259.469 428.555C259.469 429.546 259.96 430.388 260.988 430.388C262.035 430.388 262.507 429.546 262.507 428.555C262.507 427.564 262.016 426.721 260.988 426.721C259.942 426.721 259.469 427.564 259.469 428.555ZM260.145 428.555C260.145 427.832 260.423 427.342 260.988 427.342C261.553 427.342 261.831 427.832 261.831 428.555C261.831 429.277 261.553 429.768 260.988 429.768C260.423 429.768 260.145 429.277 260.145 428.555Z" fill="#253030"/>
<path d="M282.905 433.272H284.444V427.75H289.898V426.382H284.444V422.416H291.198V421.048H282.905V433.272ZM293.825 433.512C295.278 433.512 296.27 432.93 296.834 431.99H296.868C296.954 433.067 297.415 433.358 298.168 433.358C298.407 433.358 298.612 433.324 298.834 433.272V432.315C298.732 432.332 298.681 432.332 298.629 432.332C298.287 432.332 298.185 431.99 298.185 431.306V427.117C298.185 424.98 296.714 424.296 295.09 424.296C292.526 424.296 291.466 425.578 291.38 427.254H292.816C292.902 425.989 293.38 425.493 295.039 425.493C296.475 425.493 296.851 426.091 296.851 426.775C296.851 427.63 296.167 427.801 294.68 428.075C292.423 428.485 290.953 429.032 290.953 431.032C290.953 432.503 292.064 433.512 293.825 433.512ZM292.389 430.964C292.389 429.955 293.107 429.545 294.799 429.203C295.74 429.015 296.595 428.793 296.851 428.519V429.904C296.851 431.58 295.603 432.315 293.962 432.315C292.833 432.315 292.389 431.819 292.389 430.964ZM300.33 433.272H301.698V424.553H300.33V433.272ZM300.193 422.86H301.835V421.219H300.193V422.86ZM305.054 428.622C305.054 426.946 306.131 425.681 307.738 425.681C307.943 425.681 308.097 425.698 308.302 425.732V424.365C308.063 424.33 307.824 424.313 307.499 424.313C306.251 424.313 305.55 425.134 305.088 426.279H305.054V424.553H303.686V433.272H305.054V428.622ZM312.719 433.272H314.087V421.048H312.719V433.272ZM318.486 433.512C319.939 433.512 320.93 432.93 321.495 431.99H321.529C321.614 433.067 322.076 433.358 322.828 433.358C323.068 433.358 323.273 433.324 323.495 433.272V432.315C323.392 432.332 323.341 432.332 323.29 432.332C322.948 432.332 322.845 431.99 322.845 431.306V427.117C322.845 424.98 321.375 424.296 319.751 424.296C317.186 424.296 316.126 425.578 316.041 427.254H317.477C317.562 425.989 318.041 425.493 319.699 425.493C321.136 425.493 321.512 426.091 321.512 426.775C321.512 427.63 320.828 427.801 319.34 428.075C317.084 428.485 315.613 429.032 315.613 431.032C315.613 432.503 316.725 433.512 318.486 433.512ZM317.049 430.964C317.049 429.955 317.767 429.545 319.46 429.203C320.4 429.015 321.255 428.793 321.512 428.519V429.904C321.512 431.58 320.264 432.315 318.622 432.315C317.494 432.315 317.049 431.819 317.049 430.964ZM329.128 433.512C331.317 433.512 333.061 431.785 333.061 428.912C333.061 426.04 331.317 424.313 329.128 424.313C327.726 424.313 326.906 424.963 326.393 425.63H326.359V421.048H324.991V433.272H326.359V432.144H326.393C326.906 432.896 327.726 433.512 329.128 433.512ZM326.359 428.912C326.359 426.861 327.367 425.51 328.992 425.51C330.787 425.51 331.624 427.203 331.624 428.912C331.624 430.622 330.787 432.315 328.992 432.315C327.367 432.315 326.359 430.964 326.359 428.912ZM338.37 433.529C341.02 433.529 342.627 431.631 342.627 428.912C342.627 426.194 341.02 424.296 338.37 424.296C335.703 424.296 334.096 426.194 334.096 428.912C334.096 431.631 335.703 433.529 338.37 433.529ZM335.532 428.912C335.532 427.049 336.404 425.493 338.37 425.493C340.319 425.493 341.191 427.049 341.191 428.912C341.191 430.776 340.319 432.332 338.37 432.332C336.404 432.332 335.532 430.776 335.532 428.912ZM345.493 428.622C345.493 426.946 346.57 425.681 348.177 425.681C348.382 425.681 348.536 425.698 348.741 425.732V424.365C348.502 424.33 348.262 424.313 347.938 424.313C346.689 424.313 345.988 425.134 345.527 426.279H345.493V424.553H344.125V433.272H345.493V428.622Z" fill="white"/>
<rect x="208.499" y="478.166" width="661.09" height="79.9905" rx="13.1169" fill="#515C5E"/>
<rect x="236.995" y="506.661" width="34.2476" height="22.9733" rx="11.3981" fill="#F63E3F"/>
<path d="M247.017 521.786C248.499 521.786 249.453 521.101 249.453 519.823C249.453 519.082 249.119 518.527 248.314 518.276V518.258C248.869 517.989 249.258 517.554 249.258 516.869C249.258 515.739 248.221 515.109 246.98 515.109C245.433 515.109 244.544 515.989 244.544 517.202H245.878C245.878 516.582 246.239 516.221 246.952 516.221C247.573 516.221 247.86 516.545 247.86 516.989C247.86 517.591 247.415 517.85 246.832 517.85H246.434V518.841H246.869C247.563 518.841 248.054 519.064 248.054 519.777C248.054 520.342 247.758 520.675 246.952 520.675C246.026 520.675 245.693 520.212 245.693 519.416H244.359C244.359 520.925 245.322 521.786 247.017 521.786ZM252.959 521.786C254.459 521.786 255.385 520.842 255.385 519.49C255.385 518.258 254.515 517.341 253.218 517.341C252.514 517.341 252.005 517.6 251.671 517.999L251.644 517.98V517.878C251.644 516.943 251.968 516.156 252.912 516.156C253.533 516.156 253.764 516.535 253.82 516.869H255.209C255.033 515.869 254.153 515.109 252.931 515.109C251.31 515.109 250.282 516.276 250.282 518.508C250.282 520.286 250.949 521.786 252.959 521.786ZM251.708 519.573C251.708 518.888 252.153 518.388 252.912 518.388C253.626 518.388 254.052 518.869 254.052 519.564C254.052 520.249 253.635 520.74 252.894 520.74C252.135 520.74 251.708 520.249 251.708 519.573ZM257.675 521.647H258.592L262.139 515.248H261.222L257.675 521.647ZM256.008 516.961C256.008 518.054 256.666 518.804 257.777 518.804C258.888 518.804 259.527 518.054 259.527 516.961C259.527 515.859 258.879 515.109 257.777 515.109C256.656 515.109 256.008 515.859 256.008 516.961ZM257.193 516.961C257.193 516.285 257.369 515.943 257.777 515.943C258.166 515.943 258.342 516.285 258.342 516.961C258.342 517.628 258.166 517.971 257.777 517.971C257.369 517.971 257.193 517.628 257.193 516.961ZM260.287 519.934C260.287 521.036 260.935 521.786 262.046 521.786C263.157 521.786 263.806 521.036 263.806 519.934C263.806 518.841 263.148 518.091 262.046 518.091C260.935 518.091 260.287 518.841 260.287 519.934ZM261.472 519.934C261.472 519.267 261.648 518.925 262.046 518.925C262.444 518.925 262.62 519.267 262.62 519.934C262.62 520.61 262.444 520.953 262.046 520.953C261.648 520.953 261.472 520.61 261.472 519.934Z" fill="#0F1416"/>
<path d="M283.905 524.661H285.444V519.002H291.975V524.661H293.514V512.436H291.975V517.634H285.444V512.436H283.905V524.661ZM298.475 524.9C299.963 524.9 300.886 524.233 301.347 523.618H301.382V524.661H302.749V515.941H301.382V521.378C301.382 522.729 300.356 523.703 298.817 523.703C297.449 523.703 296.919 522.814 296.919 521.686V515.941H295.552V522.028C295.552 524.028 296.885 524.9 298.475 524.9ZM309.917 518.916V524.661H311.284V519.224C311.284 517.873 312.139 516.899 313.507 516.899C314.875 516.899 315.097 517.788 315.097 518.916V524.661H316.465V518.574C316.465 516.745 315.61 515.702 313.849 515.702C312.533 515.702 311.626 516.386 311.028 517.207H310.994C310.635 516.232 309.917 515.702 308.669 515.702C307.352 515.702 306.6 516.369 306.138 516.984H306.104V515.941H304.736V524.661H306.104V519.224C306.104 517.873 306.959 516.899 308.327 516.899C309.694 516.899 309.917 517.788 309.917 518.916ZM320.788 524.9C322.241 524.9 323.233 524.319 323.797 523.379H323.831C323.917 524.456 324.378 524.746 325.131 524.746C325.37 524.746 325.575 524.712 325.797 524.661V523.703C325.695 523.721 325.643 523.721 325.592 523.721C325.25 523.721 325.148 523.379 325.148 522.695V518.506C325.148 516.369 323.677 515.685 322.053 515.685C319.489 515.685 318.428 516.967 318.343 518.643H319.779C319.865 517.377 320.343 516.882 322.002 516.882C323.438 516.882 323.814 517.48 323.814 518.164C323.814 519.019 323.13 519.19 321.643 519.463C319.386 519.874 317.916 520.421 317.916 522.421C317.916 523.892 319.027 524.9 320.788 524.9ZM319.352 522.353C319.352 521.344 320.07 520.934 321.762 520.592C322.703 520.404 323.558 520.181 323.814 519.908V521.293C323.814 522.968 322.566 523.703 320.925 523.703C319.796 523.703 319.352 523.208 319.352 522.353ZM333.123 518.916V524.661H334.491V518.574C334.491 516.574 333.157 515.702 331.567 515.702C330.08 515.702 329.157 516.369 328.695 516.984H328.661V515.941H327.293V524.661H328.661V519.224C328.661 517.873 329.687 516.899 331.225 516.899C332.593 516.899 333.123 517.788 333.123 518.916ZM341.434 520.01C341.434 518.335 342.511 517.07 344.118 517.07C344.323 517.07 344.477 517.087 344.682 517.121V515.753C344.443 515.719 344.203 515.702 343.879 515.702C342.63 515.702 341.929 516.523 341.468 517.668H341.434V515.941H340.066V524.661H341.434V520.01ZM345.826 524.661H347.194V515.941H345.826V524.661ZM345.689 514.249H347.331V512.607H345.689V514.249ZM352.824 527.79C355.269 527.79 356.825 526.559 356.825 524.08V515.941H355.457V517.018H355.423C354.91 516.352 354.089 515.702 352.653 515.702C350.499 515.702 348.755 517.087 348.755 519.959C348.755 522.831 350.499 524.216 352.653 524.216C354.089 524.216 354.91 523.601 355.423 522.849H355.457V524.216C355.457 525.892 354.516 526.593 352.824 526.593C351.268 526.593 350.618 525.926 350.447 525.037H349.011C349.148 526.661 350.396 527.79 352.824 527.79ZM350.191 519.959C350.191 518.249 351.029 516.899 352.824 516.899C354.448 516.899 355.457 517.908 355.457 519.959C355.457 522.011 354.448 523.02 352.824 523.02C351.029 523.02 350.191 521.669 350.191 519.959ZM364.613 518.916V524.661H365.98V518.574C365.98 516.574 364.647 515.702 363.057 515.702C361.569 515.702 360.646 516.369 360.185 516.984H360.15V512.436H358.783V524.661H360.15V519.224C360.15 517.873 361.176 516.899 362.715 516.899C364.083 516.899 364.613 517.788 364.613 518.916ZM370.517 524.746C370.824 524.746 371.03 524.729 371.423 524.661V523.498C371.132 523.532 370.995 523.55 370.705 523.55C369.935 523.55 369.713 523.31 369.713 522.387V517.138H371.423V515.941H369.713V513.035H368.345V515.941H367.063V517.138H368.345V522.319C368.345 524.302 369.234 524.746 370.517 524.746ZM376.157 524.9C378.38 524.9 379.662 523.857 379.662 522.216C379.662 520.284 377.901 519.839 376.346 519.48C375.132 519.207 374.02 519.104 374.02 518.096C374.02 517.395 374.55 516.899 375.781 516.899C377.406 516.899 377.747 517.771 377.884 518.438H379.32C379.184 516.933 378.021 515.702 375.764 515.702C373.764 515.702 372.584 516.677 372.584 518.147C372.584 519.959 374.379 520.37 375.901 520.711C376.978 520.951 378.226 521.07 378.226 522.267C378.226 522.934 377.833 523.703 376.157 523.703C374.362 523.703 373.747 522.814 373.678 521.754H372.242C372.293 523.55 373.644 524.9 376.157 524.9Z" fill="white"/>
<rect x="208.499" y="569.554" width="661.09" height="79.9905" rx="13.1169" fill="#515C5E"/>
<rect x="236.994" y="598.05" width="32.2476" height="22.9733" rx="11.3981" fill="#00D079"/>
<path d="M247.017 613.175C248.452 613.175 249.591 612.518 249.591 611.212C249.591 610.341 248.99 609.878 248.388 609.61V609.591C248.832 609.35 249.295 608.952 249.295 608.23C249.295 607.128 248.304 606.498 247.017 606.498C245.72 606.498 244.729 607.128 244.729 608.23C244.729 608.952 245.183 609.35 245.637 609.591V609.61C245.026 609.878 244.433 610.341 244.433 611.212C244.433 612.518 245.572 613.175 247.017 613.175ZM245.832 611.101C245.832 610.517 246.258 610.091 247.017 610.091C247.767 610.091 248.193 610.517 248.193 611.101C248.193 611.693 247.767 612.129 247.017 612.129C246.258 612.129 245.832 611.693 245.832 611.101ZM245.998 608.332C245.998 607.832 246.341 607.48 247.017 607.48C247.684 607.48 248.036 607.832 248.036 608.332C248.036 608.841 247.684 609.184 247.017 609.184C246.341 609.184 245.998 608.841 245.998 608.332ZM251.493 608.572V613.036H252.854V606.637H251.743C251.715 607.415 251.132 607.767 250.15 607.776V608.85C250.715 608.85 251.234 608.785 251.493 608.572ZM255.441 613.036H256.358L259.905 606.637H258.988L255.441 613.036ZM253.774 608.35C253.774 609.443 254.432 610.193 255.543 610.193C256.654 610.193 257.293 609.443 257.293 608.35C257.293 607.248 256.645 606.498 255.543 606.498C254.422 606.498 253.774 607.248 253.774 608.35ZM254.959 608.35C254.959 607.674 255.135 607.332 255.543 607.332C255.932 607.332 256.108 607.674 256.108 608.35C256.108 609.017 255.932 609.36 255.543 609.36C255.135 609.36 254.959 609.017 254.959 608.35ZM258.053 611.323C258.053 612.425 258.701 613.175 259.812 613.175C260.924 613.175 261.572 612.425 261.572 611.323C261.572 610.23 260.914 609.48 259.812 609.48C258.701 609.48 258.053 610.23 258.053 611.323ZM259.238 611.323C259.238 610.656 259.414 610.314 259.812 610.314C260.21 610.314 260.386 610.656 260.386 611.323C260.386 611.999 260.21 612.342 259.812 612.342C259.414 612.342 259.238 611.999 259.238 611.323Z" fill="#253030"/>
<path d="M281.905 616.05H283.444V611.108H286.949C290.044 611.108 288.881 615.537 289.411 616.05H291.069V615.947C290.42 615.742 291.429 610.903 288.676 610.373V610.339C289.958 610.031 290.898 608.869 290.898 607.347C290.898 605.09 289.497 603.825 286.812 603.825H281.905V616.05ZM283.444 609.741V605.193H286.505C288.573 605.193 289.36 605.979 289.36 607.381C289.36 608.903 288.317 609.741 286.453 609.741H283.444ZM296.313 616.306C298.553 616.306 299.784 614.99 300.228 613.365H298.843C298.69 613.981 298.04 615.126 296.33 615.126C294.398 615.126 293.543 613.588 293.509 612.049H300.331C300.348 611.912 300.348 611.621 300.348 611.365C300.348 608.817 298.861 607.074 296.313 607.074C293.731 607.074 292.073 608.886 292.073 611.673C292.073 614.323 293.56 616.306 296.313 616.306ZM293.509 610.852C293.595 609.33 294.74 608.253 296.245 608.253C297.869 608.253 298.895 609.416 298.895 610.852H293.509ZM305.151 616.289C307.374 616.289 308.656 615.246 308.656 613.605C308.656 611.673 306.895 611.228 305.339 610.869C304.125 610.596 303.014 610.493 303.014 609.484C303.014 608.783 303.544 608.287 304.775 608.287C306.399 608.287 306.741 609.159 306.878 609.826H308.314C308.177 608.322 307.015 607.091 304.758 607.091C302.757 607.091 301.578 608.065 301.578 609.536C301.578 611.348 303.373 611.758 304.895 612.1C305.972 612.339 307.22 612.459 307.22 613.656C307.22 614.323 306.827 615.092 305.151 615.092C303.356 615.092 302.74 614.203 302.672 613.143H301.236C301.287 614.938 302.638 616.289 305.151 616.289ZM314.17 616.289C316.358 616.289 318.102 614.562 318.102 611.69C318.102 608.817 316.358 607.091 314.17 607.091C312.768 607.091 311.947 607.74 311.434 608.407H311.4V607.33H310.032V619.076H311.4V614.921H311.434C311.947 615.673 312.768 616.289 314.17 616.289ZM311.4 611.69C311.4 609.638 312.409 608.287 314.033 608.287C315.828 608.287 316.666 609.98 316.666 611.69C316.666 613.4 315.828 615.092 314.033 615.092C312.409 615.092 311.4 613.741 311.4 611.69ZM323.412 616.306C326.062 616.306 327.669 614.408 327.669 611.69C327.669 608.971 326.062 607.074 323.412 607.074C320.745 607.074 319.138 608.971 319.138 611.69C319.138 614.408 320.745 616.306 323.412 616.306ZM320.574 611.69C320.574 609.826 321.446 608.27 323.412 608.27C325.361 608.27 326.233 609.826 326.233 611.69C326.233 613.553 325.361 615.109 323.412 615.109C321.446 615.109 320.574 613.553 320.574 611.69ZM334.997 610.305V616.05H336.365V609.963C336.365 607.963 335.031 607.091 333.441 607.091C331.953 607.091 331.03 607.757 330.569 608.373H330.534V607.33H329.167V616.05H330.534V610.613C330.534 609.262 331.56 608.287 333.099 608.287C334.467 608.287 334.997 609.177 334.997 610.305ZM341.583 616.289C343.805 616.289 345.088 615.246 345.088 613.605C345.088 611.673 343.327 611.228 341.771 610.869C340.557 610.596 339.445 610.493 339.445 609.484C339.445 608.783 339.975 608.287 341.206 608.287C342.831 608.287 343.173 609.159 343.309 609.826H344.746C344.609 608.322 343.446 607.091 341.189 607.091C339.189 607.091 338.009 608.065 338.009 609.536C338.009 611.348 339.805 611.758 341.326 612.1C342.403 612.339 343.651 612.459 343.651 613.656C343.651 614.323 343.258 615.092 341.583 615.092C339.787 615.092 339.172 614.203 339.104 613.143H337.667C337.719 614.938 339.069 616.289 341.583 616.289ZM346.464 616.05H347.832V607.33H346.464V616.05ZM346.327 605.637H347.969V603.996H346.327V605.637ZM353.958 616.289C356.146 616.289 357.89 614.562 357.89 611.69C357.89 608.817 356.146 607.091 353.958 607.091C352.556 607.091 351.735 607.74 351.222 608.407H351.188V603.825H349.82V616.05H351.188V614.921H351.222C351.735 615.673 352.556 616.289 353.958 616.289ZM351.188 611.69C351.188 609.638 352.197 608.287 353.821 608.287C355.616 608.287 356.454 609.98 356.454 611.69C356.454 613.4 355.616 615.092 353.821 615.092C352.197 615.092 351.188 613.741 351.188 611.69ZM359.404 616.05H360.772V603.825H359.404V616.05ZM366.538 616.306C368.778 616.306 370.009 614.99 370.454 613.365H369.069C368.915 613.981 368.265 615.126 366.555 615.126C364.623 615.126 363.769 613.588 363.734 612.049H370.556C370.573 611.912 370.573 611.621 370.573 611.365C370.573 608.817 369.086 607.074 366.538 607.074C363.957 607.074 362.298 608.886 362.298 611.673C362.298 614.323 363.786 616.306 366.538 616.306ZM363.734 610.852C363.82 609.33 364.965 608.253 366.47 608.253C368.094 608.253 369.12 609.416 369.12 610.852H363.734ZM379.871 616.289C382.059 616.289 383.803 614.562 383.803 611.69C383.803 608.817 382.059 607.091 379.871 607.091C378.469 607.091 377.648 607.74 377.135 608.407H377.101V607.33H375.733V619.076H377.101V614.921H377.135C377.648 615.673 378.469 616.289 379.871 616.289ZM377.101 611.69C377.101 609.638 378.109 608.287 379.734 608.287C381.529 608.287 382.367 609.98 382.367 611.69C382.367 613.4 381.529 615.092 379.734 615.092C378.109 615.092 377.101 613.741 377.101 611.69ZM388.172 616.289C389.659 616.289 390.583 615.622 391.044 615.007H391.078V616.05H392.446V607.33H391.078V612.767C391.078 614.118 390.053 615.092 388.514 615.092C387.146 615.092 386.616 614.203 386.616 613.075V607.33H385.248V613.417C385.248 615.417 386.582 616.289 388.172 616.289ZM395.801 611.399C395.801 609.724 396.878 608.458 398.485 608.458C398.69 608.458 398.844 608.476 399.049 608.51V607.142C398.81 607.108 398.571 607.091 398.246 607.091C396.998 607.091 396.297 607.911 395.835 609.057H395.801V607.33H394.433V616.05H395.801V611.399ZM403.537 616.289C405.691 616.289 407.247 614.819 407.367 612.835H405.93C405.862 613.878 405.298 615.092 403.537 615.092C401.468 615.092 400.75 613.331 400.75 611.69C400.75 610.048 401.468 608.287 403.537 608.287C405.281 608.287 405.862 609.518 405.93 610.476H407.367C407.161 608.527 405.691 607.091 403.537 607.091C400.989 607.091 399.314 608.954 399.314 611.69C399.314 614.425 400.989 616.289 403.537 616.289ZM414.622 610.305V616.05H415.99V609.963C415.99 607.963 414.656 607.091 413.066 607.091C411.579 607.091 410.656 607.757 410.194 608.373H410.16V603.825H408.792V616.05H410.16V610.613C410.16 609.262 411.186 608.287 412.724 608.287C414.092 608.287 414.622 609.177 414.622 610.305ZM420.319 616.289C421.772 616.289 422.764 615.708 423.328 614.767H423.362C423.448 615.844 423.909 616.135 424.662 616.135C424.901 616.135 425.106 616.101 425.328 616.05V615.092C425.226 615.109 425.174 615.109 425.123 615.109C424.781 615.109 424.679 614.767 424.679 614.083V609.895C424.679 607.757 423.208 607.074 421.584 607.074C419.02 607.074 417.959 608.356 417.874 610.031H419.31C419.396 608.766 419.874 608.27 421.533 608.27C422.969 608.27 423.345 608.869 423.345 609.553C423.345 610.407 422.661 610.578 421.174 610.852C418.917 611.262 417.447 611.809 417.447 613.81C417.447 615.28 418.558 616.289 420.319 616.289ZM418.883 613.741C418.883 612.733 419.601 612.322 421.293 611.98C422.234 611.792 423.089 611.57 423.345 611.297V612.681C423.345 614.357 422.097 615.092 420.456 615.092C419.327 615.092 418.883 614.596 418.883 613.741ZM430.124 616.289C432.346 616.289 433.629 615.246 433.629 613.605C433.629 611.673 431.868 611.228 430.312 610.869C429.098 610.596 427.987 610.493 427.987 609.484C427.987 608.783 428.517 608.287 429.748 608.287C431.372 608.287 431.714 609.159 431.851 609.826H433.287C433.15 608.322 431.987 607.091 429.731 607.091C427.73 607.091 426.551 608.065 426.551 609.536C426.551 611.348 428.346 611.758 429.867 612.1C430.945 612.339 432.193 612.459 432.193 613.656C432.193 614.323 431.799 615.092 430.124 615.092C428.329 615.092 427.713 614.203 427.645 613.143H426.209C426.26 614.938 427.611 616.289 430.124 616.289ZM435.005 616.05H436.373V607.33H435.005V616.05ZM434.869 605.637H436.51V603.996H434.869V605.637ZM444.191 610.305V616.05H445.559V609.963C445.559 607.963 444.226 607.091 442.636 607.091C441.148 607.091 440.225 607.757 439.763 608.373H439.729V607.33H438.361V616.05H439.729V610.613C439.729 609.262 440.755 608.287 442.294 608.287C443.661 608.287 444.191 609.177 444.191 610.305ZM451.119 619.178C453.564 619.178 455.12 617.947 455.12 615.468V607.33H453.752V608.407H453.718C453.205 607.74 452.384 607.091 450.948 607.091C448.794 607.091 447.05 608.476 447.05 611.348C447.05 614.22 448.794 615.605 450.948 615.605C452.384 615.605 453.205 614.99 453.718 614.237H453.752V615.605C453.752 617.281 452.812 617.982 451.119 617.982C449.563 617.982 448.914 617.315 448.743 616.426H447.307C447.443 618.05 448.692 619.178 451.119 619.178ZM448.486 611.348C448.486 609.638 449.324 608.287 451.119 608.287C452.744 608.287 453.752 609.296 453.752 611.348C453.752 613.4 452.744 614.408 451.119 614.408C449.324 614.408 448.486 613.058 448.486 611.348Z" fill="white"/>
<g filter="url(#filter0_dddddd_934_20972)">
<g clip-path="url(#clip1_934_20972)">
<rect x="55.4992" y="219" width="372" height="205.241" rx="7.8939" fill="#F5EB0A"/>
<path d="M280.669 298.721C292.12 298.721 301.098 290.402 301.098 278.128C301.098 267.584 293.602 259.346 282.894 259.346C276.551 259.346 272.267 261.323 269.384 264.618V264.454L272.762 247.237H298.05V240.647H266.748L260.817 271.291H268.725C271.608 267.584 276.057 265.936 281.164 265.936C288.495 265.936 293.355 269.561 293.355 278.128C293.355 287.271 288.166 292.131 280.34 292.131C271.444 292.131 268.478 286.695 267.819 281.176H260.076C260.405 290.319 267.654 298.721 280.669 298.721ZM326.308 298.721C338.499 298.721 346.489 292.461 346.489 281.587C346.489 274.915 343.359 269.89 335.698 267.501V267.337C341.464 265.03 344.43 261.241 344.43 255.228C344.43 245.178 335.863 239.494 326.143 239.494C312.057 239.494 305.22 247.237 305.22 257.699H312.963C312.963 252.097 315.022 246.084 326.143 246.084C333.886 246.084 336.687 250.615 336.687 255.228C336.687 261.818 332.568 264.536 326.719 264.536H320.953V271.126H327.049C332.568 271.126 338.746 273.021 338.746 281.587C338.746 288.095 335.533 292.131 325.731 292.131C314.94 292.131 311.48 286.53 311.48 278.293H303.737C303.737 291.143 311.81 298.721 326.308 298.721ZM361.185 297.568H367.775L399.489 240.647H392.899L361.185 297.568ZM348.581 255.804C348.581 264.618 352.947 272.114 362.091 272.114C371.399 272.114 375.6 264.618 375.6 255.804C375.6 246.99 371.234 239.494 362.091 239.494C352.783 239.494 348.581 246.99 348.581 255.804ZM354.595 255.804C354.595 249.379 357.066 245.013 362.091 245.013C367.116 245.013 369.587 249.379 369.587 255.804C369.587 262.229 367.116 266.595 362.091 266.595C357.066 266.595 354.595 262.229 354.595 255.804ZM385.156 282.411C385.156 291.225 389.522 298.721 398.665 298.721C407.973 298.721 412.175 291.225 412.175 282.411C412.175 273.597 407.809 266.101 398.665 266.101C389.357 266.101 385.156 273.597 385.156 282.411ZM391.169 282.411C391.169 275.986 393.64 271.62 398.665 271.62C403.69 271.62 406.161 275.986 406.161 282.411C406.161 288.836 403.69 293.202 398.665 293.202C393.64 293.202 391.169 288.836 391.169 282.411Z" fill="#253030"/>
<path d="M71.8046 245.933C73.6361 245.933 74.4283 244.965 74.4283 243.751C74.4283 242.187 73.1216 241.858 71.6914 241.519C70.7448 241.292 69.8599 241.107 69.8599 240.191C69.8599 239.492 70.3641 239.101 71.393 239.101C72.5763 239.101 73.0907 239.625 73.2245 240.613H74.1917C74.0682 239.131 73.0496 238.288 71.3827 238.288C69.7982 238.288 68.8927 239.059 68.8927 240.232C68.8927 241.652 70.1994 241.992 71.3107 242.27C72.7409 242.63 73.4611 242.753 73.4611 243.782C73.4611 244.533 73.0907 245.12 71.7634 245.12C70.2303 245.12 69.6541 244.338 69.5512 243.319H68.584C68.6869 244.965 69.9628 245.933 71.8046 245.933ZM77.0626 245.933C77.9578 245.933 78.5134 245.531 78.7912 245.161H78.8118V245.789H79.635V240.541H78.8118V243.813C78.8118 244.626 78.1945 245.212 77.2684 245.212C76.4453 245.212 76.1263 244.677 76.1263 243.998V240.541H75.3032V244.204C75.3032 245.408 76.1057 245.933 77.0626 245.933ZM83.3206 245.933C84.6377 245.933 85.6872 244.893 85.6872 243.165C85.6872 241.436 84.6377 240.397 83.3206 240.397C82.4769 240.397 81.983 240.788 81.6743 241.189H81.6538V240.541H80.8306V247.61H81.6538V245.109H81.6743C81.983 245.562 82.4769 245.933 83.3206 245.933ZM81.6538 243.165C81.6538 241.93 82.2608 241.117 83.2383 241.117C84.3187 241.117 84.8229 242.136 84.8229 243.165C84.8229 244.194 84.3187 245.212 83.2383 245.212C82.2608 245.212 81.6538 244.4 81.6538 243.165ZM89.0883 245.933C90.4053 245.933 91.4548 244.893 91.4548 243.165C91.4548 241.436 90.4053 240.397 89.0883 240.397C88.2445 240.397 87.7507 240.788 87.442 241.189H87.4214V240.541H86.5982V247.61H87.4214V245.109H87.442C87.7507 245.562 88.2445 245.933 89.0883 245.933ZM87.4214 243.165C87.4214 241.93 88.0285 241.117 89.0059 241.117C90.0863 241.117 90.5905 242.136 90.5905 243.165C90.5905 244.194 90.0863 245.212 89.0059 245.212C88.0285 245.212 87.4214 244.4 87.4214 243.165ZM92.3659 245.789H93.189V238.432H92.3659V245.789ZM94.3856 245.789H95.2087V240.541H94.3856V245.789ZM94.3032 239.522H95.291V238.535H94.3032V239.522ZM98.6792 245.943C100.027 245.943 100.768 245.151 101.035 244.173H100.202C100.109 244.544 99.7184 245.233 98.6895 245.233C97.5268 245.233 97.0123 244.307 96.9917 243.381H101.097C101.107 243.299 101.107 243.124 101.107 242.969C101.107 241.436 100.212 240.387 98.6792 240.387C97.1255 240.387 96.1274 241.477 96.1274 243.155C96.1274 244.749 97.0226 245.943 98.6792 245.943ZM96.9917 242.661C97.0432 241.745 97.7326 241.097 98.638 241.097C99.6155 241.097 100.233 241.796 100.233 242.661H96.9917ZM102.835 242.99C102.835 241.982 103.483 241.22 104.451 241.22C104.574 241.22 104.667 241.23 104.79 241.251V240.428C104.646 240.407 104.502 240.397 104.307 240.397C103.555 240.397 103.134 240.891 102.856 241.58H102.835V240.541H102.012V245.789H102.835V242.99ZM105.479 245.789H106.302V238.432H105.479V245.789ZM109.772 245.943C111.12 245.943 111.861 245.151 112.129 244.173H111.295C111.203 244.544 110.812 245.233 109.783 245.233C108.62 245.233 108.105 244.307 108.085 243.381H112.19C112.201 243.299 112.201 243.124 112.201 242.969C112.201 241.436 111.305 240.387 109.772 240.387C108.219 240.387 107.221 241.477 107.221 243.155C107.221 244.749 108.116 245.943 109.772 245.943ZM108.085 242.661C108.136 241.745 108.826 241.097 109.731 241.097C110.709 241.097 111.326 241.796 111.326 242.661H108.085ZM114.556 245.933C115.431 245.933 116.027 245.583 116.367 245.017H116.388C116.439 245.665 116.717 245.84 117.17 245.84C117.314 245.84 117.437 245.819 117.571 245.789V245.212C117.509 245.223 117.478 245.223 117.447 245.223C117.242 245.223 117.18 245.017 117.18 244.605V242.084C117.18 240.798 116.295 240.387 115.317 240.387C113.774 240.387 113.136 241.158 113.085 242.167H113.949C114 241.405 114.289 241.107 115.287 241.107C116.151 241.107 116.377 241.467 116.377 241.879C116.377 242.393 115.966 242.496 115.071 242.661C113.712 242.908 112.827 243.237 112.827 244.441C112.827 245.326 113.496 245.933 114.556 245.933ZM113.692 244.4C113.692 243.792 114.124 243.546 115.143 243.34C115.708 243.227 116.223 243.093 116.377 242.928V243.762C116.377 244.77 115.626 245.212 114.638 245.212C113.959 245.212 113.692 244.914 113.692 244.4ZM118.72 239.831V240.541H117.99V241.261H118.72V245.789H119.543V241.261H120.542V240.541H119.543V239.79C119.543 239.234 119.646 239.09 120.109 239.09C120.253 239.09 120.336 239.101 120.542 239.121V238.421C120.274 238.38 120.151 238.37 119.996 238.37C119.224 238.37 118.72 238.638 118.72 239.831ZM72.319 259.933C74.4798 259.933 75.9203 258.317 75.9203 256.105C75.9203 253.893 74.4798 252.288 72.319 252.288C70.1583 252.288 68.7178 253.893 68.7178 256.105C68.7178 258.317 70.1583 259.933 72.319 259.933ZM69.685 256.105C69.685 254.52 70.467 253.111 72.319 253.111C74.1711 253.111 74.9531 254.52 74.9531 256.105C74.9531 257.69 74.1711 259.109 72.319 259.109C70.467 259.109 69.685 257.69 69.685 256.105ZM78.2102 259.789H79.1465L81.0295 254.541H80.1446L78.7041 258.965H78.6938L77.2327 254.541H76.3273L78.2102 259.789ZM83.828 259.943C85.1759 259.943 85.9167 259.151 86.1843 258.173H85.3508C85.2582 258.544 84.8672 259.233 83.8383 259.233C82.6756 259.233 82.1612 258.307 82.1406 257.381H86.246C86.2563 257.299 86.2563 257.124 86.2563 256.969C86.2563 255.436 85.3611 254.387 83.828 254.387C82.2743 254.387 81.2763 255.477 81.2763 257.155C81.2763 258.749 82.1714 259.943 83.828 259.943ZM82.1406 256.661C82.192 255.745 82.8814 255.097 83.7869 255.097C84.7643 255.097 85.3817 255.796 85.3817 256.661H82.1406ZM87.9841 256.99C87.9841 255.982 88.6323 255.22 89.5995 255.22C89.723 255.22 89.8156 255.23 89.9391 255.251V254.428C89.795 254.407 89.651 254.397 89.4555 254.397C88.7043 254.397 88.2825 254.891 88.0047 255.58H87.9841V254.541H87.1609V259.789H87.9841V256.99ZM91.8874 259.933C92.762 259.933 93.3588 259.583 93.6983 259.017H93.7189C93.7704 259.665 94.0482 259.84 94.5009 259.84C94.645 259.84 94.7684 259.819 94.9022 259.789V259.212C94.8405 259.223 94.8096 259.223 94.7787 259.223C94.5729 259.223 94.5112 259.017 94.5112 258.605V256.084C94.5112 254.798 93.6263 254.387 92.6488 254.387C91.1054 254.387 90.4675 255.158 90.4161 256.167H91.2804C91.3318 255.405 91.6199 255.107 92.618 255.107C93.4823 255.107 93.7086 255.467 93.7086 255.879C93.7086 256.393 93.2971 256.496 92.4019 256.661C91.0437 256.908 90.1588 257.237 90.1588 258.441C90.1588 259.326 90.8276 259.933 91.8874 259.933ZM91.0231 258.4C91.0231 257.792 91.4553 257.546 92.4739 257.34C93.0398 257.227 93.5543 257.093 93.7086 256.928V257.762C93.7086 258.77 92.9575 259.212 91.9697 259.212C91.2907 259.212 91.0231 258.914 91.0231 258.4ZM95.8023 259.789H96.6255V252.432H95.8023V259.789ZM97.822 259.789H98.6452V252.432H97.822V259.789ZM104.028 259.933C105.366 259.933 106.137 259.305 106.137 258.317C106.137 257.155 105.078 256.887 104.141 256.671C103.411 256.506 102.742 256.445 102.742 255.837C102.742 255.416 103.061 255.117 103.802 255.117C104.779 255.117 104.985 255.642 105.067 256.043H105.932C105.849 255.138 105.15 254.397 103.791 254.397C102.588 254.397 101.878 254.983 101.878 255.868C101.878 256.959 102.958 257.206 103.874 257.412C104.522 257.556 105.273 257.628 105.273 258.348C105.273 258.749 105.036 259.212 104.028 259.212C102.948 259.212 102.577 258.677 102.536 258.039H101.672C101.703 259.12 102.516 259.933 104.028 259.933ZM109.219 259.933C110.516 259.933 111.452 259.048 111.524 257.854H110.66C110.619 258.482 110.279 259.212 109.219 259.212C107.974 259.212 107.542 258.153 107.542 257.165C107.542 256.177 107.974 255.117 109.219 255.117C110.269 255.117 110.619 255.858 110.66 256.434H111.524C111.401 255.261 110.516 254.397 109.219 254.397C107.686 254.397 106.678 255.519 106.678 257.165C106.678 258.811 107.686 259.933 109.219 259.933ZM114.666 259.943C116.261 259.943 117.228 258.801 117.228 257.165C117.228 255.529 116.261 254.387 114.666 254.387C113.061 254.387 112.094 255.529 112.094 257.165C112.094 258.801 113.061 259.943 114.666 259.943ZM112.958 257.165C112.958 256.043 113.483 255.107 114.666 255.107C115.839 255.107 116.364 256.043 116.364 257.165C116.364 258.286 115.839 259.223 114.666 259.223C113.483 259.223 112.958 258.286 112.958 257.165ZM118.952 256.99C118.952 255.982 119.601 255.22 120.568 255.22C120.691 255.22 120.784 255.23 120.907 255.251V254.428C120.763 254.407 120.619 254.397 120.424 254.397C119.673 254.397 119.251 254.891 118.973 255.58H118.952V254.541H118.129V259.789H118.952V256.99ZM123.629 259.943C124.977 259.943 125.717 259.151 125.985 258.173H125.152C125.059 258.544 124.668 259.233 123.639 259.233C122.476 259.233 121.962 258.307 121.941 257.381H126.047C126.057 257.299 126.057 257.124 126.057 256.969C126.057 255.436 125.162 254.387 123.629 254.387C122.075 254.387 121.077 255.477 121.077 257.155C121.077 258.749 121.972 259.943 123.629 259.943ZM121.941 256.661C121.993 255.745 122.682 255.097 123.588 255.097C124.565 255.097 125.182 255.796 125.182 256.661H121.941Z" fill="#253030"/>
<path d="M261.458 392.633L253.661 382.022L269.255 382.022L261.458 392.633Z" fill="#253030"/>
<path opacity="0.5" d="M68.3268 400.35C68.3268 397.982 70.2462 396.062 72.614 396.062H225.345V413.211H72.614C70.2462 413.211 68.3268 411.292 68.3268 408.924V400.35Z" fill="#253030"/>
<path d="M315.979 396.062H412.263C414.631 396.062 416.55 397.982 416.55 400.35V408.924C416.55 411.292 414.631 413.211 412.263 413.211H315.979V396.062Z" fill="#253030"/>
<path d="M74.2249 403.1V406.779H76.6532V406.29H74.7909V403.1H74.2249ZM78.9285 406.851C80.0295 406.851 80.7343 406.043 80.7343 404.937C80.7343 403.831 80.0295 403.028 78.9285 403.028C77.8327 403.028 77.1279 403.831 77.1279 404.937C77.1279 406.043 77.8327 406.851 78.9285 406.851ZM78.9285 406.362C78.0642 406.362 77.7144 405.693 77.7144 404.937C77.7144 404.181 78.0642 403.517 78.9285 403.517C79.7979 403.517 80.1478 404.181 80.1478 404.937C80.1478 405.693 79.7979 406.362 78.9285 406.362ZM81.292 403.1L82.2077 406.779H82.8148L83.5968 403.82H83.6071L84.3891 406.779H84.9961L85.9119 403.1H85.3254L84.6772 405.997H84.6669L83.9003 403.1H83.3035L82.537 405.997H82.5267L81.8785 403.1H81.292Z" fill="#F5EB0A"/>
<rect opacity="0.7" x="225.344" y="396.063" width="90.6336" height="17.1488" fill="#253030"/>
<path d="M232.033 406.779H232.589V403.924H232.599L233.613 406.779H234.081L235.095 403.924H235.105V406.779H235.66V403.1H234.914L233.85 405.992H233.839L232.779 403.1H232.033V406.779ZM237.314 404.633V403.589H239.351V403.1H236.748V406.779H239.402V406.29H237.314V405.122H239.099V404.633H237.314ZM240.316 406.779H241.726C242.745 406.779 243.352 406.125 243.352 404.942C243.352 403.759 242.734 403.1 241.716 403.1H240.316V406.779ZM240.882 403.589H241.69C242.544 403.589 242.765 404.232 242.765 404.942C242.765 405.652 242.544 406.29 241.69 406.29H240.882V403.589ZM244.287 403.1V406.779H244.853V403.1H244.287ZM248.796 405.529V403.1H248.225V405.529C248.225 406.1 247.942 406.362 247.356 406.362C246.769 406.362 246.486 406.1 246.486 405.529V403.1H245.915V405.529C245.915 406.321 246.342 406.851 247.356 406.851C248.369 406.851 248.796 406.321 248.796 405.529ZM249.857 406.779H250.413V403.924H250.423L251.437 406.779H251.905L252.918 403.924H252.929V406.779H253.484V403.1H252.738L251.673 405.992H251.663L250.603 403.1H249.857V406.779Z" fill="#F5EB0A"/>
<path d="M322.668 403.1V406.779H323.234V405.127H325.039V406.779H325.61V403.1H325.039V404.638H323.234V403.1H322.668ZM326.699 403.1V406.779H327.265V403.1H326.699ZM330.906 404.237H331.498C331.374 403.537 330.87 403.028 329.923 403.028C328.874 403.028 328.2 403.831 328.2 404.937C328.2 406.048 328.791 406.851 329.856 406.851C330.417 406.851 330.762 406.645 331.014 406.269H331.024L331.168 406.779H331.554V404.854H329.898V405.328H330.978C330.978 405.94 330.494 406.362 329.887 406.362C329.028 406.362 328.786 405.631 328.786 404.937C328.786 404.247 329.105 403.517 329.918 403.517C330.463 403.517 330.808 403.774 330.906 404.237ZM332.605 403.1V406.779H333.171V405.127H334.977V406.779H335.548V403.1H334.977V404.638H333.171V403.1H332.605Z" fill="#F5EB0A"/>
</g>
</g>
</g>
<defs>
<filter id="filter0_dddddd_934_20972" x="-8.89024" y="217.957" width="500.779" height="351.161" filterUnits="userSpaceOnUse" color-interpolation-filters="sRGB">
<feFlood flood-opacity="0" result="BackgroundImageFix"/>
<feColorMatrix in="SourceAlpha" type="matrix" values="0 0 0 0 0 0 0 0 0 0 0 0 0 0 0 0 0 0 127 0" result="hardAlpha"/>
<feOffset dy="1.4905"/>
<feGaussianBlur stdDeviation="1.26692"/>
<feColorMatrix type="matrix" values="0 0 0 0 0 0 0 0 0 0 0 0 0 0 0 0 0 0 0.0168519 0"/>
<feBlend mode="normal" in2="BackgroundImageFix" result="effect1_dropShadow_934_20972"/>
<feColorMatrix in="SourceAlpha" type="matrix" values="0 0 0 0 0 0 0 0 0 0 0 0 0 0 0 0 0 0 127 0" result="hardAlpha"/>
<feOffset dy="6.55819"/>
<feGaussianBlur stdDeviation="2.62327"/>
<feColorMatrix type="matrix" values="0 0 0 0 0 0 0 0 0 0 0 0 0 0 0 0 0 0 0.0274815 0"/>
<feBlend mode="normal" in2="effect1_dropShadow_934_20972" result="effect2_dropShadow_934_20972"/>
<feColorMatrix in="SourceAlpha" type="matrix" values="0 0 0 0 0 0 0 0 0 0 0 0 0 0 0 0 0 0 127 0" result="hardAlpha"/>
<feOffset dy="16.0974"/>
<feGaussianBlur stdDeviation="5.23164"/>
<feColorMatrix type="matrix" values="0 0 0 0 0 0 0 0 0 0 0 0 0 0 0 0 0 0 0.035 0"/>
<feBlend mode="normal" in2="effect2_dropShadow_934_20972" result="effect3_dropShadow_934_20972"/>
<feColorMatrix in="SourceAlpha" type="matrix" values="0 0 0 0 0 0 0 0 0 0 0 0 0 0 0 0 0 0 127 0" result="hardAlpha"/>
<feOffset dy="31.0023"/>
<feGaussianBlur stdDeviation="10.2546"/>
<feColorMatrix type="matrix" values="0 0 0 0 0 0 0 0 0 0 0 0 0 0 0 0 0 0 0.0425185 0"/>
<feBlend mode="normal" in2="effect3_dropShadow_934_20972" result="effect4_dropShadow_934_20972"/>
<feColorMatrix in="SourceAlpha" type="matrix" values="0 0 0 0 0 0 0 0 0 0 0 0 0 0 0 0 0 0 127 0" result="hardAlpha"/>
<feOffset dy="52.1674"/>
<feGaussianBlur stdDeviation="18.8548"/>
<feColorMatrix type="matrix" values="0 0 0 0 0 0 0 0 0 0 0 0 0 0 0 0 0 0 0.0531481 0"/>
<feBlend mode="normal" in2="effect4_dropShadow_934_20972" result="effect5_dropShadow_934_20972"/>
<feColorMatrix in="SourceAlpha" type="matrix" values="0 0 0 0 0 0 0 0 0 0 0 0 0 0 0 0 0 0 127 0" result="hardAlpha"/>
<feOffset dy="80.4868"/>
<feGaussianBlur stdDeviation="32.1947"/>
<feColorMatrix type="matrix" values="0 0 0 0 0 0 0 0 0 0 0 0 0 0 0 0 0 0 0.07 0"/>
<feBlend mode="normal" in2="effect5_dropShadow_934_20972" result="effect6_dropShadow_934_20972"/>
<feBlend mode="normal" in="SourceGraphic" in2="effect6_dropShadow_934_20972" result="shape"/>
</filter>
<clipPath id="clip0_934_20972">
<rect width="482.499" height="643" fill="white" transform="translate(0.499207)"/>
</clipPath>
<clipPath id="clip1_934_20972">
<rect x="55.4992" y="219" width="372" height="205.241" rx="7.8939" fill="white"/>
</clipPath>
</defs>
</svg>
