<svg width="484" height="643" viewBox="0 0 484 643" fill="none" xmlns="http://www.w3.org/2000/svg">
<g clip-path="url(#clip0_934_21054)">
<rect width="482.499" height="643" transform="translate(0.998413)" fill="#00181C"/>
<g clip-path="url(#clip1_934_21054)">
<rect x="123.998" y="55" width="733" height="594" rx="8" fill="#263336"/>
<rect x="258.273" y="508.973" width="27.254" height="92.2444" rx="13.627" fill="#F5EB0A"/>
<path d="M170.217 303.789C170.217 296.263 176.318 290.162 183.844 290.162C191.37 290.162 197.471 296.263 197.471 303.789V372.458H170.217V303.789Z" fill="#BFCFD1"/>
<rect x="170.217" y="373.837" width="27.254" height="71.2798" fill="#2196F3"/>
<rect x="170.217" y="446.495" width="27.254" height="46.4231" fill="#BFCFD1"/>
<path d="M170.217 494.297H197.471V587.59C197.471 595.116 191.37 601.217 183.844 601.217C176.318 601.217 170.217 595.116 170.217 587.59V494.297Z" fill="#BFCFD1"/>
<path d="M214.242 332.146C214.242 324.62 220.343 318.519 227.869 318.519C235.395 318.519 241.496 324.62 241.496 332.146V391.895H214.242V332.146Z" fill="white"/>
<rect x="214.242" y="393.274" width="27.254" height="90.1479" fill="#2196F3"/>
<rect x="214.242" y="484.8" width="27.254" height="23.2116" fill="white"/>
<rect x="214.242" y="509.391" width="27.254" height="46.4231" fill="white"/>
<path d="M214.242 557.193H241.496V587.592C241.496 595.118 235.395 601.219 227.869 601.219C220.343 601.219 214.242 595.118 214.242 587.592V557.193Z" fill="white"/>
<rect x="429.435" y="448.175" width="27.254" height="153.042" rx="13.627" fill="#F5EB0A"/>
<path d="M341.379 354.075C341.379 346.549 347.48 340.448 355.006 340.448C362.532 340.448 368.633 346.549 368.633 354.075V422.744H341.379V354.075Z" fill="#BFCFD1"/>
<rect x="341.379" y="424.123" width="27.254" height="62.8939" fill="#BFCFD1"/>
<rect x="341.379" y="488.396" width="27.254" height="50.6434" fill="#BFCFD1"/>
<path d="M341.379 540.418H368.633V587.588C368.633 595.114 362.532 601.215 355.006 601.215C347.48 601.215 341.379 595.114 341.379 587.588V540.418Z" fill="#BFCFD1"/>
<path d="M385.404 362.667C385.404 355.141 391.505 349.04 399.031 349.04C406.557 349.04 412.658 355.141 412.658 362.667V403.904H385.404V362.667Z" fill="white"/>
<rect x="385.404" y="405.283" width="27.254" height="94.3409" fill="white"/>
<rect x="385.404" y="501.002" width="27.254" height="46.4231" fill="white"/>
<path d="M385.404 548.804H412.658V587.589C412.658 595.115 406.557 601.216 399.031 601.216C391.505 601.216 385.404 595.115 385.404 587.589V548.804Z" fill="white"/>
<path d="M172.529 132H175.606V107.551H172.529V132ZM190.223 120.511V132H192.959V121.126C192.959 118.425 194.669 116.476 197.404 116.476C200.14 116.476 200.584 118.254 200.584 120.511V132H203.32V119.827C203.32 116.168 201.61 114.082 198.088 114.082C195.455 114.082 193.643 115.45 192.446 117.091H192.378C191.659 115.142 190.223 114.082 187.727 114.082C185.094 114.082 183.59 115.416 182.666 116.647H182.598V114.561H179.862V132H182.598V121.126C182.598 118.425 184.308 116.476 187.043 116.476C189.779 116.476 190.223 118.254 190.223 120.511ZM215.419 132.479C219.796 132.479 223.284 129.025 223.284 123.28C223.284 117.536 219.796 114.082 215.419 114.082C212.615 114.082 210.974 115.382 209.948 116.715H209.88V114.561H207.144V138.052H209.88V129.743H209.948C210.974 131.248 212.615 132.479 215.419 132.479ZM209.88 123.28C209.88 119.177 211.897 116.476 215.146 116.476C218.736 116.476 220.412 119.861 220.412 123.28C220.412 126.7 218.736 130.085 215.146 130.085C211.897 130.085 209.88 127.384 209.88 123.28ZM231.133 132.479C234.04 132.479 236.023 131.316 237.152 129.435H237.22C237.391 131.59 238.314 132.171 239.819 132.171C240.297 132.171 240.708 132.103 241.152 132V130.085C240.947 130.119 240.844 130.119 240.742 130.119C240.058 130.119 239.853 129.435 239.853 128.068V119.69C239.853 115.416 236.912 114.048 233.664 114.048C228.535 114.048 226.414 116.613 226.244 119.964H229.116C229.287 117.433 230.244 116.442 233.561 116.442C236.433 116.442 237.186 117.638 237.186 119.006C237.186 120.716 235.818 121.058 232.843 121.605C228.329 122.426 225.389 123.52 225.389 127.521C225.389 130.461 227.611 132.479 231.133 132.479ZM228.261 127.384C228.261 125.366 229.697 124.546 233.082 123.862C234.963 123.486 236.673 123.041 237.186 122.494V125.264C237.186 128.615 234.69 130.085 231.407 130.085C229.15 130.085 228.261 129.093 228.261 127.384ZM251.465 132.479C255.774 132.479 258.885 129.538 259.125 125.571H256.253C256.116 127.657 254.987 130.085 251.465 130.085C247.328 130.085 245.892 126.563 245.892 123.28C245.892 119.998 247.328 116.476 251.465 116.476C254.953 116.476 256.116 118.938 256.253 120.853H259.125C258.714 116.954 255.774 114.082 251.465 114.082C246.37 114.082 243.019 117.809 243.019 123.28C243.019 128.752 246.37 132.479 251.465 132.479ZM267.245 132.171C267.86 132.171 268.27 132.137 269.057 132V129.675C268.476 129.743 268.202 129.777 267.621 129.777C266.082 129.777 265.638 129.299 265.638 127.452V116.954H269.057V114.561H265.638V108.748H262.902V114.561H260.337V116.954H262.902V127.315C262.902 131.282 264.68 132.171 267.245 132.171Z" fill="white"/>
</g>
<g filter="url(#filter0_dddddd_934_21054)">
<rect x="55.9984" y="167" width="451" height="146" rx="8" fill="#515C5E"/>
<path d="M214.424 213.696C213.316 213.453 212.419 213.242 212.419 212.229C212.419 211.448 213.021 210.995 214.128 210.995C215.405 210.995 215.985 211.586 216.112 212.63H216.914C216.798 211.153 215.764 210.32 214.118 210.32C212.578 210.32 211.618 211.058 211.618 212.261C211.618 213.643 212.81 214.023 214.044 214.307C215.584 214.656 216.376 214.846 216.365 215.964C216.365 216.797 215.89 217.462 214.498 217.462C212.926 217.462 212.208 216.671 212.103 215.5H211.301C211.407 217.198 212.704 218.137 214.529 218.137C216.323 218.137 217.167 217.167 217.167 215.943C217.167 214.413 215.964 214.033 214.424 213.696ZM218.884 218H219.654V214.814H221.785C223.167 214.814 224.212 214.213 224.212 212.63C224.212 211.048 223.167 210.457 221.785 210.457H218.884V218ZM219.654 214.139V211.132H221.859C222.872 211.132 223.41 211.607 223.41 212.63C223.41 213.664 222.872 214.139 221.859 214.139H219.654ZM226.62 213.727V211.132H230.966V210.457H225.85V218H231.082V217.325H226.62V214.402H230.492V213.727H226.62ZM232.723 218H233.493V211.543H233.514L237.586 218H238.525V210.457H237.765V216.913H237.744L233.661 210.457H232.723L232.723 218ZM240.585 218H243.285C245.395 218 246.587 216.576 246.587 214.244C246.587 211.913 245.416 210.457 243.306 210.457H240.585L240.585 218ZM241.355 211.132H243.306C245.195 211.132 245.786 212.567 245.786 214.244C245.786 215.911 245.174 217.325 243.285 217.325L241.355 217.325V211.132Z" fill="white" fill-opacity="0.82"/>
<path d="M221.776 268.3H223.904V264.553C230.332 264.341 233.482 260.765 233.482 256.38C233.482 251.101 230.119 249.483 223.904 247.781V237.138C227.395 237.606 229.311 239.692 229.694 243.226H232.631C232.29 238.032 228.842 235.01 223.904 234.456V231.221H221.776V234.371C216.071 234.541 212.538 237.564 212.538 242.204C212.538 247.1 217.221 248.93 221.776 249.952V261.871C216.88 261.403 214.581 258.551 214.198 254.379H211.261C211.644 260.467 215.943 263.957 221.776 264.468V268.3ZM215.475 241.949C215.475 239.011 217.859 237.138 221.776 237.01V247.227C218.072 246.206 215.475 245.056 215.475 241.949ZM223.904 261.957V250.463C228.715 251.74 230.588 253.102 230.503 256.508C230.46 259.573 228.672 261.786 223.904 261.957ZM241.144 240.799V264H244.21V234.584H241.74C241.4 238.16 240.165 239.777 235.014 239.905V242.502C237.654 242.502 239.74 242.289 241.144 240.799ZM262.668 264H265.733V256.848H269.905V254.124H265.733V234.584H262.668L248.279 254.124V256.848H262.668V264ZM251.472 254.124L262.668 238.969V254.124H251.472ZM286.105 264H289.17V256.848H293.342V254.124H289.17V234.584H286.105L271.716 254.124V256.848H286.105V264ZM274.909 254.124L286.105 238.969V254.124H274.909ZM296.643 264H299.41V255.486L303.156 251.995L311.372 264H314.65L305.029 250.25L313.586 242.289H310.18L299.41 252.506V233.562H296.643V264Z" fill="white"/>
<path d="M357.197 218.137C359.37 218.137 360.826 216.491 360.826 214.223C360.826 211.955 359.37 210.32 357.197 210.32C355.023 210.32 353.578 211.955 353.578 214.223C353.578 216.491 355.023 218.137 357.197 218.137ZM357.197 217.462C355.34 217.462 354.38 216.006 354.38 214.223C354.38 212.44 355.34 210.995 357.197 210.995C359.064 210.995 360.024 212.44 360.024 214.223C360.024 216.006 359.064 217.462 357.197 217.462ZM363.328 213.801V211.132H367.601V210.457H362.558V218H363.328V214.476H366.842V213.801H363.328ZM369.975 213.801V211.132H374.247V210.457H369.205V218H369.975V214.476H373.488V213.801H369.975ZM378.387 213.696C377.28 213.453 376.383 213.242 376.383 212.229C376.383 211.448 376.984 210.995 378.092 210.995C379.368 210.995 379.949 211.586 380.075 212.63H380.877C380.761 211.153 379.727 210.32 378.081 210.32C376.541 210.32 375.581 211.058 375.581 212.261C375.581 213.643 376.773 214.023 378.007 214.307C379.548 214.656 380.339 214.846 380.328 215.964C380.328 216.797 379.854 217.462 378.461 217.462C376.889 217.462 376.172 216.671 376.066 215.5H375.264C375.37 217.198 376.668 218.137 378.493 218.137C380.286 218.137 381.13 217.167 381.13 215.943C381.13 214.413 379.928 214.033 378.387 213.696ZM383.618 213.727V211.132H387.964V210.457H382.847V218H388.08V217.325L383.618 217.325V214.402H387.489V213.727H383.618ZM391.809 218H392.569V211.132H395.132V210.457H389.235V211.132H391.809V218ZM399.037 213.696C397.929 213.453 397.032 213.242 397.032 212.229C397.032 211.448 397.634 210.995 398.742 210.995C400.018 210.995 400.598 211.586 400.725 212.63H401.527C401.411 211.153 400.377 210.32 398.731 210.32C397.191 210.32 396.231 211.058 396.231 212.261C396.231 213.643 397.423 214.023 398.657 214.307C400.197 214.656 400.989 214.846 400.978 215.964C400.978 216.797 400.503 217.462 399.111 217.462C397.539 217.462 396.821 216.671 396.716 215.5H395.914C396.02 217.198 397.317 218.137 399.142 218.137C400.936 218.137 401.78 217.167 401.78 215.943C401.78 214.413 400.577 214.033 399.037 213.696Z" fill="white" fill-opacity="0.82"/>
<path d="M364.359 264.553C371.468 264.553 375.385 258.806 375.385 248.93C375.385 239.692 372.234 234.03 364.614 234.03C358.356 234.03 354.61 238.5 354.61 244.034C354.61 249.781 358.442 253.698 364.061 253.698C367.552 253.698 370.872 251.995 372.234 248.462L372.319 248.504V249.356C372.319 256.167 370.446 261.829 364.359 261.829C360.953 261.829 358.995 259.828 358.612 256.678H355.419C355.802 261.105 359.25 264.553 364.359 264.553ZM357.846 243.864C357.846 239.607 360.229 236.755 364.614 236.755C369.169 236.755 371.638 239.777 371.638 243.566C371.638 248.249 368.403 250.931 364.316 250.931C360.4 250.931 357.846 248.292 357.846 243.864ZM389.862 264.553C396.12 264.553 399.866 260.084 399.866 254.549C399.866 248.802 396.035 244.886 390.415 244.886C386.967 244.886 383.604 246.589 382.242 250.122L382.199 250.079V249.228C382.199 242.417 384.03 236.755 390.117 236.755C393.523 236.755 395.524 238.713 395.864 241.906H399.057C398.674 237.479 395.226 234.03 390.117 234.03C383.008 234.03 379.092 239.777 379.092 249.654C379.092 258.892 382.284 264.553 389.862 264.553ZM382.838 255.018C382.838 250.335 386.073 247.61 390.16 247.61C394.119 247.61 396.631 250.292 396.631 254.72C396.631 258.977 394.247 261.829 389.862 261.829C385.307 261.829 382.838 258.806 382.838 255.018ZM405.923 264H409.159C409.159 255.018 413.458 243.311 421.291 236.968V234.584H401.283V237.308H417.758V237.393C411.159 243.013 405.923 254.677 405.923 264Z" fill="white"/>
<path d="M85.4274 218H86.1975V211.543H86.2186L88.6979 218H89.3942L91.884 211.543H91.9051V218H92.6752V210.457H91.6097L89.0566 216.966H89.0355L86.4929 210.457H85.4274V218ZM96.827 218H97.5866V211.132H100.161V210.457H94.2634V211.132H96.827V218ZM107.447 218.137C109.241 218.137 110.412 216.966 110.591 215.32H109.79C109.705 216.365 109.04 217.462 107.447 217.462C105.633 217.462 104.789 215.922 104.789 214.234C104.789 212.546 105.622 210.995 107.447 210.995C108.988 210.995 109.61 212.018 109.758 212.862H110.56C110.37 211.448 109.22 210.32 107.458 210.32C105.39 210.32 103.987 211.955 103.987 214.234C103.987 216.523 105.401 218.137 107.447 218.137ZM115.602 218.137C117.775 218.137 119.221 216.491 119.221 214.223C119.221 211.955 117.775 210.32 115.602 210.32C113.418 210.32 111.973 211.955 111.973 214.223C111.973 216.491 113.418 218.137 115.602 218.137ZM112.774 214.223C112.774 212.44 113.735 210.995 115.602 210.995C117.459 210.995 118.419 212.44 118.419 214.223C118.419 216.006 117.459 217.462 115.602 217.462C113.735 217.462 112.774 216.006 112.774 214.223ZM120.595 218H125.532V217.325H121.513V217.304C121.65 216.333 122.568 215.837 123.454 215.331C124.519 214.729 125.606 214.096 125.606 212.714C125.606 211.353 124.593 210.573 123.348 210.573C121.629 210.573 120.806 211.754 120.806 213.168H121.597C121.597 212.134 122.072 211.248 123.338 211.248C124.456 211.248 124.804 212.008 124.804 212.725C124.804 213.833 124.076 214.149 122.747 214.909C121.428 215.647 120.595 216.65 120.595 218ZM129.599 218.148C130.95 218.148 131.688 217.335 131.952 216.354H131.256C131.15 216.797 130.717 217.557 129.61 217.557C128.344 217.557 127.763 216.534 127.753 215.447H132.015C132.026 215.362 132.026 215.215 132.026 215.067C132.026 213.569 131.15 212.482 129.599 212.482C128.048 212.482 127.036 213.59 127.036 215.31C127.036 216.945 127.953 218.148 129.599 218.148ZM127.753 214.846C127.806 213.843 128.523 213.073 129.568 213.073C130.675 213.073 131.298 213.885 131.298 214.846H127.753Z" fill="white" fill-opacity="0.82"/>
<path d="M97.2102 264.553C93.6342 264.553 90.853 263.645 88.8663 261.829C86.8797 259.984 85.8864 257.43 85.8864 254.166H89.1218C89.1218 256.55 89.7603 258.423 91.0374 259.786C92.3146 261.148 94.3012 261.829 96.9973 261.829C101.765 261.829 104.149 259.842 104.149 255.869C104.149 253.826 103.511 252.336 102.233 251.399C100.985 250.463 99.4806 249.994 97.721 249.994H94.5708V247.27H97.5507C99.1968 247.27 100.516 246.816 101.51 245.908C102.531 244.999 103.042 243.694 103.042 241.991C103.042 240.515 102.546 239.281 101.552 238.287C100.587 237.266 99.1258 236.755 97.1676 236.755C94.4715 236.755 92.5842 237.379 91.5057 238.628C90.4556 239.848 89.9306 241.395 89.9306 243.268H86.6953C86.6953 240.515 87.5892 238.287 89.3772 236.585C91.1935 234.882 93.7903 234.03 97.1676 234.03C98.7853 234.03 100.289 234.357 101.68 235.01C103.071 235.634 104.178 236.556 105.001 237.777C105.852 238.969 106.278 240.373 106.278 241.991C106.278 243.58 105.895 244.9 105.128 245.95C104.362 246.972 103.213 247.795 101.68 248.419V248.504C103.61 249.1 105.043 250.037 105.98 251.314C106.916 252.563 107.384 254.081 107.384 255.869C107.384 258.594 106.462 260.722 104.617 262.255C102.773 263.787 100.304 264.553 97.2102 264.553ZM110.916 267.32C111.597 267.065 112.066 266.696 112.321 266.214C112.576 265.76 112.69 265.022 112.662 264H110.916V260.424H114.492V264C114.492 265.305 114.237 266.384 113.726 267.235C113.215 268.087 112.278 268.725 110.916 269.151V267.32ZM120.741 240.799C120.088 241.48 119.279 241.934 118.314 242.161C117.35 242.388 116.115 242.502 114.611 242.502V239.905C116.314 239.877 117.619 239.678 118.527 239.309C119.464 238.912 120.131 238.344 120.528 237.606C120.954 236.868 121.223 235.861 121.337 234.584H123.806V264H120.741V240.799ZM131.792 264C131.792 260.935 132.317 257.7 133.367 254.294C134.417 250.86 135.85 247.653 137.667 244.673C139.483 241.665 141.47 239.238 143.627 237.393V237.308H127.152V234.584H147.16V236.968C144.634 239.011 142.449 241.565 140.604 244.63C138.788 247.696 137.397 250.931 136.432 254.337C135.496 257.714 135.027 260.935 135.027 264H131.792ZM159.424 256.848H145.035V254.124L159.424 234.584H162.489V254.124H166.661V256.848H162.489V264H159.424V256.848ZM159.424 254.124V238.969L148.228 254.124H159.424Z" fill="white"/>
</g>
</g>
<defs>
<filter id="filter0_dddddd_934_21054" x="-24.0016" y="165.704" width="611" height="327.296" filterUnits="userSpaceOnUse" color-interpolation-filters="sRGB">
<feFlood flood-opacity="0" result="BackgroundImageFix"/>
<feColorMatrix in="SourceAlpha" type="matrix" values="0 0 0 0 0 0 0 0 0 0 0 0 0 0 0 0 0 0 127 0" result="hardAlpha"/>
<feOffset dy="1.85185"/>
<feGaussianBlur stdDeviation="1.57407"/>
<feColorMatrix type="matrix" values="0 0 0 0 0 0 0 0 0 0 0 0 0 0 0 0 0 0 0.0168519 0"/>
<feBlend mode="normal" in2="BackgroundImageFix" result="effect1_dropShadow_934_21054"/>
<feColorMatrix in="SourceAlpha" type="matrix" values="0 0 0 0 0 0 0 0 0 0 0 0 0 0 0 0 0 0 127 0" result="hardAlpha"/>
<feOffset dy="8.14815"/>
<feGaussianBlur stdDeviation="3.25926"/>
<feColorMatrix type="matrix" values="0 0 0 0 0 0 0 0 0 0 0 0 0 0 0 0 0 0 0.0274815 0"/>
<feBlend mode="normal" in2="effect1_dropShadow_934_21054" result="effect2_dropShadow_934_21054"/>
<feColorMatrix in="SourceAlpha" type="matrix" values="0 0 0 0 0 0 0 0 0 0 0 0 0 0 0 0 0 0 127 0" result="hardAlpha"/>
<feOffset dy="20"/>
<feGaussianBlur stdDeviation="6.5"/>
<feColorMatrix type="matrix" values="0 0 0 0 0 0 0 0 0 0 0 0 0 0 0 0 0 0 0.035 0"/>
<feBlend mode="normal" in2="effect2_dropShadow_934_21054" result="effect3_dropShadow_934_21054"/>
<feColorMatrix in="SourceAlpha" type="matrix" values="0 0 0 0 0 0 0 0 0 0 0 0 0 0 0 0 0 0 127 0" result="hardAlpha"/>
<feOffset dy="38.5185"/>
<feGaussianBlur stdDeviation="12.7407"/>
<feColorMatrix type="matrix" values="0 0 0 0 0 0 0 0 0 0 0 0 0 0 0 0 0 0 0.0425185 0"/>
<feBlend mode="normal" in2="effect3_dropShadow_934_21054" result="effect4_dropShadow_934_21054"/>
<feColorMatrix in="SourceAlpha" type="matrix" values="0 0 0 0 0 0 0 0 0 0 0 0 0 0 0 0 0 0 127 0" result="hardAlpha"/>
<feOffset dy="64.8148"/>
<feGaussianBlur stdDeviation="23.4259"/>
<feColorMatrix type="matrix" values="0 0 0 0 0 0 0 0 0 0 0 0 0 0 0 0 0 0 0.0531481 0"/>
<feBlend mode="normal" in2="effect4_dropShadow_934_21054" result="effect5_dropShadow_934_21054"/>
<feColorMatrix in="SourceAlpha" type="matrix" values="0 0 0 0 0 0 0 0 0 0 0 0 0 0 0 0 0 0 127 0" result="hardAlpha"/>
<feOffset dy="100"/>
<feGaussianBlur stdDeviation="40"/>
<feColorMatrix type="matrix" values="0 0 0 0 0 0 0 0 0 0 0 0 0 0 0 0 0 0 0.07 0"/>
<feBlend mode="normal" in2="effect5_dropShadow_934_21054" result="effect6_dropShadow_934_21054"/>
<feBlend mode="normal" in="SourceGraphic" in2="effect6_dropShadow_934_21054" result="shape"/>
</filter>
<clipPath id="clip0_934_21054">
<rect width="482.499" height="643" fill="white" transform="translate(0.998413)"/>
</clipPath>
<clipPath id="clip1_934_21054">
<rect x="123.998" y="55" width="733" height="594" rx="8" fill="white"/>
</clipPath>
</defs>
</svg>
