<svg width="483" height="643" viewBox="0 0 483 643" fill="none" xmlns="http://www.w3.org/2000/svg">
<g clip-path="url(#clip0_934_20946)">
<rect width="482.499" height="643" fill="#00181C"/>
<rect x="39" y="220" width="403.557" height="203.273" rx="9.96437" fill="#263336"/>
<path d="M63.6285 255.885H65.7808V250.803H65.8047L68.794 255.885H70.9463V247.336H68.794V252.418H68.7701L65.7808 247.336H63.6285V255.885ZM75.535 250.612V249.094H79.8635V247.336H73.3827V255.885H79.9353V254.128H75.535V252.37H79.2657V250.612H75.535ZM84.1192 255.885H86.2715V249.094H88.7467V247.336H81.6321V249.094H84.1192V255.885ZM96.1683 250.612V249.094H100.497V247.336H94.016V255.885H100.569V254.128H96.1683V252.37H99.8989V250.612H96.1683ZM102.696 255.885H104.729V250.564H104.752L106.343 255.885H107.849L109.44 250.564H109.464V255.885H111.496V247.336H108.866L107.108 252.788H107.084L105.326 247.336H102.696V255.885ZM113.933 247.336V255.885H116.085V247.336H113.933ZM122.018 250.672C120.93 250.349 120.451 250.158 120.451 249.584C120.451 249.094 120.906 248.878 121.551 248.878C122.376 248.878 122.903 249.273 122.998 249.931H125.174C125.115 248.197 123.548 247.145 121.551 247.145C119.71 247.145 118.251 247.874 118.251 249.739C118.251 251.27 119.567 251.868 121.061 252.298C122.245 252.657 123.094 252.848 123.094 253.578C123.094 254.02 122.687 254.343 121.886 254.343C120.918 254.343 120.164 253.972 120.164 252.98H117.988C117.988 254.941 119.674 256.077 121.91 256.077C124.05 256.077 125.294 255.012 125.294 253.374C125.294 251.605 123.632 251.15 122.018 250.672ZM130.873 250.672C129.785 250.349 129.306 250.158 129.306 249.584C129.306 249.094 129.761 248.878 130.406 248.878C131.232 248.878 131.758 249.273 131.853 249.931H134.03C133.97 248.197 132.403 247.145 130.406 247.145C128.565 247.145 127.106 247.874 127.106 249.739C127.106 251.27 128.422 251.868 129.916 252.298C131.1 252.657 131.949 252.848 131.949 253.578C131.949 254.02 131.542 254.343 130.741 254.343C129.773 254.343 129.019 253.972 129.019 252.98H126.843C126.843 254.941 128.529 256.077 130.765 256.077C132.906 256.077 134.149 255.012 134.149 253.374C134.149 251.605 132.487 251.15 130.873 250.672ZM136.108 247.336V255.885H138.26V247.336H136.108ZM144.563 256.077C147.253 256.077 148.796 254.187 148.796 251.605C148.796 249.034 147.253 247.145 144.563 247.145C141.849 247.145 140.33 249.034 140.33 251.605C140.33 254.187 141.849 256.077 144.563 256.077ZM144.563 254.319C142.997 254.319 142.53 253.099 142.53 251.605C142.53 250.122 142.997 248.902 144.563 248.902C146.118 248.902 146.596 250.122 146.596 251.605C146.596 253.099 146.118 254.319 144.563 254.319ZM150.863 255.885H153.016V250.803H153.04L156.029 255.885H158.181V247.336H156.029V252.418H156.005L153.016 247.336H150.863V255.885ZM164.121 250.672C163.033 250.349 162.555 250.158 162.555 249.584C162.555 249.094 163.009 248.878 163.655 248.878C164.48 248.878 165.006 249.273 165.102 249.931H167.278C167.218 248.197 165.652 247.145 163.655 247.145C161.813 247.145 160.355 247.874 160.355 249.739C160.355 251.27 161.67 251.868 163.165 252.298C164.348 252.657 165.197 252.848 165.197 253.578C165.197 254.02 164.791 254.343 163.99 254.343C163.021 254.343 162.268 253.972 162.268 252.98H160.092C160.092 254.941 161.778 256.077 164.014 256.077C166.154 256.077 167.397 255.012 167.397 253.374C167.397 251.605 165.735 251.15 164.121 250.672Z" fill="white"/>
<line x1="62.9111" y1="296.228" x2="418.639" y2="296.228" stroke="#515C5E" stroke-width="0.996437"/>
<path d="M66.5102 280.827H67.5146V271.746H70.9184V270.853H63.1203V271.746H66.5102V280.827ZM73.2463 281.023C75.3806 281.023 76.664 279.488 76.664 277.284C76.664 275.066 75.3806 273.531 73.2463 273.531C71.1119 273.531 69.8285 275.066 69.8285 277.284C69.8285 279.488 71.1119 281.023 73.2463 281.023ZM70.7771 277.284C70.7771 275.638 71.5862 274.326 73.2463 274.326C74.9063 274.326 75.7154 275.638 75.7154 277.284C75.7154 278.916 74.9063 280.227 73.2463 280.227C71.5862 280.227 70.7771 278.916 70.7771 277.284ZM79.8854 280.883C80.1086 280.883 80.276 280.869 80.555 280.827V280.06C80.3458 280.074 80.2342 280.088 80.011 280.088C79.3135 280.088 79.1182 279.879 79.1182 279V274.508H80.555V273.713H79.1182V271.341H78.2114V273.713H77.1652V274.508H78.2114V278.986C78.2114 280.534 78.8531 280.883 79.8854 280.883ZM83.6837 281.009C84.8415 281.009 85.6925 280.562 86.1807 279.753H86.2086C86.2644 280.646 86.6132 280.883 87.2131 280.883C87.3805 280.883 87.5339 280.855 87.6874 280.827V280.172C87.6037 280.186 87.5479 280.186 87.4921 280.186C87.1712 280.186 87.0875 279.92 87.0875 279.348V275.791C87.0875 274.089 85.9296 273.531 84.6183 273.531C82.5537 273.531 81.7586 274.605 81.6888 275.861H82.6514C82.7211 274.815 83.2094 274.326 84.5904 274.326C85.7343 274.326 86.2086 274.815 86.2086 275.54C86.2086 276.391 85.4553 276.475 84.2835 276.684C82.4421 277.005 81.354 277.493 81.354 279.028C81.354 280.213 82.2608 281.009 83.6837 281.009ZM82.3026 278.944C82.3026 278.037 83.0141 277.688 84.3951 277.437C85.2461 277.298 85.9994 277.13 86.2086 276.837V278.163C86.2086 279.446 85.2461 280.213 83.7953 280.213C82.763 280.213 82.3026 279.767 82.3026 278.944ZM88.8964 280.827H89.8032V270.853H88.8964V280.827ZM97.536 281.023C99.3217 281.023 100.298 279.948 100.647 278.651H99.7262C99.5867 279.237 99.0148 280.241 97.55 280.241C95.876 280.241 95.1087 278.888 95.0948 277.451H100.731C100.745 277.34 100.745 277.144 100.745 276.949C100.745 274.968 99.5867 273.531 97.536 273.531C95.4854 273.531 94.1462 274.996 94.1462 277.27C94.1462 279.432 95.3598 281.023 97.536 281.023ZM95.0948 276.656C95.1645 275.331 96.1131 274.313 97.4942 274.313C98.959 274.313 99.782 275.387 99.782 276.656H95.0948ZM106.312 276.028V280.827H107.219V276.335C107.219 275.303 107.958 274.34 109.214 274.34C110.386 274.34 110.595 275.136 110.595 276.028V280.827H111.502V275.833C111.502 274.354 110.762 273.545 109.409 273.545C108.279 273.545 107.512 274.145 107.052 274.857H107.024C106.759 274.006 106.117 273.545 105.112 273.545C103.996 273.545 103.327 274.145 102.95 274.717H102.922V273.713H102.016V280.827H102.922V276.335C102.922 275.303 103.676 274.34 104.917 274.34C106.103 274.34 106.312 275.136 106.312 276.028ZM113.118 280.827H114.025V273.713H113.118V280.827ZM112.979 272.29H114.151V271.118H112.979V272.29ZM118.316 281.009C120.074 281.009 121.106 280.158 121.106 278.86C121.106 277.382 119.781 277.005 118.441 276.684C117.367 276.419 116.405 276.293 116.405 275.401C116.405 274.731 116.977 274.34 117.995 274.34C119.376 274.34 119.753 275.08 119.878 275.708H120.827C120.701 274.536 119.836 273.545 117.981 273.545C116.377 273.545 115.456 274.299 115.456 275.456C115.456 276.837 116.781 277.158 118.093 277.493C119.083 277.73 120.143 277.842 120.143 278.888C120.143 279.586 119.683 280.213 118.33 280.213C116.837 280.213 116.195 279.474 116.14 278.498H115.191C115.233 279.92 116.321 281.009 118.316 281.009ZM124.896 281.009C126.654 281.009 127.686 280.158 127.686 278.86C127.686 277.382 126.361 277.005 125.021 276.684C123.947 276.419 122.985 276.293 122.985 275.401C122.985 274.731 123.557 274.34 124.575 274.34C125.956 274.34 126.333 275.08 126.458 275.708H127.407C127.281 274.536 126.416 273.545 124.561 273.545C122.957 273.545 122.036 274.299 122.036 275.456C122.036 276.837 123.361 277.158 124.673 277.493C125.663 277.73 126.723 277.842 126.723 278.888C126.723 279.586 126.263 280.213 124.91 280.213C123.417 280.213 122.775 279.474 122.72 278.498H121.771C121.813 279.92 122.901 281.009 124.896 281.009ZM128.853 280.827H129.76V273.713H128.853V280.827ZM128.714 272.29H129.885V271.118H128.714V272.29ZM134.455 281.023C136.59 281.023 137.873 279.488 137.873 277.284C137.873 275.066 136.59 273.531 134.455 273.531C132.321 273.531 131.037 275.066 131.037 277.284C131.037 279.488 132.321 281.023 134.455 281.023ZM131.986 277.284C131.986 275.638 132.795 274.326 134.455 274.326C136.115 274.326 136.924 275.638 136.924 277.284C136.924 278.916 136.115 280.227 134.455 280.227C132.795 280.227 131.986 278.916 131.986 277.284ZM143.951 276.028V280.827H144.858V275.833C144.858 274.257 143.798 273.545 142.528 273.545C141.259 273.545 140.492 274.145 140.087 274.731H140.059V273.713H139.152V280.827H140.059V276.335C140.059 275.289 140.952 274.34 142.305 274.34C143.533 274.34 143.951 275.122 143.951 276.028ZM149.104 281.009C150.862 281.009 151.894 280.158 151.894 278.86C151.894 277.382 150.569 277.005 149.23 276.684C148.156 276.419 147.193 276.293 147.193 275.401C147.193 274.731 147.765 274.34 148.783 274.34C150.164 274.34 150.541 275.08 150.667 275.708H151.615C151.49 274.536 150.625 273.545 148.769 273.545C147.165 273.545 146.244 274.299 146.244 275.456C146.244 276.837 147.57 277.158 148.881 277.493C149.871 277.73 150.932 277.842 150.932 278.888C150.932 279.586 150.471 280.213 149.118 280.213C147.625 280.213 146.984 279.474 146.928 278.498H145.979C146.021 279.92 147.109 281.009 149.104 281.009ZM152.908 281.915V282.515C153.857 282.222 154.08 281.608 154.08 280.827V279.655H152.908V280.827H153.48C153.494 281.497 153.355 281.748 152.908 281.915ZM158.279 280.827H159.186V270.853H158.279V280.827ZM163.867 281.023C165.653 281.023 166.629 279.948 166.978 278.651H166.057C165.918 279.237 165.346 280.241 163.881 280.241C162.207 280.241 161.44 278.888 161.426 277.451H167.062C167.076 277.34 167.076 277.144 167.076 276.949C167.076 274.968 165.918 273.531 163.867 273.531C161.817 273.531 160.477 274.996 160.477 277.27C160.477 279.432 161.691 281.023 163.867 281.023ZM161.426 276.656C161.496 275.331 162.444 274.313 163.825 274.313C165.29 274.313 166.113 275.387 166.113 276.656H161.426ZM170.969 281.009C172.727 281.009 173.759 280.158 173.759 278.86C173.759 277.382 172.434 277.005 171.095 276.684C170.021 276.419 169.058 276.293 169.058 275.401C169.058 274.731 169.63 274.34 170.649 274.34C172.03 274.34 172.406 275.08 172.532 275.708H173.48C173.355 274.536 172.49 273.545 170.635 273.545C169.03 273.545 168.11 274.299 168.11 275.456C168.11 276.837 169.435 277.158 170.746 277.493C171.737 277.73 172.797 277.842 172.797 278.888C172.797 279.586 172.336 280.213 170.983 280.213C169.491 280.213 168.849 279.474 168.793 278.498H167.845C167.886 279.92 168.975 281.009 170.969 281.009ZM177.549 281.009C179.307 281.009 180.339 280.158 180.339 278.86C180.339 277.382 179.014 277.005 177.675 276.684C176.601 276.419 175.638 276.293 175.638 275.401C175.638 274.731 176.21 274.34 177.229 274.34C178.61 274.34 178.986 275.08 179.112 275.708H180.06C179.935 274.536 179.07 273.545 177.215 273.545C175.61 273.545 174.69 274.299 174.69 275.456C174.69 276.837 176.015 277.158 177.326 277.493C178.317 277.73 179.377 277.842 179.377 278.888C179.377 279.586 178.916 280.213 177.563 280.213C176.071 280.213 175.429 279.474 175.373 278.498H174.425C174.466 279.92 175.554 281.009 177.549 281.009ZM187.585 281.023C189.72 281.023 191.003 279.488 191.003 277.284C191.003 275.066 189.72 273.531 187.585 273.531C185.451 273.531 184.168 275.066 184.168 277.284C184.168 279.488 185.451 281.023 187.585 281.023ZM185.116 277.284C185.116 275.638 185.925 274.326 187.585 274.326C189.246 274.326 190.055 275.638 190.055 277.284C190.055 278.916 189.246 280.227 187.585 280.227C185.925 280.227 185.116 278.916 185.116 277.284ZM192.552 272.666V273.713H191.547V274.508H192.552V280.827H193.458V274.508H194.867V273.713H193.458V272.652C193.458 271.774 193.626 271.564 194.309 271.564C194.505 271.564 194.616 271.578 194.867 271.592V270.825C194.546 270.783 194.379 270.769 194.184 270.769C193.165 270.769 192.552 271.118 192.552 272.666ZM196.203 272.666V273.713H195.198V274.508H196.203V280.827H197.109V274.508H198.518V273.713H197.109V272.652C197.109 271.774 197.277 271.564 197.96 271.564C198.156 271.564 198.267 271.578 198.518 271.592V270.825C198.197 270.783 198.03 270.769 197.835 270.769C196.816 270.769 196.203 271.118 196.203 272.666ZM202.003 281.009C203.761 281.009 204.793 280.158 204.793 278.86C204.793 277.382 203.468 277.005 202.128 276.684C201.054 276.419 200.092 276.293 200.092 275.401C200.092 274.731 200.664 274.34 201.682 274.34C203.063 274.34 203.44 275.08 203.565 275.708H204.514C204.388 274.536 203.523 273.545 201.668 273.545C200.064 273.545 199.143 274.299 199.143 275.456C199.143 276.837 200.468 277.158 201.78 277.493C202.77 277.73 203.83 277.842 203.83 278.888C203.83 279.586 203.37 280.213 202.017 280.213C200.524 280.213 199.883 279.474 199.827 278.498H198.878C198.92 279.92 200.008 281.009 202.003 281.009ZM208.974 281.023C210.759 281.023 211.736 279.948 212.084 278.651H211.164C211.024 279.237 210.452 280.241 208.987 280.241C207.313 280.241 206.546 278.888 206.532 277.451H212.168C212.182 277.34 212.182 277.144 212.182 276.949C212.182 274.968 211.024 273.531 208.974 273.531C206.923 273.531 205.584 274.996 205.584 277.27C205.584 279.432 206.797 281.023 208.974 281.023ZM206.532 276.656C206.602 275.331 207.551 274.313 208.932 274.313C210.396 274.313 211.22 275.387 211.22 276.656H206.532ZM215.422 280.883C215.646 280.883 215.813 280.869 216.092 280.827V280.06C215.883 280.074 215.771 280.088 215.548 280.088C214.85 280.088 214.655 279.879 214.655 279V274.508H216.092V273.713H214.655V271.341H213.748V273.713H212.702V274.508H213.748V278.986C213.748 280.534 214.39 280.883 215.422 280.883ZM219.89 281.009C221.648 281.009 222.68 280.158 222.68 278.86C222.68 277.382 221.355 277.005 220.016 276.684C218.942 276.419 217.979 276.293 217.979 275.401C217.979 274.731 218.551 274.34 219.569 274.34C220.95 274.34 221.327 275.08 221.453 275.708H222.401C222.276 274.536 221.411 273.545 219.555 273.545C217.951 273.545 217.03 274.299 217.03 275.456C217.03 276.837 218.356 277.158 219.667 277.493C220.657 277.73 221.718 277.842 221.718 278.888C221.718 279.586 221.257 280.213 219.904 280.213C218.411 280.213 217.77 279.474 217.714 278.498H216.765C216.807 279.92 217.895 281.009 219.89 281.009Z" fill="white"/>
<path d="M274.353 372.338C274.353 366.088 277.223 360.731 284.876 360.731C291.635 360.731 293.74 365.323 293.74 369.659C293.74 376.355 289.276 378.268 281.304 382.86C273.333 387.324 268.295 393.382 268.295 401.545H298.14V397.464H273.843V397.336C274.927 391.469 280.22 388.472 285.577 385.411C291.954 381.776 298.587 377.95 298.587 369.595C298.587 361.369 292.464 356.65 284.939 356.65C274.545 356.65 269.507 363.792 269.507 372.338H274.353ZM304.756 409.262C309.092 407.922 310.112 405.116 310.112 401.545V396.188H304.756V401.545H307.37C307.434 404.606 306.796 405.754 304.756 406.519V409.262ZM321.995 372.338C321.995 366.088 324.865 360.731 332.518 360.731C339.278 360.731 341.382 365.323 341.382 369.659C341.382 376.355 336.918 378.268 328.947 382.86C320.975 387.324 315.937 393.382 315.937 401.545H345.782V397.464H321.485V397.336C322.569 391.469 327.862 388.472 333.219 385.411C339.596 381.776 346.229 377.95 346.229 369.595C346.229 361.369 340.107 356.65 332.582 356.65C322.187 356.65 317.149 363.792 317.149 372.338H321.995ZM368.111 402.374C379.781 402.374 384.755 392.043 384.755 379.544C384.755 367.045 379.781 356.65 368.111 356.65C356.441 356.65 351.53 367.045 351.53 379.544C351.53 392.043 356.441 402.374 368.111 402.374ZM368.111 398.293C359.438 398.293 356.377 389.556 356.377 379.544C356.377 369.468 359.438 360.731 368.111 360.731C376.848 360.731 379.909 369.468 379.909 379.544C379.909 389.556 376.848 398.293 368.111 398.293ZM387.559 357.479V361.56H412.239V361.688C402.354 370.106 394.51 387.579 394.51 401.545H399.357C399.357 388.089 405.798 370.552 417.532 361.05V357.479H387.559Z" fill="white"/>
<path d="M63.0154 399.606H63.8883V392.288H63.9122L66.7222 399.606H67.5114L70.3333 392.288H70.3572V399.606H71.2301V391.057H70.0224L67.1287 398.434H67.1048L64.2231 391.057H63.0154V399.606ZM75.2222 399.606H76.0831V391.822H79.0007V391.057H72.3166V391.822H75.2222V399.606ZM85.8324 399.762C87.8651 399.762 89.1924 398.434 89.3957 396.569H88.4869C88.3912 397.753 87.6379 398.996 85.8324 398.996C83.7758 398.996 82.8192 397.251 82.8192 395.337C82.8192 393.424 83.7638 391.666 85.8324 391.666C87.5782 391.666 88.2836 392.826 88.451 393.783H89.3598C89.1446 392.181 87.8412 390.901 85.8444 390.901C83.5007 390.901 81.9104 392.755 81.9104 395.337C81.9104 397.932 83.5127 399.762 85.8324 399.762ZM94.3611 399.762C96.8243 399.762 98.4624 397.896 98.4624 395.325C98.4624 392.755 96.8243 390.901 94.3611 390.901C91.8859 390.901 90.2478 392.755 90.2478 395.325C90.2478 397.896 91.8859 399.762 94.3611 399.762ZM91.1565 395.325C91.1565 393.305 92.2447 391.666 94.3611 391.666C96.4656 391.666 97.5537 393.305 97.5537 395.325C97.5537 397.346 96.4656 398.996 94.3611 398.996C92.2447 398.996 91.1565 397.346 91.1565 395.325ZM99.3066 399.606H104.903V398.841H100.347V398.817C100.502 397.717 101.543 397.155 102.547 396.581C103.755 395.899 104.986 395.182 104.986 393.615C104.986 392.073 103.838 391.188 102.427 391.188C100.478 391.188 99.5458 392.527 99.5458 394.13H100.443C100.443 392.958 100.981 391.953 102.416 391.953C103.683 391.953 104.078 392.814 104.078 393.627C104.078 394.883 103.253 395.242 101.746 396.103C100.251 396.94 99.3066 398.076 99.3066 399.606ZM108.799 399.773C110.329 399.773 111.166 398.853 111.465 397.741H110.676C110.556 398.243 110.066 399.104 108.811 399.104C107.376 399.104 106.718 397.944 106.706 396.712H111.537C111.549 396.617 111.549 396.449 111.549 396.282C111.549 394.584 110.556 393.352 108.799 393.352C107.041 393.352 105.893 394.608 105.893 396.557C105.893 398.41 106.933 399.773 108.799 399.773ZM106.706 396.031C106.766 394.895 107.579 394.022 108.763 394.022C110.018 394.022 110.724 394.943 110.724 396.031H106.706Z" fill="white"/>
<rect x="127" y="472.672" width="403.212" height="203.099" rx="9.95584" fill="#263336"/>
<path d="M153.562 508.602H155.712V501.816H158.185V500.06H151.077V501.816H153.562V508.602ZM163.539 508.793C166.227 508.793 167.769 506.906 167.769 504.325C167.769 501.757 166.227 499.869 163.539 499.869C160.827 499.869 159.31 501.757 159.31 504.325C159.31 506.906 160.827 508.793 163.539 508.793ZM161.508 504.325C161.508 502.844 161.974 501.625 163.539 501.625C165.092 501.625 165.57 502.844 165.57 504.325C165.57 505.819 165.092 507.037 163.539 507.037C161.974 507.037 161.508 505.819 161.508 504.325ZM171.373 508.602H173.524V501.816H175.997V500.06H168.888V501.816H171.373V508.602ZM176.097 508.602H178.403L178.952 506.822H181.879L182.429 508.602H184.782L181.509 500.06H179.346L176.097 508.602ZM179.442 505.185L180.41 502.031H180.434L181.401 505.185H179.442ZM186.421 508.602H192.371V506.846H188.571V500.06H186.421V508.602ZM197.232 508.602H203.779V506.846H199.383V505.09H203.11V503.334H199.383V501.816H203.708V500.06H197.232V508.602ZM205.893 508.602H207.924V503.286H207.948L209.537 508.602H211.042L212.631 503.286H212.655V508.602H214.686V500.06H212.058L210.302 505.508H210.278L208.522 500.06H205.893V508.602ZM217.121 508.602H219.271V500.06H217.121V508.602ZM225.139 508.793C227.277 508.793 228.52 507.73 228.52 506.093C228.52 504.325 226.859 503.871 225.246 503.393C224.159 503.071 223.681 502.88 223.681 502.306C223.681 501.816 224.135 501.601 224.78 501.601C225.605 501.601 226.13 501.996 226.226 502.653H228.4C228.341 500.92 226.776 499.869 224.78 499.869C222.941 499.869 221.483 500.598 221.483 502.462C221.483 503.991 222.809 504.564 224.291 505.018C225.473 505.377 226.322 505.568 226.322 506.297C226.322 506.739 225.915 507.061 225.115 507.061C224.147 507.061 223.395 506.691 223.395 505.699H221.22C221.22 507.658 222.905 508.793 225.139 508.793ZM233.986 508.793C236.125 508.793 237.367 507.73 237.367 506.093C237.367 504.325 235.707 503.871 234.094 503.393C233.007 503.071 232.529 502.88 232.529 502.306C232.529 501.816 232.983 501.601 233.628 501.601C234.452 501.601 234.978 501.996 235.073 502.653H237.248C237.188 500.92 235.623 499.869 233.628 499.869C231.788 499.869 230.331 500.598 230.331 502.462C230.331 503.991 231.657 504.564 233.138 505.018C234.321 505.377 235.169 505.568 235.169 506.297C235.169 506.739 234.763 507.061 233.962 507.061C232.995 507.061 232.242 506.691 232.242 505.699H230.068C230.068 507.658 231.752 508.793 233.986 508.793ZM239.393 508.602H241.544V500.06H239.393V508.602ZM247.841 508.793C250.529 508.793 252.07 506.906 252.07 504.325C252.07 501.757 250.529 499.869 247.841 499.869C245.129 499.869 243.612 501.757 243.612 504.325C243.612 506.906 245.129 508.793 247.841 508.793ZM245.81 504.325C245.81 502.844 246.276 501.625 247.841 501.625C249.394 501.625 249.872 502.844 249.872 504.325C249.872 505.819 249.394 507.037 247.841 507.037C246.276 507.037 245.81 505.819 245.81 504.325ZM254.136 508.602H256.287V503.525H256.311L259.297 508.602H261.448V500.06H259.297V505.138H259.273L256.287 500.06H254.136V508.602ZM267.323 508.793C269.461 508.793 270.704 507.73 270.704 506.093C270.704 504.325 269.043 503.871 267.43 503.393C266.343 503.071 265.865 502.88 265.865 502.306C265.865 501.816 266.319 501.601 266.964 501.601C267.789 501.601 268.314 501.996 268.41 502.653H270.584C270.525 500.92 268.96 499.869 266.964 499.869C265.125 499.869 263.667 500.598 263.667 502.462C263.667 503.991 264.993 504.564 266.475 505.018C267.657 505.377 268.506 505.568 268.506 506.297C268.506 506.739 268.099 507.061 267.299 507.061C266.331 507.061 265.579 506.691 265.579 505.699H263.404C263.404 507.658 265.089 508.793 267.323 508.793Z" fill="white"/>
<line x1="149" y1="533.502" x2="504.424" y2="533.502" stroke="#515C5E" stroke-width="0.995584"/>
<path d="M375.984 610.11C375.474 615.463 373.626 617.884 365.98 618.075V621.962C369.867 621.962 372.989 621.643 375.092 619.413V654.139H379.743V610.11H375.984ZM404.536 654.967C416.196 654.967 421.166 644.645 421.166 632.157C421.166 619.668 416.196 609.282 404.536 609.282C392.875 609.282 387.969 619.668 387.969 632.157C387.969 644.645 392.875 654.967 404.536 654.967ZM404.536 650.89C395.87 650.89 392.812 642.16 392.812 632.157C392.812 622.089 395.87 613.36 404.536 613.36C413.265 613.36 416.323 622.089 416.323 632.157C416.323 642.16 413.265 650.89 404.536 650.89ZM442.778 654.967C451.698 654.967 458.898 650.507 458.898 641.842C458.898 635.725 454.884 632.475 450.424 630.627V630.5C453.737 628.843 456.732 625.912 456.732 620.942C456.732 613.551 450.87 609.282 442.778 609.282C434.686 609.282 428.824 613.551 428.824 620.942C428.824 625.912 431.755 628.843 435.132 630.5V630.627C430.608 632.475 426.657 635.725 426.657 641.842C426.657 650.507 433.858 654.967 442.778 654.967ZM442.778 628.525C437.298 628.525 433.666 626.04 433.666 620.942C433.666 615.845 437.298 613.36 442.778 613.36C448.258 613.36 451.89 615.845 451.89 620.942C451.89 626.04 448.258 628.525 442.778 628.525ZM442.778 650.89C436.088 650.89 431.5 647.576 431.5 641.651C431.5 635.916 436.088 632.603 442.778 632.603C449.468 632.603 454.056 635.916 454.056 641.651C454.056 647.576 449.468 650.89 442.778 650.89ZM480.947 654.967C492.607 654.967 497.577 644.645 497.577 632.157C497.577 619.668 492.607 609.282 480.947 609.282C469.286 609.282 464.38 619.668 464.38 632.157C464.38 644.645 469.286 654.967 480.947 654.967ZM480.947 650.89C472.281 650.89 469.223 642.16 469.223 632.157C469.223 622.089 472.281 613.36 480.947 613.36C489.676 613.36 492.734 622.089 492.734 632.157C492.734 642.16 489.676 650.89 480.947 650.89Z" fill="white"/>
<rect x="127" y="-31.7896" width="404" height="203.496" rx="9.97531" fill="#263336"/>
<path d="M153.721 20.4674H155.876V13.6682H158.354V11.9086H151.232V13.6682H153.721V20.4674ZM163.751 20.6589C166.444 20.6589 167.989 18.7676 167.989 16.182C167.989 13.6084 166.444 11.7171 163.751 11.7171C161.034 11.7171 159.514 13.6084 159.514 16.182C159.514 18.7676 161.034 20.6589 163.751 20.6589ZM163.751 18.8993C162.183 18.8993 161.716 17.6783 161.716 16.182C161.716 14.6977 162.183 13.4767 163.751 13.4767C165.307 13.4767 165.786 14.6977 165.786 16.182C165.786 17.6783 165.307 18.8993 163.751 18.8993ZM171.638 20.4674H173.793V13.6682H176.271V11.9086H169.148V13.6682H171.638V20.4674ZM182.014 18.6838L182.565 20.4674H184.923L181.643 11.9086H179.476L176.22 20.4674H178.53L179.081 18.6838H182.014ZM179.572 17.0439L180.542 13.8837H180.565L181.535 17.0439H179.572ZM186.572 11.9086V20.4674H192.533V18.7078H188.727V11.9086H186.572ZM199.922 15.1885V13.6682H204.255V11.9086H197.767V20.4674H204.327V18.7078H199.922V16.9481H203.657V15.1885H199.922ZM206.457 20.4674H208.492V15.1406H208.515L210.108 20.4674H211.616L213.208 15.1406H213.232V20.4674H215.267V11.9086H212.633L210.874 17.3671H210.85L209.09 11.9086H206.457V20.4674ZM217.706 11.9086V20.4674H219.861V11.9086H217.706ZM225.8 15.2483C224.71 14.9251 224.232 14.7336 224.232 14.159C224.232 13.6682 224.686 13.4528 225.333 13.4528C226.159 13.4528 226.686 13.8478 226.781 14.5062H228.96C228.9 12.7705 227.332 11.7171 225.333 11.7171C223.489 11.7171 222.029 12.4473 222.029 14.3146C222.029 15.8468 223.346 16.4454 224.842 16.8763C226.027 17.2354 226.877 17.4269 226.877 18.1571C226.877 18.6 226.47 18.9232 225.668 18.9232C224.698 18.9232 223.944 18.5521 223.944 17.5586H221.766C221.766 19.5217 223.454 20.6589 225.692 20.6589C227.835 20.6589 229.08 19.5936 229.08 17.9536C229.08 16.182 227.416 15.7271 225.8 15.2483ZM234.664 15.2483C233.575 14.9251 233.096 14.7336 233.096 14.159C233.096 13.6682 233.551 13.4528 234.198 13.4528C235.024 13.4528 235.55 13.8478 235.646 14.5062H237.825C237.765 12.7705 236.197 11.7171 234.198 11.7171C232.354 11.7171 230.894 12.4473 230.894 14.3146C230.894 15.8468 232.211 16.4454 233.707 16.8763C234.892 17.2354 235.742 17.4269 235.742 18.1571C235.742 18.6 235.335 18.9232 234.533 18.9232C233.563 18.9232 232.809 18.5521 232.809 17.5586H230.63C230.63 19.5217 232.318 20.6589 234.557 20.6589C236.699 20.6589 237.944 19.5936 237.944 17.9536C237.944 16.182 236.28 15.7271 234.664 15.2483ZM239.905 11.9086V20.4674H242.06V11.9086H239.905ZM248.37 20.6589C251.063 20.6589 252.607 18.7676 252.607 16.182C252.607 13.6084 251.063 11.7171 248.37 11.7171C245.652 11.7171 244.132 13.6084 244.132 16.182C244.132 18.7676 245.652 20.6589 248.37 20.6589ZM248.37 18.8993C246.802 18.8993 246.335 17.6783 246.335 16.182C246.335 14.6977 246.802 13.4767 248.37 13.4767C249.926 13.4767 250.405 14.6977 250.405 16.182C250.405 17.6783 249.926 18.8993 248.37 18.8993ZM254.677 20.4674H256.832V15.38H256.856L259.848 20.4674H262.003V11.9086H259.848V16.996H259.824L256.832 11.9086H254.677V20.4674ZM267.949 15.2483C266.86 14.9251 266.381 14.7336 266.381 14.159C266.381 13.6682 266.836 13.4528 267.482 13.4528C268.308 13.4528 268.835 13.8478 268.931 14.5062H271.109C271.05 12.7705 269.481 11.7171 267.482 11.7171C265.639 11.7171 264.179 12.4473 264.179 14.3146C264.179 15.8468 265.495 16.4454 266.992 16.8763C268.177 17.2354 269.027 17.4269 269.027 18.1571C269.027 18.6 268.62 18.9232 267.818 18.9232C266.848 18.9232 266.094 18.5521 266.094 17.5586H263.915C263.915 19.5217 265.603 20.6589 267.842 20.6589C269.984 20.6589 271.229 19.5936 271.229 17.9536C271.229 16.182 269.565 15.7271 267.949 15.2483Z" fill="white"/>
<line x1="150.944" y1="44.4531" x2="507.063" y2="44.4531" stroke="#515C5E" stroke-width="1.13188"/>
<path d="M338.542 105.797C338.031 111.16 336.18 113.586 328.519 113.778V117.672C332.413 117.672 335.541 117.353 337.648 115.118V149.912H342.308V105.797H338.542ZM366.064 150.742C375.002 150.742 382.216 146.273 382.216 137.591C382.216 131.462 378.194 128.206 373.725 126.354V126.227C377.045 124.567 380.046 121.63 380.046 116.651C380.046 109.245 374.172 104.967 366.064 104.967C357.956 104.967 352.083 109.245 352.083 116.651C352.083 121.63 355.02 124.567 358.403 126.227V126.354C353.87 128.206 349.912 131.462 349.912 137.591C349.912 146.273 357.126 150.742 366.064 150.742ZM366.064 124.248C360.574 124.248 356.935 121.758 356.935 116.651C356.935 111.543 360.574 109.053 366.064 109.053C371.555 109.053 375.194 111.543 375.194 116.651C375.194 121.758 371.555 124.248 366.064 124.248ZM366.064 146.656C359.361 146.656 354.764 143.336 354.764 137.399C354.764 131.653 359.361 128.334 366.064 128.334C372.768 128.334 377.364 131.653 377.364 137.399C377.364 143.336 372.768 146.656 366.064 146.656ZM392.305 129.036V127.759C392.433 117.544 395.114 109.053 404.244 109.053C409.351 109.053 412.288 111.99 412.862 116.778H417.65C417.076 110.139 411.905 104.967 404.244 104.967C393.582 104.967 387.709 113.586 387.709 128.397C387.709 142.251 392.433 150.742 403.861 150.742C413.245 150.742 418.863 144.039 418.863 135.739C418.863 127.121 413.118 121.247 404.691 121.247C399.456 121.247 394.476 123.801 392.433 129.1L392.305 129.036ZM403.861 146.656C397.03 146.656 393.327 142.123 393.327 136.442C393.327 129.419 398.179 125.333 404.308 125.333C410.181 125.333 414.011 129.355 414.011 135.995C414.011 142.379 410.436 146.656 403.861 146.656ZM424.488 144.549V149.912H429.851V144.549H424.488ZM439.439 129.036V127.759C439.566 117.544 442.248 109.053 451.377 109.053C456.484 109.053 459.421 111.99 459.996 116.778H464.784C464.209 110.139 459.038 104.967 451.377 104.967C440.715 104.967 434.842 113.586 434.842 128.397C434.842 142.251 439.566 150.742 450.994 150.742C460.379 150.742 465.997 144.039 465.997 135.739C465.997 127.121 460.251 121.247 451.824 121.247C446.589 121.247 441.609 123.801 439.566 129.1L439.439 129.036ZM450.994 146.656C444.163 146.656 440.46 142.123 440.46 136.442C440.46 129.419 445.312 125.333 451.441 125.333C457.314 125.333 461.145 129.355 461.145 135.995C461.145 142.379 457.57 146.656 450.994 146.656ZM488.014 120.545C483.353 120.545 479.714 122.013 477.288 124.758V124.631L480.289 109.883H499.697V105.797H476.522L471.862 129.291H476.841C478.821 126.61 482.332 124.631 486.992 124.631C492.93 124.631 497.143 127.695 497.143 134.973C497.143 142.762 492.674 146.656 486.418 146.656C479.331 146.656 476.458 142.379 476.012 137.463H471.223C471.415 144.294 476.586 150.742 486.609 150.742C495.483 150.742 501.995 144.422 501.995 134.973C501.995 126.801 496.441 120.545 488.014 120.545Z" fill="white"/>
<path d="M150.038 147.998H150.912V140.673H150.936L153.749 147.998H154.539L157.364 140.673H157.388V147.998H158.25V139.44H157.053L154.156 146.825H154.132L151.235 139.44H150.038V147.998ZM162.181 147.998H163.043V140.206H165.951V139.44H159.26V140.206H162.181V147.998ZM176.148 142.169H177.058C176.831 140.565 175.526 139.284 173.527 139.284C171.193 139.284 169.6 141.139 169.6 143.725C169.6 146.323 171.193 148.154 173.515 148.154C175.562 148.154 176.878 146.825 177.094 144.958H176.184C176.088 146.143 175.334 147.388 173.515 147.388C171.468 147.388 170.498 145.64 170.498 143.725C170.498 141.81 171.456 140.05 173.527 140.05C175.274 140.05 175.969 141.211 176.148 142.169ZM182.24 148.154C184.706 148.154 186.358 146.287 186.358 143.713C186.358 141.139 184.706 139.284 182.24 139.284C179.774 139.284 178.134 141.139 178.134 143.713C178.134 146.287 179.774 148.154 182.24 148.154ZM182.24 147.388C180.133 147.388 179.044 145.736 179.044 143.713C179.044 141.69 180.133 140.05 182.24 140.05C184.359 140.05 185.448 141.69 185.448 143.713C185.448 145.736 184.359 147.388 182.24 147.388ZM188.42 142.516C188.42 141.343 188.959 140.337 190.395 140.337C191.664 140.337 192.059 141.199 192.059 142.013C192.059 143.27 191.221 143.629 189.725 144.491C188.229 145.329 187.283 146.466 187.283 147.998H192.885V147.232H188.324V147.208C188.528 146.107 189.521 145.544 190.527 144.97C191.724 144.288 192.969 143.569 192.969 142.001C192.969 140.457 191.82 139.571 190.407 139.571C188.456 139.571 187.51 140.912 187.51 142.516H188.42ZM196.797 148.166C198.329 148.166 199.167 147.244 199.466 146.131H198.676C198.557 146.634 198.078 147.496 196.809 147.496C195.373 147.496 194.714 146.347 194.702 145.102H199.538C199.55 145.006 199.55 144.838 199.55 144.671C199.55 142.971 198.557 141.738 196.797 141.738C195.037 141.738 193.888 142.995 193.888 144.946C193.888 146.801 194.93 148.166 196.797 148.166ZM196.761 142.408C198.018 142.408 198.724 143.33 198.724 144.419H194.702C194.762 143.282 195.576 142.408 196.761 142.408Z" fill="white"/>
</g>
<defs>
<clipPath id="clip0_934_20946">
<rect width="482.499" height="643" fill="white"/>
</clipPath>
</defs>
</svg>
