<svg width="128" height="47" viewBox="0 0 128 47" fill="none" xmlns="http://www.w3.org/2000/svg">
<g clip-path="url(#clip0_1835_19571)">
<path d="M44.5714 15.1827V45.3205H74.7228C83.0464 45.3205 89.7982 38.5715 89.7982 30.246V0.108643H59.6468C51.3211 0.108643 44.5714 6.85767 44.5714 15.1827ZM49.5968 15.1827C49.5931 13.8624 49.8513 12.5546 50.3566 11.3348C50.8618 10.1151 51.604 9.00761 52.5401 8.07657C53.1624 7.45284 53.8633 6.91293 54.6253 6.47053V31.7124L49.5951 36.7426L49.5968 15.1827ZM81.829 37.3521C80.898 38.2882 79.7906 39.0304 78.5708 39.5357C77.351 40.041 76.0431 40.2993 74.7228 40.2957H53.1496L58.1695 35.2762H83.4277C82.9873 36.0347 82.4498 36.7325 81.829 37.3521V37.3521ZM84.7729 20.2022H73.2455L84.7729 8.67528V20.2022ZM69.7028 5.1335H81.2071L69.7012 16.6384L69.7028 5.1335ZM84.7729 25.227V30.2519H63.1948L68.2202 25.227H84.7729ZM59.6522 5.1335H64.6775V21.6627L59.6522 26.6875V5.1335Z" fill="#C7DDDF"/>
<path d="M23.3689 18.7935L17.1665 17.5408C14.0341 16.8514 11.9038 15.2228 11.9038 12.9675C11.9038 10.1485 14.9739 8.58221 19.1089 8.58221C23.682 8.58221 27.0029 10.5244 28.0677 13.9072H38.6559C37.0895 3.88382 28.6316 0 19.735 0C10.8384 0 0.877474 4.32251 0.877474 13.5942C0.877474 21.7377 7.58093 25.2462 14.9739 26.8119L20.4868 27.9396C25.4364 29.0049 28.9447 30.4455 28.9447 33.3897C28.9447 37.1484 24.8097 38.3388 21.1763 38.3388C15.6001 38.3388 11.841 36.1464 10.651 31.3852H0C1.62928 41.1579 9.2725 46.9838 20.9256 46.9838C30.386 46.9838 39.9716 41.5965 39.9716 32.0741C39.9716 22.5517 30.6991 20.297 23.3689 18.7935Z" fill="#C7DDDF"/>
<path d="M106.199 35.9639V0.00537109H95.4858V45.4229H128V35.9639H106.199Z" fill="#C7DDDF"/>
</g>
<defs>
<clipPath id="clip0_1835_19571">
<rect width="128" height="46.9838" fill="white"/>
</clipPath>
</defs>
</svg>
